<?xml version="1.0" encoding="utf-8"?>
<!-- Generator: Adobe Illustrator 18.0.0, SVG Export Plug-In . SVG Version: 6.00 Build 0)  -->
<!DOCTYPE svg PUBLIC "-//W3C//DTD SVG 1.1//EN" "http://www.w3.org/Graphics/SVG/1.1/DTD/svg11.dtd">
<svg version="1.1" id="Layer_1" xmlns="http://www.w3.org/2000/svg" xmlns:xlink="http://www.w3.org/1999/xlink" x="0px" y="0px"
	 viewBox="0 0 360 360" enable-background="new 0 0 360 360" xml:space="preserve">
<path fill="none" stroke="#000000" stroke-width="2" stroke-linecap="round" stroke-linejoin="round" stroke-miterlimit="10" d="
	M151.6,0c-1.3,0.4-3.1,2.1-4,2.9c-3.7,3.3-6.5,7.2-8.1,11.9c-0.5,1.3-0.8,2.7-1.2,4.1c-0.2,0.6,0.1,1.2,0.9,1.2c3.5,0,7,0,10.4,0
	c0.7,0,0.8-0.5,1-1c1.3-3.7,3.6-6.6,6.8-8.6c1-0.6,2-1.2,3.1-1.4c0.9-0.2,1.3-0.8,1.2-1.8c-0.1-2,0-5.2,0-7.2 M170,0
	c0,2.1,0.1,5.3,0,7.4c0,0.8,0.2,1.2,1,1.4c4,1.3,6.9,3.9,9,7.4c0.5,0.9,0.9,1.8,1.2,2.8c0.2,0.8,0.6,1,1.3,1c3.2,0,6.4,0,9.6,0
	c1.3,0,1.6-0.3,1.3-1.6c-1.6-7.2-5.3-13-11.3-17.3c-1-0.7-0.4-0.4-1.6-1.2 M41.2,254.5c0.4,4.3,2.4,7.7,6.4,9.6
	c6.4,3.1,14-0.7,15.5-7.7c1.2-5.6-2.3-11.5-8.2-13c-6.1-1.5-12.3,2.6-13.3,8.4c-0.1,0.7-0.2,1.4-0.2,2L41.2,254.5z M23.5,292.9
	c5.1,0.1,9.4-3.4,10.7-8c1.5-5.4-1.6-10.3-5.1-12.4c-6.4-3.8-14.6-0.1-16.3,7c-1.2,5.3,1.9,10.6,6,12.4c1.5,0.7,3,0.9,4.6,1.2
	 M24.6,170.4c-2.6-0.6-5.3-1-7.9-1.6c-0.9-0.2-2.1,0.7-2.3,1.7c-0.6,4.6-1.1,9.3-1.8,13.9c-0.1,0.4,0.2,0.8,0.2,1.2
	c2.3,0.2,4.3-0.6,6.3-1.4c5-2.1,8.9-5.6,11.7-10.3c0.3-0.6,0.8-1.5,0.8-2.1L24.6,170.4z M58.9,62.6c-3.3-2.1-6.7-3.8-10-5.8
	c-0.7-0.4-1.3-0.5-2.1,0.2c-3,3.1-6.7,5.2-10.9,6.3c-0.8,0.2-1.1,0.7-1.1,1.6c0.1,4.1,0.1,8.2,0,12.2c0,1.3,0.3,1.7,1.8,1.4
	c9.2-1.7,16.9-6.2,23-13.2c0.4-0.4,0.7-0.9,0.9-1.4L58.9,62.6z M128,119.9c-0.4-2.8-1.6-5.1-4.3-6.2c-4.7-1.8-9.5,0.9-9.8,6.2
	c-0.2,3.1,1.7,5.9,5.1,6.9c3,0.9,6.4-0.5,7.9-3.2c0.7-1.1,0.9-2.4,1.1-3.6 M0,16.9c1,0.5,2.4,1.6,3.3,2.1c2.4,1.4,4.8,2.7,7.2,4.1
	c0.5,0.3,1,0.5,1.6,0.7c2.2-2.2,4.7-4.1,7.5-5.4c1.3-0.6,2.7-1.1,4.1-1.4c0.9-0.2,1.2-0.6,1.2-1.6c0-4.1,0-8.2,0-12.2V1.5
	c-0.9-0.3-2.2,0.2-3,0.4C13.7,3.4,5.5,8.5,0,14.9 M0,65c0.4,0.4,0.7,0.9,1.1,1.3c2.8,3.2,6.2,5.8,10,7.9c3.9,2.1,8,3.6,12.4,4.3
	l1.2,0c0.2-0.6,0.3-1.2,0.2-1.8c0-3.9,0-7.8,0-11.8c0-1-0.3-1.4-1.3-1.7c-4-1-7.5-3.1-10.4-6c-1.2-1.2-1.1-1.1-2.5-0.3
	c-3.1,1.8-6.3,3.6-9.4,5.5c-0.5,0.3-0.7,0.4-1.3,0.7 M50.1,95.4c-0.6,0.4-1.4,0.6-2,0.8c-2,0.5-1.7,1-3-1.1
	c-0.3-0.4-0.5-0.9-0.7-1.3c-1-1.7-2-3.3-2.9-5.1c-0.4-0.7-0.9-1-1.6-0.8c-1.5,0.3-2.9,0.7-4.4,0.7c-1.1,0-1.5,0.7-1.7,1.6
	c-0.3,2.1-0.8,4.2-1.2,6.2c-0.5,2.5-0.4,2.5-3,2.5c-1.9,0-1.9,0-2.3-1.9c-0.4-2.5-1-5-1.4-7.4c-0.1-0.6-0.5-0.8-1.1-0.9
	c-1.6-0.2-3.1-0.3-4.7-0.7c-0.8-0.2-1.4-0.1-1.8,0.7c-1,1.8-2.1,3.6-3,5.4c-1.4,2.8-1.7,2.9-4.6,1.7c-0.9-0.4-1.2-0.8-1-1.8
	c0.4-2.6,0.6-5.3,0.9-7.9c0.1-0.7-0.1-1.2-0.7-1.4c-1.6-0.5-3-1.4-4.4-2.2c-0.6-0.3-1.1-0.3-1.6,0.1c-1.6,1.5-3.4,2.8-4.1,5
	 M0.3,183.4c0.2,0.7,0.8,1.1,1.5,1.3c1.7,0.4,3.4,1.2,5.2,0.9c0.4-0.6,0.2-1.3,0.1-2c-0.6-4.1-1.1-8.2-1.5-12.4
	c-0.1-1.4-1.3-2.8-3-2.3c-0.6,0.2-1.3,0.3-1.9,0.5 M250.8,115c1.4-2.2,1.5-2.3-0.9-3.4c-3.1-1.3-6.4-2.1-9.7-2.4
	c-0.8-0.1-1.2,0.2-1.2,1.1c0.1,3.3-0.4,2.6,2.8,3.1c2.3,0.4,4.6,1,6.7,1.9c0.6,0.2,1.1,0.5,1.8,0.5L250.8,115z M250,170.3
	c-1.6,0.3-3,1.2-4.6,1.6c-1.8,0.5-3.7,0.9-5.5,1.1c-0.7,0.1-1.1,0.4-1.1,1.1c0,0.7,0,1.4,0,2c0,0.8,0.5,1,1.2,0.9
	c3.4-0.5,6.7-1.2,9.8-2.5c0,0,0.1,0,0.1,0c1.9-0.8,2.1-1.4,0.9-3.1L250,170.3z M267.5,158.1c1.5-2.8,2.6-7,3-10.1c0-0.1,0-0.2,0-0.4
	c0.2-0.8,0.7-1.8-0.2-2.3c-0.8-0.5-2-0.2-3-0.1c-0.4,0-0.7,0.6-0.7,1c-0.2,3.1-1.1,6-2.3,8.9c-0.2,0.4-0.3,0.8-0.2,1.2L267.5,158.1z
	 M105,108.3c0.1,2.4,2,3.9,4.6,3.7c1.9-0.1,3.5-2.2,3.4-4.2c-0.2-2.3-2-3.8-4.2-3.7c-2.2,0.1-3.7,1.8-3.7,4.1 M33.4,166.2
	c0.5-0.8,0.5-1.7,0.5-2.5c0.3-6.9-1.7-12.9-6.5-18c-1.1-1.2-1.6-1.2-2.4,0.2c-2.1,3.7-4.1,7.4-6.1,11.2c-1,1.9-0.8,2.8,1.1,3.7
	c3.4,1.6,6.9,3.2,10.3,4.8c0.9,0.4,1.7,1,2.8,1L33.4,166.2z M0,143.2c2.3,2.7,5.9,6.7,8.4,9.2c0.9,0.9,2.3,0.9,3.1,0
	c3.2-3.3,6.3-6.7,9.5-10.1c0.2-0.2,0.8-0.8,1-1.1l-2.4-1.1c-6-2.6-11.9-2.6-18-0.6c-0.5,0.2-1.2,0.1-1.4,0.6 M357.1,351.4
	c-0.5-0.1-0.9,0.3-1.2,0.5c-2.4,1.8-2.7,1.2-1.2,4.3c0.6,1.3,1.4,2.5,1.6,3.9 M359.7,353.5c-0.9-0.6-1.5-1.7-2.5-2.2 M119.4,313.9
	c0.6,2.1,1.3,2.8,3.2,2.8c1.3,0,2-0.7,2.5-1.8c0.5-1.2,0.3-2.2-0.6-3.1c-0.9-0.9-1.9-1.2-3.1-0.8c-1.4,0.4-1.9,1.5-2,2.9
	 M139.6,287.4c1.4-0.3,2.5-1,2.8-2.5c0.2-1.6-0.8-3.1-2.3-3.5c-1.6-0.4-3.1,0.6-3.6,2.3c-0.4,1.4,0.4,2.9,1.9,3.5
	c0.3,0.1,0.7,0.2,1.1,0.2H139.6z M37.9,237c-1,0.2-1.8,0.5-2.4,1.4c-1,1.5-0.7,3.4,0.9,4.2c1.6,0.9,3.5,0.4,4.3-1.3
	c0.7-1.5,0.1-3.3-1.7-4.1c-0.3-0.1-0.6-0.2-1-0.2 M133.9,299.1c0.1-1.9-1.8-3.1-3.1-3c-1.4,0.1-3,1.1-2.8,3.5
	c0.2,1.5,1.6,2.6,3.2,2.5c1.3-0.1,2.3-1.2,2.8-2.9 M122.6,287.3c1.9-0.3,3-1.5,2.9-3.2c-0.1-1.6-1.5-2.8-3.1-2.8
	c-1.5,0.1-2.8,1.5-2.9,3c-0.1,1.4,1.1,2.7,2.6,2.9c0.1,0,0.2,0.1,0.4,0.1H122.6z M359.8,258c-1.1-0.2-2.2-0.1-3.2-0.4 M356.5,257.7
	c-1.1,0.2-2.2,0.4-3.4,0.6c-0.8,0.1-1.3,0.5-1.4,1.3c-0.2,0.8-0.5,1.6,0.6,2.3c2.3,1.6,4.8,2.4,7.6,2.8 M66,25.2
	c-1.6,0.3-12.4,7.2-13.2,7.5c0.9,2.8,2,8.4,0.6,15.1c3.9,2.3,12.2,6.9,12.4,6.9c0,0,3.8-8.3,3.1-17C68.5,31.9,66,25.2,66,25.2z
	 M0,160.9c0.1-0.1,0.6-0.4,1.1-1c0.4-0.6,0.8-1.3,0.7-1.8C1.7,158,0,155.4,0,155.3 M360,155.7c-1-1.8-1.7-3.2-2.2-4.1
	c-0.9-1.9-2.1-3.6-2.9-5.5c-0.2-0.5-0.4-1.7-0.8-2c-0.5,0.1-1.2,1-1.6,1.4c-4.6,5.2-6.9,11.2-6.6,18.2c0.1,1,0.1,2,0.7,2.9l0.4,0
	c1.6-0.3,3-1.3,4.4-1.9c2.8-1.2,5.4-2.7,8.3-3.7 M59.8,15c-2.6-3.4-5.9-6.1-9.6-8.3c-4.2-2.5-8.6-4.3-13.4-5.1
	c-0.4-0.1-1.3-0.4-1.6-0.2l-0.1,0.4c-0.3,0.4-0.2,0.8-0.2,1.2c0,4.2,0,8.3,0,12.5c0,0.7,0.2,1.2,0.9,1.3c4.6,1.1,8.4,3.4,11.6,6.8
	c0.1,0.1,0.2,0.1,0.4,0.1l0.4-0.1c2.6-1.2,5.1-2.8,7.6-4.2c1.7-1,3.5-1.7,4.9-3.1L59.8,15z M206.5,127.8c-1.4,2.7-2.7,6.7-3.2,9.7
	c-0.2,1.1-0.4,2.2-0.1,3.2l0.5,0.1c1,0.3,2.1,0.2,3.1,0c0.1-0.3,0.3-0.6,0.3-0.9c0.3-3.1,1.8-7.3,2.9-10.2L206.5,127.8z
	 M359.7,169.6c-2.9,0.6-5.8,1.1-8.8,1.7c-0.6,0.1-1.2,0.1-1.8,0.5l-0.7,0.5c0,1.3,0.9,2.2,1.6,3.2c2.3,3.4,5.2,6.1,8.9,7.9
	c0.3,0.1,0.5,0.3,0.8,0.3 M359.8,243.7c-2.1-0.9-2.7,0.6-3.2,2.1c1,1.1,1.6,2.7,3.1,3.5 M359.7,271.3c-0.7,0.2-1.3,0.5-2,0.6
	c-2,0.3-3.8,1.3-5.4,2.4c-0.5,0.3-1.1,0.6-0.8,1.3c0.3,0.9,0.2,2.2,1.7,2.3c1,0,1.9,0.5,2.9,0.5l0.5,0.1c1.1-0.4,2.3-0.1,3.3-0.4
	 M359.7,286.8c-1.6,0.8-2.1,2.4-3.1,3.5c0.5,1.7,1.3,2.8,3.2,2.2 M180.8,360.1c-1.6-1.1-2.4-1.3-3.1-1.6c-2-0.8-5.5-2-7.6-2.5
	c-0.1,1.7-0.3,1.4-0.2,3.9 M162,360c-0.2,0.2,0.5-4,0-4c-2.8-0.1-5.8,1.8-8.3,2.8c-0.5,0.2-0.8,0.3-2.5,1.2 M210.2,125.3
	c0.2,0.2,1.7,1.1,2.1,0.7c1.7-2,4.9-5.7,6.9-7.2c0.5-0.3,1-0.7,0.6-1.3c-0.5-0.8-0.6-1.8-1.5-2.3l-0.1-0.1c-1.6,0.4-2.6,1.7-3.8,2.6
	c-1.9,1.6-3.4,3.5-4.9,5.4c-0.2,0.3-0.3,0.7-0.5,1.1L210.2,125.3z M218.7,170.5c0.3-0.3,0.4-0.7,0.6-1.1c0.8-1.3,0.7-1.5-0.5-2.4
	c-2-1.6-3.9-3.4-5.5-5.5c-1.3-1.7-2-1.8-3.7-0.4c-0.3,0.2-0.5,0.5-0.7,0.7l0.4,0.9c2.1,3.3,5,5.9,8.2,8.2c0.2,0.1,0.4,0.1,0.6,0.1
	L218.7,170.5z M121.4,192.5c-1.3,2.1-2.5,4.3-3.8,6.5c-0.5,0.8-0.3,1.3,0.4,1.8c2.6,2,5.2,4,7.9,5.8c1.2,0.8,1.5,1.7,1.2,3
	c-0.4,2.3-0.4,4.6,0,6.9c0.1,0.5-0.1,1.1,0.2,1.6l0.2,0.1c-2.2,1.5-4.3,3.2-6.5,4.8c-1.3,1-2.8,1.8-3.8,3.1l0.3,0.8
	c1.4,2.6,2.7,5.4,4.6,7.7l1.2-0.3c3.1-1.1,6-2.6,9-3.9c1.1-0.5,2-0.6,3,0.3c1.8,1.7,4,3,6.4,3.7c1.8,0.5,1.6,1.9,1.8,3.2
	c0.4,3,0.7,6,1.1,9c0,0.4,0.2,0.8,0.3,1.2c1.2,0.2,2.3,0.1,3.5,0.1c1.6,0,3.3,0,4.9,0c1.5,0,1.6-0.1,1.8-1.6
	c0.4-3.2,0.8-6.4,1.1-9.6c0.1-1.2,0.5-1.9,1.8-2.3c2.4-0.8,4.6-2.1,6.5-3.8c0.9-0.8,1.6-0.7,2.5-0.3c3,1.3,6,2.6,9,4
	c0.3,0.1,0.6,0.2,0.8,0.2l0.6,0.1c0.5-0.4,0.8-0.9,1.1-1.4c1-1.8,2-3.5,3-5.3c1-1.8,1-2-0.5-3.1c-2.7-2-5.3-4-8.1-6
	c-0.5-0.4-0.9-0.7-0.7-1.3c0.8-3,0.6-5.9,0.1-8.9c-0.1-0.7,0-1.1,0.5-1.4c1.4-1,2.7-2,4.1-3c1.8-1.4,3.8-2.6,5.4-4.2
	c-0.1-0.6-0.3-1.1-0.6-1.5c-1.2-2.2-2.4-4.3-3.7-6.5l-0.6-0.6c-1.2,0-2.2,0.7-3.2,1.1c-2.5,1.2-5,2.1-7.5,3.3
	c-0.7,0.3-1.5,0.3-2.2-0.3c-2.1-1.9-4.6-3.3-7.3-4.2c-0.7-0.2-0.9-0.5-1-1.2c-0.4-3.6-0.9-7.3-1.3-10.9c-0.1-0.8-0.5-1.1-1.1-1.1
	c-2.8,0-5.6,0-8.4,0c-0.8,0-0.9,0.5-1,1.2c-0.3,3-0.7,5.9-1.1,8.9c-0.1,0.6-0.2,1.3-0.2,1.9c0,0.7-0.3,1-1,1.2
	c-2.7,0.9-5.2,2.3-7.3,4.2c-0.8,0.7-1.4,0.6-2.2,0.2c-2.6-1.1-5.3-2.3-7.9-3.4c-0.9-0.4-1.7-1-2.8-1L121.4,192.5z M0,51.4
	c1.2-0.6,4.5-2.6,5.7-3.1c1-0.5,1.2-1.1,1-2.2c-1.1-4.1-1-8.2,0-12.4l0.2-0.9c-1.1-0.9-2.5-1.6-3.7-2.3c-1.3-0.8-1.4-1-3.2-2.1
	 M50.4,95.5c-0.1-0.1-0.2-0.1-0.2-0.2c-0.2-3-0.6-6-1-9c-0.1-0.7,0.1-1.1,0.7-1.4c1.4-0.7,2.9-1.4,4.3-2.2c0.8-0.5,1.3-0.4,1.9,0.3
	c1.5,1.5,3.1,2.9,4.7,4.3c2.1,2,2.2,2,4.4,0.1c0.1-0.1,0.2-0.1,0.2-0.2l0.6-0.6c0.1-0.6-0.2-1.1-0.5-1.7c-1-2.3-2.1-4.6-3.1-6.8
	c-0.2-0.5-0.4-1,0.1-1.4c1.6-1.3,2.8-2.8,4.2-4.2c0.6-0.1,1,0.2,1.3,0.4c2.1,0.9,4.2,1.9,6.2,2.9c1.9,0.9,2,0.9,3.2-0.8
	c0.1-0.2,0.2-0.3,0.4-0.5c1-1.3,1-1.4-0.1-2.5c-1.7-1.7-3.3-3.5-4.9-5.3c-0.5-0.6-1-1.2-0.5-2c0.9-1.7,1.8-3.4,2.6-5l0.1-0.1
	c3,0.2,5.9,0.6,8.9,1c1,0.1,1.5-0.2,1.7-1.1c0.2-0.7,0.4-1.4,0.6-2c0.2-0.5,0.2-0.9-0.4-1.2c-0.4-0.2-0.7-0.5-1.1-0.7
	c-2.1-1.1-4-2.3-6.1-3.4c-0.9-0.4-1.1-1.2-0.9-2.2c0.4-1.4,0.6-2.8,0.6-4.2c0-0.9,0.5-1.3,1.4-1.5c2-0.3,4-0.8,6-1.2
	c2.9-0.6,2.9-0.6,2.9-3.5c0-1.5,0-1.5-1.4-1.8c-2.5-0.5-5-1.1-7.6-1.5c-1-0.2-1.3-0.7-1.3-1.5c-0.1-1.5-0.3-2.9-0.6-4.3
	c-0.2-0.9,0-1.4,0.7-1.8c1.8-1,3.5-2,5.3-3c3.3-1.9,2.8-0.9,1.7-4.7c-0.2-0.8-0.6-1-1.4-0.9c-3,0.3-6,0.9-9,0.9l-0.4-0.5
	c-0.7-1.4-1.4-2.8-2.2-4.2c-0.6-1.2-0.7-1.5,0.3-2.5c2-2,3.8-4.2,5.8-6.3c-0.6-1.3-1.5-2.7-2.5-3.6l-1.1,0.5c-2.3,0.9-4.5,2-6.7,3.1
	c-1.5,0.7-1.5,0.7-2.6-0.5c-0.9-1-1.9-1.9-2.9-2.9c-0.2-0.2-0.7-0.6-0.7-1c0.4-1.1,1.1-2.4,1.2-2.8 M193.3,360.1
	c0.7-1.2,1.9-2.8,2.7-3.9c1.7-1.7,1.5-1.9-0.4-3.2c-1.6,0.7-2.9,2-4.4,2.9c-0.4,0.3-0.8,0.8-1.2,0.9l-1.2,0.5
	c-0.7-0.5-1.4-1-2.2-1.6c-0.8-0.6-0.9-1.3-0.5-2.2c0.8-2,1.7-4,2.2-6.1l-0.6-0.6c-0.7-0.4-1.4-0.6-2.1,0.3c-0.9,1.3-1.9,2.4-3,3.6
	c-1.6,1.8-0.9,1.7-3.2,0.8c-0.4-0.2-0.8-0.4-1.2-0.5c-0.8-0.2-0.8-0.7-0.7-1.3c0.2-1.9,0.4-3.8,0.6-5.6c0.1-1.2-0.2-1.8-1.4-1.9
	l-0.7,0.1c-1.1,2-1.9,4.1-2.9,6.1c-0.4,0.9-0.8,1.1-1.7,0.8c-0.9-0.3-2,0.2-2.7-0.6c-0.6-0.7-0.4-1.8-0.6-2.7
	c-0.4-1.6-0.4-3.2-1-4.8c-0.7-0.2-1.4-0.2-2.1,0c-0.7,2-0.8,4.2-1.2,6.4c-0.3,1.8-0.6,1.5-1.9,1.6c-0.8,0.1-1.6,0.7-2.4,0.1
	c-0.7-0.5-0.8-1.5-1.2-2.3c-0.6-1.2-1.1-2.5-1.7-3.7c-0.7-1.3-1.1-1.4-2.4-0.5c-0.3,0.2-0.4,0.4-0.3,0.7c0.2,2,0.5,4.1,0.7,6.1
	c0.1,0.7,0,1.3-0.8,1.5c-0.3,0.1-0.6,0.2-1,0.4c-2,0.8-2,0.8-3.4-0.8c-1-1.2-2.1-2.4-3-3.6c-0.6-0.9-1.3-0.8-2.1-0.3l-0.6,0.6
	c0.5,2.1,1.4,4.1,2.2,6.1c0.3,0.9,0.4,1.6-0.5,2.2c-2.8,2-1.7,2.2-4.6,0.1c-1.1-0.8-2.3-1.7-3.5-2.4l-0.9-0.5
	c-1.6,0.9-1.6,1.5-0.6,2.9c0.9,1.2,1.8,2.4,2.6,3.6 M0.7,292.3c1.1,0.1,2-0.4,2.9-0.8c1.3-0.6,2.6-1.5,4.1-1.7l0.1-0.1
	c0.9,1.1,1.9,2.2,2.9,3.3c0.7,0.7,0.7,1.4,0.1,2.2c-0.6,0.7-1,1.5-1.6,2.1c-1.4,1.6-1.9,3.6-2.4,5.7c0.4,0.8,1.2,1.2,1.9,1.8
	c1.8-0.8,3.8-1.5,5.1-3.2c0.6-0.8,1.5-1.4,2.1-2.2c0.6-0.7,1.2-0.9,2.1-0.3c1.2,0.9,2.6,1.4,3.8,2.3l-0.1,0.8c0,0.4-0.1,0.7-0.2,1.1
	c-0.6,2.3-1.3,5-0.9,7.5c0.2,1.1,2.2,1.7,2.7,1.5c1.1-1.2,2.4-2.2,3.1-3.8c0.7-1.6,1.1-3.3,2.3-4.5c1.6,0.1,3,0.5,4.5,0.6
	c1,0.1,1.3,0.4,1.3,1.3c0.2,2.6,0.1,5.2,1.4,7.6c0.3,0.5,0.4,1.3,1.2,1.3c0.8-0.1,1.9,0.5,2.4-0.5c0.5-1.2,1.2-2.4,1.4-3.8
	c0.3-1.9,0.1-3.8,0.6-5.7c1.6-0.3,3.3-0.6,5-0.9l0.7,0c0.3,0.3,0.3,0.6,0.5,0.9c1.2,2.2,1.8,4.8,3.9,6.5c1.2,1,1.1,1.2,2.5,0.6
	c0.5-0.2,1.2-0.2,1.2-1c-0.1-1.7,0.2-3.5-0.3-5.2c-0.4-1.4-1.1-2.8-1-4.3l0.6-0.6c1.1-0.8,2.3-1.4,3.5-2.1c0.6-0.3,1.1-0.4,1.6,0.2
	c0.6,0.7,1.4,1.2,1.9,1.9c1.2,1.6,2.9,2.4,4.6,3.3c0.5,0.3,1.2,0.3,1.7-0.2c0.5-0.5,1.3-0.8,1-1.9c-0.5-2.1-1.4-3.9-2.7-5.6
	c-2-2.6-1.9-2.6,0.1-5c0.4-0.4,0.8-0.8,1.1-1.3c0.5-0.7,1.2-0.8,1.9-0.4c1.4,0.7,2.8,1.5,4.2,2c1.2,0.5,2.6,0.4,3.9,0.6
	c0.2,0,0.3,0,0.5-0.1c1-0.8,1.2-2.3,0.5-3.4c-1.4-2.1-3.5-3.4-5.5-4.8c-1.3-0.9-1.4-1.1-0.7-2.5c0.6-1.1,0.7-2.4,1.4-3.5l0.2-0.2
	c0.7-0.2,1.4-0.1,2.2,0c2.2,0.4,4.5,0.3,6.7-0.2c0.7-0.2,1.3-0.6,1.4-1.4c0.1-0.8,0.3-1.6-0.6-2.2c-1.5-0.9-3-1.9-4.8-2.3
	c-0.9-0.2-1.8-0.5-2.8-0.7c-0.5-0.1-1.1-0.3-1.1-1c0-1.7-0.2-3.4,0.1-5l1.6-0.7c2.6-0.4,5-1.2,7.1-2.9c0.9-0.7,0.8-2.9-0.2-3.2
	c-1.5-0.5-3-1-4.7-0.8c-1.3,0.2-2.6,0.2-4,0.4c-0.9,0.1-1.3-0.3-1.6-1.1c-0.3-1.1-0.7-2.2-1.2-3.2c-0.3-0.8-0.3-1.3,0.5-1.8
	c0.7-0.4,1.3-1,2.1-1.4c1.8-1,3-2.5,4.2-4.1c0.7-0.9-0.3-3-1.3-3c-1.6,0.1-3.3,0.1-4.8,0.9c-1.2,0.6-2.4,1.1-3.6,1.7
	c-0.7,0.4-1.2,0.3-1.7-0.4c-0.8-1.1-1.6-2.1-2.5-3c-0.5-0.4-0.4-0.9-0.1-1.3c0.2-0.4,0.5-0.7,0.7-1.1c1.5-2,2.8-4,3.4-6.5
	c0.3-1.1-0.5-1.5-1-2c-0.5-0.6-1.1-0.5-1.7-0.2c-1.6,0.8-3.2,1.5-4.3,3c-0.7,0.8-1.5,1.4-2.2,2.3c-0.3,0.4-0.7,0.7-1.2,0.4
	c-1.5-0.9-3.1-1.8-4.6-2.7c0.4-0.6,0.3-1.1,0.4-1.6c0.6-2.2,1.3-4.4,1.2-6.7c-0.1-1.8,0-1.8-1.8-2.4c-0.4-0.1-0.9-0.4-1.2-0.1
	c-0.8,1-1.9,1.8-2.5,3c-1.1,1.8-1.8,3.8-2.7,5.6l-0.1-0.2c-1.3-0.2-2.6-0.4-4-0.6c-1.5-0.2-1.7-0.5-1.9-2c-0.1-0.9-0.2-1.9-0.2-2.8
	c0-1.8-0.9-3.2-1.4-4.8c-0.2-0.7-0.8-0.9-1.6-0.9c-0.8,0.1-1.5-0.1-1.9,0.8c-1,2.1-1.5,4.3-1.5,6.6c0,0.9-0.1,1.8-0.4,2.7
	c-1.8,0.2-3.7,0.8-5.6,0.8l-0.4-0.6c-0.6-0.9-1.1-2-1.4-3.1c-0.5-1.6-1.8-2.7-2.8-4c-0.6-0.7-1.1-0.8-2.1-0.4
	c-0.9,0.4-1.3,0.9-1.5,1.8c-0.5,2.6,0.5,4.9,1.1,7.3c0.1,0.5,0.3,0.9,0.2,1.4l-1.7,1.1c-1.1,0.6-2.1,1.4-3.3,1.8
	c-1.2-1-2.3-2.3-3.4-3.4c-1.1-1.1-2.6-1.6-3.9-2.4c-0.6-0.3-1-0.2-1.6,0.2c-0.4,0.4-0.8,0.8-1.2,1.1c0.4,2.6,1.4,4.8,3,6.7
	c0.4,0.5,0.8,1.1,1.2,1.7c0.4,0.5,0.3,1-0.1,1.4c-1.1,1.2-2.1,2.5-3.1,3.6l-0.1,0c-0.9,0-1.6-0.6-2.4-1c-1.3-0.5-2.5-1.4-4-1.5
	c-0.6,0-0.8-0.3-1-0.8 M63.6,360c0.8-1.7,2.1-4.4,2.5-6.2l0.1-0.1c-0.3-0.3-0.6-0.6-1-0.8c-0.4-0.2-0.7-0.5-1.1-0.8
	c-1.4-0.9-1.5-1-2.7,0.1c-1.8,1.7-3.6,3.3-5.4,5.1c-0.6,0.6-1.2,0.6-1.9,0.2c-1.4-0.7-2.7-1.5-4.2-2.1c-0.7-0.3-1-0.8-0.9-1.7
	c0.2-1.5,0.4-3,0.6-4.6c0.2-1.5,0.2-3.1,0.7-4.5l-0.2,0.1c-0.3-0.1-0.5-0.3-0.8-0.4c-3.4-1.3-3.1-1.4-4.8,1.7
	c-1,1.8-2.1,3.7-3.1,5.5c-0.3,0.5-0.7,0.7-1.2,0.6c-1.5-0.5-3.1-0.6-4.7-0.8c-1-0.1-1.4-0.6-1.6-1.5c-0.4-2.4-0.9-4.8-1.4-7.2
	c-0.3-1.5-0.5-1.7-2-1.7c-3,0.1-2.6-0.6-3.2,2.6c-0.4,2.1-0.9,4.2-1.3,6.4c-0.1,0.8-0.5,1.3-1.2,1.3c-1.9,0-3.8,0.8-5.8,0.7
	l-0.2-0.2c-1.5-2.4-2.7-4.9-4.2-7.3l-0.8-1c-1.2,0-2.2,0.5-3.2,0.8c-0.7,0.2-0.8,0.8-0.7,1.4c0.3,2.5,0.7,5,0.9,7.4
	c0.1,1,0,1.7-1.2,2.2c-1.7,0.6-3.1,1.7-4.9,2.4c-1.8-1.6-3-2.3-4.4-4.7 M0.8,258.1c1,0.1,1.6-0.2,1.8-1.3c0.3-1.2,1-2.2,1.2-3.4
	l0.2-0.7c-0.5-0.5-1-0.8-1.5-1.2c-0.7-0.5-2-1.2-2.5-2 M263,71.7c0.1-1.4,1.5-3.4,2.7-3.1c6.7-0.3,5.3,4.4,5.3,4.4
	c0-0.6,0-1.2,0-1.8c0-1.5,0.6-2.1,2-2.1c0.8,0,1.6-0.1,2.4-0.3c2.4-0.6,3.1,1.9,3.5,3.2c-0.2-2.9,0.1-3.6,0.1-3.6
	c2.1-1.3,3.2-2,5.8-2l1.9,2.6c-0.3-0.7-0.5-2.9-0.9-3.5c1-1.8,2.5-2,4.1-3.2l3.3,1.6c-1.4-0.8-2.6-2.4-2.2-3.1
	c0.7-1.5,1.8-2.9,3-4.1c1.1-1,1.8-0.3,4,0.9c0,0-2.8-2.5-2.7-3c0.2-1.3,0.8-2.4,1.3-3.6c0.6-1.4,1.3-1.7,2.9-1.3
	c0.5,0.1,1,0.3,1.4,0.4c0,0-2.9-0.8-2.6-1.9c-0.5-2.3-0.5-3.8,0.7-6.1l3.1-0.1c-0.7,0.1-1.4,0-2,0.1c-0.8,0.1-1.3-0.2-1.5-0.8
	c-0.7-2.1-1.3-4.2-0.4-6.4l3.8-0.5c-1-0.6-2-0.2-2.9,0.2c-1.1,0.4-1.7-0.1-2.2-0.9c-0.6-1.1-1.1-2.2-1.4-3.4
	c-0.6-1.9-0.4-2.2,1.4-3.1c0.6-0.3,0.9-0.7,1.1-1.3l-2.6,2.2c-2.4-1.2-3.7-3.2-4.6-5.6l2.2-2c-1.3-0.2-0.9,0.5-1.6,1.3
	c-0.5,0.5-0.8,0.7-1.5,0.4c-2-1-3.9-2.1-4.9-4.2l1.3-3.6c0.4,1.1-0.4,1.9-0.8,2.8c-0.3,0.6-0.8,0.9-1.4,0.8c-2.2-0.4-4.2-1-5.8-2.6
	l0.8-3c-0.1,0.7-0.2,1.3-0.4,2c-0.2,0.6-0.5,1-1.3,1.2c-1.4,0.3-2.8,0-4.2-0.3c-2-0.4-2-0.6-2-2.7c0-0.4,0-0.7,0-1.1v2.9
	c-2,1.2-4.1,1.5-6.4,1.1c-0.9-0.1-1.1-0.7-1.3-1.4c-0.1-0.5-0.2-1.1-0.3-1.7l0.7,2.9c-1.2,1.6-3.1,2-4.8,2.7c-1.1,0.5-1.7,0-2.4-1
	c-0.5-0.8-1.1-0.7-0.8-1.7l1,3.4c-1.3,2.3-2.9,3.2-5.4,3.9L249,20c1.6-0.2,1.2,1.5,2.1,2.3c0.2,0.2,0,0.9-0.2,1.3
	c-1.1,1.8-1.2,2.8-3.3,3.7l-3.6-1.4c0.2,0.9,0.8,1.4,1.6,1.7c1.3,0.5,1.5,0.9,1.1,2.3c-0.6,1.9-0.5,2.5-2.3,3.8l-3.5,0.4
	c1.2-0.6,1.5,0.4,2.6,0.7c1,0.3,1,1.4,0.9,2.2c-0.1,1-0.3,2-0.5,3c-0.3,1.9-0.6,2.2-2.4,2.1c-0.5,0-1.1,0.3-1.6-0.1l3.5,0.9
	c1.1,2.1,1.1,3.5,0.6,5.8c-0.1,0.5-0.3,0.7-0.7,0.8c-1.1,0.3-0.7-0.1-2.1,0.3l3.6,0.4c1.9,1.7,1.8,2.2,1.9,4.7l-2.2,2.5
	c0.7-1,2.9-1.2,3.2-0.9c1.6,1.5,2.8,1.7,3.2,4l-1.7,3.2c0.9-0.6,0.4-0.2,1.2-1.1c0.9-1,1.6-1.1,2.6-0.3c1,0.8,1.9,1.6,2.9,2.4
	c1,0.9,0.5,3.6-0.2,3.8l2.7-2.2c2.4,0.5,2.8,0.5,4.3,1.6L263,71.7z M247,188.8c0.2,0,0.3,0,0.5,0c1.7,0,1.9-0.3,1.9-1.9
	c0.1-2.1-0.6-4.2-0.5-6.4l0.4-0.2c0.3-0.3,0.8-0.4,1.2-0.6c2.1-0.8,2-0.8,3.4,1c1.2,1.6,2.2,3.3,3.8,4.4l0.8-0.3
	c1.3-0.5,1.3-0.7,1-2.1c-0.3-1.3-0.7-2.5-1.2-3.7c-1.1-3-1.1-2.5,1.2-4.1c0,0,0.1-0.1,0.1-0.1c0.8-0.7,1.5-0.6,2.2,0.1
	c1.3,1.3,2.7,2.4,4.2,3.5c1,0.7,1.6,0.5,2.4-0.3c0.8-0.8,0.1-1.6-0.2-2.1c-0.8-1.6-1.9-3-3-4.5c-0.4-0.6-0.5-1.1,0.1-1.7
	c0.6-0.5,0.9-1.2,1.5-1.6l0.7-0.5c1.7,0.4,3,1.6,4.5,2.2c0.4,0.2,0.9,0.3,1.3,0.5c0.8,0.4,1.4,0.4,2.1-0.4c0.6-0.8,0.4-1.3-0.1-2.1
	c-1.2-1.6-2.7-2.7-4.1-4c-0.6-0.6-0.7-1-0.3-1.6c0.5-0.8,0.8-1.8,1.4-2.5l0.4-0.1c2,0.4,4.1,0.9,6.1,1.3l1.9-0.7
	c0.6-1.4,0.5-1.5-0.7-2.4c-1.3-0.9-2.7-1.7-4.2-2.4l-1.4-1c0-0.8,0.4-1.6,0.5-2.4c0.3-1.6,0.3-1.6,1.9-1.6c1.8,0,3.6,0.1,5.4-0.2
	c0.9-0.2,1.5-0.5,1.3-1.6c0-0.3,0-0.6,0-0.8l-0.1-0.1c-1.5-1.1-3.3-1.4-5-1.8c-2.5-0.6-2.5-0.6-2.5-3.1c0-1.6,0.1-1.8,1.7-2.1
	c1.5-0.3,3-0.8,4.4-1.2l1.6-0.9c0-2.4-0.1-2.5-2.5-2.7c-1-0.1-2-0.1-3-0.1c-2.7,0-2.7,0-3.4-2.6c-0.3-1.1-0.1-1.6,1-2.1
	c1.7-0.8,3.3-1.7,4.8-2.8c0.7-0.5,0.8-1,0.5-1.8l-0.6-1c-1.8-0.2-3.5,0.3-5.3,0.7c-2.5,0.6-2.5,0.6-3.7-1.6
	c-0.9-1.7-0.8-1.4,0.4-2.5c1.3-1.3,2.9-2.4,4-4c0.5-0.7,0.3-1.2-0.1-1.8c-0.4-0.8-1-0.9-1.7-0.6c-1.6,0.7-3.1,1.4-4.7,2.2
	c-0.6,0.3-1.1,0.6-1.7,0.7l-0.8-0.7c-0.4-0.3-0.6-0.8-1-1.2c-0.8-0.7-0.8-1.3-0.1-2.2c1.1-1.5,2.2-3,3-4.7c0.3-0.7,0.6-1.5-0.5-1.9
	l-0.8-0.6c-1.7,0.6-3,1.9-4.3,3c-2.2,1.9-2.2,1.9-4.6,0.1c0,0-0.1,0-0.1,0c-0.7-0.4-0.7-1.1-0.5-1.8c0.6-1.6,2.3-6.5,2.3-6.5
	s-2.3-1.2-2.4-1.2c-0.6,0.3-1,1-1.4,1.5c-1.1,1.2-1.8,2.7-2.9,3.9l-0.8,0.8c-0.8-0.1-1.5-0.3-2.2-0.6c-1.6-0.7-1.5-0.5-1.4-2.5
	c0.1-1.6,0.4-3.3,0.5-4.9c0-1-0.5-1.3-1.3-1.6c-0.8-0.2-1.3,0-1.7,0.7c-0.9,1.6-1.5,3.2-2.1,4.9c-0.6,1.5-0.7,1.6-2.3,1.3
	c-0.1,0-0.1-0.1-0.2-0.1c-2.2-0.4-2.2-0.4-2.5-2.5c-0.2-1.5-0.4-2.9-0.7-4.3c-0.2-0.9-0.6-1.4-1.7-1.4c-1,0-1.2,0.5-1.5,1.3
	c-0.5,1.8-0.7,3.6-0.9,5.4c-0.1,1-0.6,1.5-1.6,1.4c-0.2,0-0.4,0-0.6,0c-2.2,0.3-2.3,0.3-3-1.8c-0.6-1.7-1.2-3.3-2.2-4.8l-0.3-0.4
	c-0.4,0-0.8,0-1.2,0.1c-0.7,0.3-1.1,0.7-1.1,1.6c0,1.9,0.2,3.9,0.5,5.8c0.1,0.4,0.1,1-0.5,1.2c-1.1,0.5-2.1,1.1-3.4,1.2l-0.9-1.2
	c-1.1-1.4-2.1-3-3.4-4.3c-0.2-0.2-0.5-0.5-0.8-0.6c-1.8,1-2.1,0.5-1.5,3.1c0.5,1.9,1.5,3.6,1.9,5.6c-0.7,0.7-1.7,1.2-2.6,1.8
	c-0.7,0.5-1.3,0.1-1.8-0.4c-1.4-1.2-2.7-2.5-4.3-3.5c-0.6-0.3-1.1-0.8-1.7-0.1c-0.6,0.6-1.3,1-0.6,2.2c0.8,1.5,1.7,2.9,2.7,4.3
	c0.4,0.5,0.6,1,0.9,1.5c-0.4,1-1.3,1.4-1.8,2.2c-0.5,0.9-1.3,0.8-2,0.4c-1.6-0.9-3.2-1.7-4.9-2.4c-0.8-0.3-1.4-0.4-1.9,0.4
	c-0.5,0.7-0.8,1.4,0,2.2c1.3,1.4,2.7,2.7,4.1,3.9c0.9,0.7,0.9,1.4,0.2,2.2c-0.5,0.6-0.6,1.4-1.2,1.9l-0.3,0.2
	c-1.2,0-2.3-0.4-3.5-0.7c-1-0.3-2.1-0.4-3.1-0.5c-1-0.1-1.4,0.4-1.7,1.2c-0.3,0.7,0,1.1,0.6,1.6c1.4,1.2,3.2,1.8,4.7,2.9
	c0.4,0.2,0.7,0.5,1.1,0.7c0.1,1-0.2,1.9-0.5,2.9c-0.2,0.8-0.6,1.1-1.4,1.1c-2-0.1-3.9,0-5.9,0.3c-1.2,0.2-1.1,0.9-1.3,1.6
	c-0.2,0.7,0.3,1,0.9,1.3c1.7,0.8,3.5,1.1,5.3,1.6c1,0.3,1.5,0.7,1.5,1.8c-0.1,2.7,0,2.6-2.7,3.4c-1.4,0.4-2.8,0.7-4.1,1.3
	c-0.6,0.3-1.1,0.6-1,1.3c0.1,0.8,0.3,1.6,1.3,1.7c1.6,0.2,3.2,0.2,4.8,0.2c2.2,0,2.2,0,2.8,2.3l0.2,1.7c-1.2,1.3-3,1.5-4.3,2.6
	c-0.3,0.2-0.7,0.5-1,0.7c-1.4,0.9-1.4,1.2-0.6,2.7c0.1,0.2,0.2,0.3,0.2,0.5l0.1,0c2.2,0,4.4-0.6,6.5-1.2c0.8-0.2,1.4,0,1.8,0.7
	c0.4,0.9,0.9,1.8,1.3,2.7c-1.8,2-4.2,3.5-5.6,5.9c0.4,0.7,0.8,1.3,1.4,1.8c2.6-0.6,4.8-2.2,7.3-3.2l0.1,0.2c0.9,0.9,1.8,1.8,2.6,2.8
	c-1.2,1.8-2.5,3.7-3.6,5.6c-0.4,0.6-0.7,1.3,0.2,2.1c0.8,0.7,1.3,0.7,2.2,0.1c1.5-1,2.7-2.2,4.1-3.3c1.3-1.1,1-1,2.5,0
	c0.6,0.4,1.2,0.8,1.8,1.2l0.1,0.2c-0.2,1.5-1,2.7-1.4,4.1c-0.4,1.2-0.8,2.3-0.7,3.6l2.1,1.1c1.8-1.4,3.1-4.2,4.9-6.1
	c1,0.1,1.8,0.5,2.8,0.8c0.9,0.3,1.2,0.7,1,1.7c-0.3,1.8-0.5,3.6-0.4,5.4c0.1,1.5,0.3,1.7,1.8,1.8c0.2,0,0.3,0,0.5,0l1-1.3
	c0.7-1.5,1.3-3,1.9-4.6c0.2-0.6,0.4-1.4,1.2-1.3c0.8,0.1,1.6,0.2,2.4,0.3c0.8,0.1,1.1,0.5,1.2,1.3c0.2,2,0.3,4,0.9,5.9
	c0.1,0.3,0,0.7,0.6,0.9c1.3,0.4,2.2,0,2.5-1.2c0.4-1.4,0.6-2.8,0.7-4.2c0.1-0.8,0-1.7,0.4-2.2c0.5-0.7,1.5-0.5,2.4-0.5
	c0.1,0,0.3,0,0.5-0.1c0.8-0.4,1.3,0,1.6,0.7c0.8,2.3,1.8,4.6,3,6.7 M356.4,0c0.6,0.8,1.2,1.9,1.3,3c-1.6,1.6-3.3,3.1-4.8,4.6
	c-1.1,0.1-1.9-0.6-2.8-1c-2.2-0.8-4.1-2.1-6.4-2.7l-0.1-0.1c-0.8,0.8-1.4,1.8-2.1,2.7c-0.5,0.7-0.1,1.1,0.3,1.6
	c1.8,1.9,3.5,3.8,5.3,5.8c0.2,0.3,0.5,0.6,0.8,0.9c-0.9,1.7-1.8,3.5-2.8,5.3l-0.5,0.7c-3,0-6-0.6-9-0.9c-0.9-0.1-1.2,0.3-1.4,0.9
	c-0.4,1-0.7,1.9-0.9,3l0.9,0.7c2,1.3,4.1,2.5,6.2,3.6c0.6,0.3,1.2,0.7,1.7,1.1l-0.2,1.2c-0.3,1.5-0.6,3-0.7,4.4c0,1-0.6,1.2-1.3,1.3
	c-2.3,0.5-4.6,0.9-6.8,1.3c-2.4,0.5-2.1,0-2.2,2.6c0,0,0,0.1,0,0.1c0,2.2,0,2.1,2.2,2.5c2.3,0.4,4.7,0.9,7,1.4
	c0.7,0.2,1,0.4,1.1,1.2c0.2,1.6,0.4,3.2,0.8,4.7c0.2,0.8,0,1.2-0.7,1.6c-2.3,1.2-4.5,2.5-6.7,3.8c-0.4,0.2-0.7,0.5-1.1,0.7
	c-0.1,0.7,0.1,1.4,0.3,2.1c1,2.5,0.3,2.2,3,1.9c2.6-0.2,5.2-0.7,7.8-0.8l0.1,0.1c1,2,2.2,3.9,3,6l-0.4,0.6c-1.7,1.9-3.5,3.8-5.2,5.7
	c-1.1,1.2-1.1,1.4-0.1,2.8c0.3,0.5,1.6,1.9,1.6,1.9c1.7-0.4,3.1-1.3,4.7-1.9c1.6-0.7,3.1-1.6,4.8-2c0,0,2.4,2.8,3.7,3.7
	c0.9,0.7,0.9,1.4,0.5,2.3c-1.1,2.1-1.9,4.3-3,6.4c-0.8,1.5-0.7,1.8,0.7,2.9c0.3,0.2,0.6,0.4,0.8,0.6c1.1,0.8,1.4,0.8,2.4-0.1
	c0.3-0.2,1.5-1.5,1.8-1.6 M0.7,271.2c0.2-0.2,0.2-0.5,0.2-0.7c-0.2-1.8-0.1-3.5,0-5.3 M120.3,301.1c0.2,2.1,1,3.8,2.2,5l1.2,1.2
	c1-0.8,1.5-2.3,1.9-3.3c-0.2-0.4-1.1-1.7-1.5-3L120.3,301.1z M141.3,301.3c-1-0.4-2-0.2-3-0.2c-0.4,0-0.5,0.2-0.7,0.5
	c-0.2,0.3-0.3,0.6-0.5,0.9c-1,1.8-1.1,2.1,0.3,3.7l0.7,0.7c0.5,0,0.9-0.4,1.2-0.7c1.3-1.3,2-3,2.3-4.9L141.3,301.3z M124.1,297
	c0.5-0.7,1.3-2.4,1.6-2.8c-0.3-0.6-0.4-1.5-1-2l-1.1-1.3c-1.8,0.8-3.6,4-3.3,5.9L124.1,297z M141.6,296.8c-0.3-1.8-0.9-3.5-2.2-4.7
	l-1.2-0.9c-1,0.6-1.4,1.6-1.8,2.6c-0.1,0.3-0.1,0.6,0.1,0.9c0.3,0.3,0.6,0.7,0.7,1.1c0.3,1.2,1.1,1.2,2.1,1.2c0.7,0,1.4,0.1,2-0.2
	L141.6,296.8z M144.1,276.1c-0.3,0.5-0.6,1-0.8,1.6c-0.2,0.5-0.6,0.6-1.1,0.6c-2.1,0-4.7,0.1-4.2-5.4l-0.9,3
	c-1.4,0.7-2.8,0.5-4.2,0.2c-1.5-0.3-1.9-0.9-1.9-2.5c0-0.5,0-1,0.1-1.4l-0.6,3c-1.9,1.2-2.5,1.5-4.8,0.6l-1.5-2.7
	c0.1,0.6,0.2,1.3,0.4,1.8c0.5,0.9,0.1,1.5-0.6,1.9c-1.3,0.9-3.3,2.8-6.1-1.5c-0.6-0.1,0.9,3.4,0.7,3.8c-0.9,1.5-1.3,1.4-2.5,2.4
	c-0.4,0.1-1.7-0.6-3.9-1.7l1.7,3.1c-1.6,5.5-4.5,2.7-6,2.3l2.3,1.9c0.5,1.7-0.3,3.1-1.1,4.6c-0.8,1.4-3.5,0.2-4,0.3l3,1.6
	c0.5,2.2,0.7,3.6-1.2,4.7l-2.7,0.8c0.7,0,1.4-0.1,2.2-0.1c1.2,0.1,1.4,1.1,1.6,1.9c0.4,1.4,0.9,1.6-0.1,2.9l-3.2,2
	c0.8,0.3,2.3,0.3,3,0c1.1-0.6,1.1,0.8,1.6,1.6c0.9,1.4,0.9,3-1.7,5c2.4-1.4,2.7-0.9,3.4-0.9c0.8,0.1,1.9,1.3,2.5,3.1
	c0.1,0.2,0.2,2.5-1.8,3.4l2.3-2c1.5,0.3,2.7,1.1,3.8,2.2c1.1,1-0.6,3.3-0.3,4.2l1.4-2.5c1.8-0.2,3.3,0.4,4.7,1.3
	c0.7,0.5-0.1,2.9,0.3,3.8l0.8-2.6c2.2-1.2,4.2-0.5,6.1,0.6v2.9c0-0.4,0-0.9,0-1.3c0-1.7,0-1.9,1.6-2.4c0.9-0.3,1.8-0.4,2.8-0.4
	c1.3,0,2.9,2.5,2.6,3.3l-0.6-2.7c1.4-2,3.3-2.6,5.6-2.4l1.5,2.5c-2.4-4.1,1.2-5.9,3.5-6.4l2,2.1c-0.6-1.3-0.6-1.3-1.4-1.9
	c-0.5-0.4-0.6-0.4-0.4-1c0.2-1.3,1.2-2.1,1.9-3c1.1-1.2,3.5-0.6,4.3,0.5l-2.4-1.6c-0.5-1.8,1-5.5,2.1-5c0.5,0.3,2.7,0.1,3.3-0.2
	l-3.1-1.3c-0.8-1.6-0.5-2.5,0-4.1c0.3-1.1,1-1.6,2.2-1.5c0.5,0.1,1.1,0,1.7,0l-3,0.1c-1.4-1.9-1.6-4-0.7-6.2l3-0.7
	c-0.7,0-1.4,0.2-2,0.4c-0.9,0.2-1.5,0-2-0.7c-1-1.4-1.8-2.9-1.3-4.7l2.6-1.5c-1.1-0.1-1,0.2-1.9,1c-0.5,0.5-1.1,0.4-1.7,0
	c-1.2-0.9-2.1-2-2.7-3.4c-0.2-0.4-0.3-1.1-0.1-1.3c1-0.8,1.8-0.9,2.2-2.2l-3,1.8c-2.3-0.4-2.9-0.8-3.8-2.9L144.1,276.1z M360,131.8
	c-1.4-1.6-2.8-4.5-4.2-5.9l-0.1,0.1c-0.7-0.1-1.2,0.3-1.7,0.6c-1.2,0.7-2.6,1-3.6,1.9l0,0.1c0.4,2.1,1.2,4.2,1.8,6.2
	c0.3,1.1,0.3,1.8-0.7,2.4c-0.8,0.4-1.4,1-2.1,1.7c-0.6,0.6-1.1,0.6-1.8,0.1c-1.6-1.1-3.3-2-4.9-3c-0.9-0.6-1.5-0.5-2.2,0.4
	c-1,1.2-1.9,2.4-2.9,3.7c0,0.5,0.4,0.8,0.7,1.1c1.3,1.4,2.6,2.7,3.8,4.1c0.6,0.7,1,1.3,0.3,2.3c-0.6,0.8-0.9,1.7-1.2,2.6
	c-0.2,0.9-0.8,0.9-1.5,0.8c-2-0.2-4-0.4-6-0.6c-0.8-0.1-1.3,0.2-1.5,1.1c-0.2,1.3-0.6,2.6-0.9,4c-0.2,0.7,0,1.1,0.7,1.3
	c1.9,0.7,3.7,1.6,5.7,2.2c1,0.3,1.3,0.8,1.2,1.8c-0.1,0.7,0,1.4,0,2.2c0,1.8,0,1.8-1.7,2.4c-1.6,0.6-3.3,1.3-4.9,1.9
	c-0.4,0.1-0.8,0.3-1.1,0.6l0,0.2c0.4,1.9,0.8,3.8,1.4,5.6l0.1-0.1c2.3,0,4.6-0.2,7-0.5c0.7-0.1,1.2,0.1,1.4,0.7
	c0.4,0.9,0.8,1.7,1.2,2.5c0.7,1.4,0.6,1.6-0.4,2.6c-1.2,1.3-2.4,2.6-3.6,3.8c-0.8,0.9-0.9,1.4-0.1,2.3c0.8,0.9,1.5,2,2.4,2.9
	l0.7,0.6c1.8-0.7,3.4-1.9,5.2-2.9c0.5-0.3,1-0.6,1.4-0.8c0.4-0.2,0.8-0.2,1.1,0.1c1,1.1,2.4,1.8,3.4,2.9c-0.2,1.4-0.7,2.6-1.1,3.8
	c-0.4,1.3-0.9,2.5-1.1,4c1.4,1.1,3.1,1.6,4.7,2.4c0.5,0.3,0.9,0.1,1.3-0.4c1.2-1.4,2.6-3.4,3.6-5.2 M0,286.3c0.7-0.4,3.3-2,3.9-2.7
	l0.2-0.1c-0.4-1.4-1-2.7-1.4-4.1c-0.3-1-0.8-1.4-1.8-1.3 M133,288.4c-1.6-0.4-3.4-0.6-5,0.3l-0.2,0.3c0.3,1.2,0.8,2.3,1.6,3.1
	c0.9,0,1.6-0.2,2.4,0c0.6,0.2,1-0.1,1.2-0.5c0.4-0.9,1.2-1.6,1.2-2.6L133,288.4z M138.9,0c1.2,1.3,0.2,1.5-0.5,2.4
	c-1.4,2.1-1.5,2-3.8,1.2c-1.5-0.5-2.9-1.1-4.3-1.7c-0.6-0.2-1.2-0.3-1.6,0.5c-0.3,0.7-0.6,1.3,0.2,1.9c1.5,1.1,2.9,2.4,4.4,3.5
	c0.9,0.7,0.9,1.3,0.6,2.1c-0.4,0.9-0.6,1.9-1.3,2.6c-2.4-0.2-4.7-0.5-7-0.7c-0.8-0.1-1,0.5-1.2,1.1c-0.1,0.3,0,0.6-0.2,0.9
	c0.9,0.9,2.1,1.2,3.2,1.7c1.1,0.5,2.3,1.1,3.4,1.6l0.5,0.4c0.1,1-0.3,2-0.3,3c0,1-1,1-1.7,1.2c-1.7,0.3-3.4,0.6-5.2,0.9
	c-0.9,0.1-1.4,0.5-1.4,1.6c0,0.8,0.4,1.1,1.1,1.2c2,0.3,4,0.6,6,1c0.6,0.1,1.1,0.3,1.1,1c0,1.1,0.4,2.1,0.3,3.1l-0.1,0.1
	c-2.2,1.5-4.8,2.1-7,3.5l0.6,2c0.3,0.2,0.7,0.1,1.1,0.1c1.5-0.1,3-0.4,4.6-0.5c2.2-0.2,2.3-0.2,3.1,1.9c0.7,1.8,0.9,1.6-0.7,2.9
	c-1.3,1.1-2.6,2.2-4,3.2c-0.7,0.5-0.9,1.2-0.2,1.8l0.6,0.7c0.5-0.2,1.1-0.2,1.7-0.4c1.9-0.6,3.7-1.6,5.7-2l0.8,0.7
	c2.2,2.9,2.1,1.8,0.1,4.8c-0.7,1-1.4,2-2.2,3c-0.5,0.7-0.7,1.3,0,2.1c0.8,0.9,1.5,0.3,2-0.1c1.5-1.1,3-2.1,4.5-3.2
	c0.7-0.5,1.2-0.6,1.8,0c0.4,0.4,0.9,0.8,1.4,1.1c0.9,0.5,0.8,1.2,0.5,2.1c-0.6,1.5-1.1,3.1-1.8,4.7c-0.2,0.5-0.5,1.1-0.4,1.7l1.8,1
	c1.7-1.4,2.9-3.3,4.3-5c0.8-1,1.4-1,2.5-0.5c2.2,1.1,2.2,1,2,3.4c-0.1,1.5-0.2,3-0.4,4.4c-0.1,1.1,0.1,1.4,1.2,1.6
	c0.3,0,0.6,0,0.8,0V66c1.2-2.6,2.4-5.1,3.5-7.7l0.2,0.4c0.8,0,1.7,0.2,2.5,0.2c1.1,0,1.4,0.6,1.6,1.5c0.4,2.2,0.6,4.4,1.2,6.6
	c2,0.4,2.2,0.3,2.5-1.7c0.3-1.6,0.6-3.3,0.8-4.9c0.1-0.8,0.4-1.4,1.4-1.5c0.9-0.1,1.9-0.6,2.8-0.6l3.6,7.3c0.2,0,0.4,0,0.6,0
	c1.3-0.1,1.6-0.4,1.4-1.7c-0.2-1.9-0.3-3.8-0.6-5.6c-0.1-0.4-0.2-0.9,0.3-1.2c1.1-0.5,2.1-1.1,3.4-1.3l0-0.2
	c1.8,1.8,3.2,4.2,5.3,6.1l0.7-0.3c1.3-0.6,1.2-0.7,0.7-2c-0.7-1.8-1.5-3.6-2-5.5l-0.2-0.7c0.7-0.9,1.8-1.4,2.6-2.2
	c0.6-0.5,1-0.1,1.4,0.2c1.6,1.1,3.2,2.2,4.8,3.4c0.6,0.5,1.1,0.4,1.7-0.1c0.7-0.6,0.6-1.3,0.2-1.8c-1.1-1.4-2.1-3-3.2-4.5
	c-0.8-1-0.8-1.4,0-2.4c0.6-0.6,0.9-1.5,1.7-1.9l0.1,0c1.8,0.3,3.3,1.2,5,1.7c0.8,0.2,1.5,0.5,2.4,0.7l1-1.7
	c-0.1-0.3-0.3-0.5-0.6-0.7c-1.4-1.2-2.8-2.3-4.2-3.5c-1.2-1-1.2-1.1-0.6-2.5c1.2-2.9,0.6-2.3,3.4-2.2c0.2,0,0.4,0.1,0.5,0.1
	c1.7,0,3.3,0.5,5,0.3l0.5-2.1c-1.9-1.1-3.9-1.9-5.9-2.8c-0.9-0.4-1.1-0.9-1.1-1.7c0.1-0.7,0.3-1.4,0.3-2.2c0-0.6,0.5-0.9,1.1-1
	c2-0.3,4-0.6,6-1c0.7-0.1,1.1-0.4,1.1-1.2c0.1-1.1-0.4-1.4-1.4-1.6c-1.9-0.3-3.8-0.6-5.6-1c-0.6-0.1-1.2-0.3-1.2-1
	c0-1-0.4-2.1-0.3-3.1l0.2-0.2c1.2-0.8,2.5-1.2,3.7-1.8c1.1-0.5,2.3-0.8,3.1-1.7c-0.4-2.2-0.4-2.2-2.4-1.9c-1.3,0.2-2.6,0.3-3.8,0.3
	c-0.7,0-1.7,0.1-2.1,0.1c-0.7-0.5-0.8-1.5-1.2-2.3c-0.3-0.7-0.4-1.5,0.5-2.3c1.7-1.4,3.8-3,5.2-4.6l-1.1-1.8
	c-1.6,0.2-3.3,1.4-4.8,1.9c-1,0.3-1.8,0.9-2.9,0.9l-0.5-0.5c-0.4-0.4-0.8-0.8-1.1-1.3c-0.5-1-1.3-1.3-0.2-2.4 M326.4,104.3
	c-9.6-4,0.2-6.8,0.2-6.8c-1.3-0.2-3.5,1.5-5.2-0.3c-1.7-1.9,1.3-4.2,1-5.1c0-0.1-2.2,3.1-3,3.1s-2.5,1.3-3.4-5.7
	c-0.6,11-6.5,2.3-6.5,2.3c1.1,1.6,2.5,3.8,1.2,5.3c-1.6,1.8-4.6,0.2-5.2,0.4l3.8,1.2c0.3,1.2,0.3,2.4,0.1,3.6
	c-0.1,0.5-4.1,1.4-3.6,1.9c4.2-1.1,5.6,0.9,5.9,2c0,0.1-2.3,3.2-2.1,3.3c5.4-6,5.8-0.2,6.7,2.3c0.3,0.2,0.4-4.3,0.6-4.5
	c3.2-1.2,4.9,2.9,5.8,2.3c-3.4-4.5-1.2-5.1-0.4-6.1c0.2-0.3,0.5-0.5,1-0.3L326.4,104.3z M72.3,192.6c0.7-0.3,2-0.4,2.4,0
	c0.6,0.6,1.3,1.3,1.9,1.9c0.3,0.3,0.1,1.5-0.2,2.1l0.8-1.2c1.7,0.1,3,0.4,4.4,1.3l0.2,1.3c0-0.8,0-1.7,1-1.9
	c1.2-0.3,2.4-0.8,3.7-0.7l0.9,1.3c-0.3-0.5-0.6-1.8-0.3-2.1c0.6-0.7,1.3-1.3,1.9-1.9c0.4-0.4,1.6-0.4,2.3-0.1l-1.2-0.7
	c-0.1-1,0.3-1.9,0.5-2.9c0.4-1.5,0.7-2,2.2-2.1l-1.3,0.1c-0.8-1.5-1.2-2.5-1.3-4.1l1.1-1.8c-0.5,0.6-1.7,1.2-2,0.9
	c-0.9-0.9-2.7-3.2-1.9-4.4l-1.2,1.2c-4.9-0.5-3.5-2.2-4.2-2.9c-0.5-0.2,1.1,2.2-2.3,2.5c-3.4,0.3-3.4-0.8-3.4-0.8
	c0.4,0.8,0.3,1,0.6,1.8c-0.9,1.3-1.4,1.7-2.7,2.7c-0.8-0.2-1.2-0.4-1.9-0.7l1.3,1.2c-0.1,1.7-0.4,4.8-2.8,4.6
	c2.4,0.1,2.8,3.1,2.8,4.8L72.3,192.6z M318.6,245.9c-2.1,0.6-4.1,1.4-6.1,2.2c-0.7,0.3-1.4,0.3-1.9-0.6c-1.1-1.7-2.3-3.3-3.7-4.8
	c-0.6-0.7-0.5-1.2-0.1-1.8c1.1-1.6,2.2-3.2,3.4-4.7c0.6-0.8,0.6-1.3-0.1-1.9c-0.7-0.6-1.3-1.3-1.9-1.9c-0.7-0.2-1,0.2-1.4,0.4
	c-1.6,1.1-3.2,2.2-4.8,3.4c-0.6,0.4-1,0.5-1.6,0c-1.6-1.4-3.3-2.7-5.1-3.9c-0.7-0.5-0.7-0.9-0.4-1.7c0.8-1.8,1.4-3.6,1.9-5.5
	l0.3-0.8c-0.5-0.9-1.6-1-2.3-1.6c-0.8-0.6-1.4-0.5-2,0.2c-1.2,1.5-2.4,2.9-3.6,4.3c-0.6,0.7-1.3,0.8-2,0.5c-1.6-0.8-3.2-1.4-4.8-2
	c-1.8-0.7-1.7-0.7-1.6-2.6c0-0.6,0-1.1,0.1-1.7c0.3-1.4,0-3,0.6-4.4l-0.2,0.1c-1.2-0.7-2.5-0.9-3.9-1.1c-0.8,0.8-1.1,1.9-1.6,2.9
	c-0.6,1.2-1,2.4-1.7,3.6l-0.4,0.6c-1.5,0-3-0.4-4.4-0.6c-0.9-0.1-1.8-0.2-2.8-0.2c-0.8,0-1.1-0.4-1.2-1.2c-0.3-1.8-0.6-3.7-0.9-5.5
	c-0.2-1.3-0.3-1.5-1.7-1.4c-3.2,0.1-2.7-0.6-3.4,2.8c-0.3,1.4-0.5,2.7-0.7,4.1c-0.1,1-0.5,1.3-1.5,1.3c-1.9,0.1-3.9,0.4-5.8,0.8
	c-0.8,0.2-1.4,0.1-1.8-0.9c-0.9-2.1-1.7-4.2-2.8-6.1l-0.7,0c-0.9,0.1-1.7,0.5-2.5,0.7c-0.7,0.2-0.9,0.5-0.9,1.2
	c0.2,2,0.3,3.9,0.6,5.9c0.1,0.7,0,1.3-0.9,1.6c-1.9,0.7-3.8,1.4-5.7,2.4c-0.7,0.3-1.3,0.3-1.8-0.3c-1.1-1.4-2.3-2.8-3.5-4.2
	c-1-1.2-1.3-1.2-2.6-0.3c-0.7,0.4-1.6,0.6-1.9,1.4l0.1,0.4c0.4,2,1.4,3.9,2.1,5.9c0.3,0.9,0.3,1.5-0.6,2.1c-1.7,1.1-3.3,2.3-4.8,3.7
	c-0.6,0.5-1.1,0.4-1.7,0c-1.3-0.9-2.6-1.9-4-2.9c-1.6-1.2-1.8-1.2-3.2,0.2c-0.2,0.2-0.5,0.5-0.7,0.7c-0.7,0.6-0.7,1.2-0.1,1.9
	c1.2,1.6,2.3,3.2,3.4,4.8c0.4,0.6,0.3,1.1-0.1,1.7c-1.3,1.5-2.5,3-3.6,4.7c-0.6,1-1.3,1-2.3,0.6c-2-0.8-3.9-1.6-6-2.2l-0.1-0.1
	c-0.8,1.2-1.7,2.3-2,3.7l0.6,0.6c1.5,1.3,3,2.6,4.6,3.8c0.8,0.6,0.8,1,0.4,1.8c-1,2.2-1.7,4.4-2.8,6.6l-4.3-0.3
	c-0.9-0.1-1.8-0.2-2.8-0.3c-0.5,0-0.9,0-1.1,0.6c-0.3,1.1-0.8,2.2-0.7,3.4l4,2.1c1.1,0.5,2.2,0.8,3.1,1.7l-0.1,1.4
	c-0.4,1.9-0.7,3.7-0.7,5.6c0,0.8-0.4,1.1-1.1,1.2c-1.9,0.3-3.8,0.6-5.6,1c-1.3,0.2-1.5,0.6-1.5,1.7c0,2.9,0,2.9,2.9,3.4
	c1.4,0.2,2.8,0.5,4.2,0.7c0.7,0.1,1.1,0.4,1.1,1.2c0,2.4,0.6,4.7,0.8,7.1l0.2,0.1c-2.3,1.4-5,2.1-7.3,3.6l0,0.1
	c-0.1,1.1,0.4,2.2,0.7,3.2c0.2,0.6,0.6,0.6,1.1,0.6c1.5-0.1,3-0.2,4.6-0.4c3-0.3,2.5-0.3,3.5,2c0.6,1.5,1.2,3,1.9,4.4
	c0.3,0.6,0.3,1.1-0.2,1.6c-1.8,1.5-3.5,3-5.3,4.4l-0.1,0.2c0.3,1.1,1,2,1.6,3c0.3,0.6,0.9,0.7,1.4,0.4c0.7-0.4,1.5-0.7,2.3-0.9
	c1.4-0.5,2.8-1.3,4.3-1.4l2.7,3.4c0.7,1,1.6,2,2.4,3c-1.1,2-2.6,3.6-3.8,5.5c-0.8,1.2-0.8,1.3,0.1,2.3c0.5,0.5,0.9,1.1,1.5,1.4
	l0.6,0.4c1.6-0.8,3-2,4.4-3c0.5-0.3,1-0.6,1.4-1c0.5-0.4,0.9-0.4,1.5,0c1.7,1.4,3.4,2.8,5.3,4c0.7,0.4,0.5,1.1,0.3,1.6
	c-0.4,1.3-0.9,2.5-1.3,3.7c-0.4,1-0.7,1.9-0.9,2.9l0.7,0.6c0.2,0.2,0.5,0.5,0.8,0.6c1.8,0.7,1.8,1.5,3.4-0.7c0.9-1.3,2-2.4,3-3.6
	c0.6-0.8,1.3-0.9,2-0.5c1.7,1,3.6,1.7,5.4,2.3c1.1,0.4,1.2,1,1,1.8c-0.3,1.9-0.3,3.9-0.6,5.8c-0.1,0.7,0.2,0.9,0.6,1.1
	c0.9,0.3,1.8,0.6,2.8,0.8c0.8,0.2,0.9-0.4,1.2-0.9c1-2,1.8-4.1,2.9-6.1l0.7-0.1c2.1,0.3,4.2,0.7,6.4,0.8c1,0.1,1.4,0.7,1.6,1.6
	c0.3,1.6,0.5,3.2,0.7,4.8c0.1,0.6,0.3,1.2,0.6,1.9c1.3,0,2.6,0,4,0c0.6-2.2,0.9-4.4,1.2-6.5c0.2-1.1,0.7-1.6,1.8-1.7
	c2-0.1,3.9-0.4,5.9-0.8c0.8-0.2,1.1,0.5,1.4,1.1c0.8,1.6,1.5,3.3,2.3,4.9c0.5,1.2,0.4,1.5,2.2,0.9c0.8-0.3,1.7-0.4,2.4-0.8
	c0,0,0.1-0.1,0.1-0.1c-0.1-2.3-0.4-4.6-0.6-7c-0.1-0.8,0.3-1.1,1-1.3c1.9-0.7,3.8-1.3,5.5-2.4c0.7-0.4,1.5-0.3,2,0.5
	c1,1.3,2,2.5,3,3.7c1.5,1.8,1.1,1.6,3.3,0.6c0.3-0.1,0.6-0.4,0.8-0.6l0.7-0.6c-0.5-2.3-1.5-4.3-2.3-6.5c-0.3-0.7-0.3-1.2,0.5-1.7
	c1.5-1,3-2.2,4.5-3.3c1.5-1.2,1.4-1.2,2.9-0.1c1.7,1.2,3.3,2.5,5.1,3.5c0.2-0.1,0.3-0.2,0.4-0.3c0.6-0.6,1.1-1.1,1.7-1.7
	c0.9-1,0.9-1,0.1-2.2c-1.2-1.8-2.7-3.5-3.8-5.5c1.6-1.9,3.1-3.8,4.5-5.8c0.5-0.7,1-0.7,1.6-0.5c1.5,0.5,2.9,1.1,4.3,1.7
	c2.3,0.8,2.3,0.8,3.6-1.3c0.9-1.4,0.9-1.6-0.4-2.6c-1.4-1.2-2.8-2.3-4.2-3.5c-0.4-0.3-0.8-0.6-0.5-1.3c0.9-2,1.7-4.1,2.5-6.1
	c0.3-0.7,0.8-0.9,1.5-0.8c0.5,0.1,1,0,1.6,0.1c1.5,0.2,3,0.3,4.6,0.4c0.5,0,0.9,0,1.1-0.6c0.2-1.1,0.8-2.1,0.7-3.2l0-0.1
	c-2.3-1.5-5-2.2-7.3-3.6l0.4-2c0.3-1.7,0.6-3.5,0.6-5.3c0-0.8,0.5-1,1.1-1.1c1.8-0.3,3.5-0.6,5.3-0.8c1.6-0.3,1.8-0.4,1.8-2.2
	c0-0.4,0-0.9,0-1.3c0-0.8-0.3-1.2-1.1-1.3c-1.6-0.2-3.1-0.6-4.7-0.8c-2.2-0.3-2.2-0.3-2.4-2.4c0-0.1-0.1-0.2-0.1-0.2
	c0-1.9-0.7-3.8-0.6-5.8l3.4-1.9l3.6-1.9c0-1.2-0.4-2.2-0.7-3.4c-0.1-0.3-0.3-0.6-0.7-0.6l-7.4,0.6c-1.1-2-1.7-4.3-2.8-6.4
	c-0.5-0.9-0.4-1.6,0.5-2.3c1.8-1.3,3.5-2.7,5.1-4.2c-0.6-1.3-1.1-2.4-2-3.4L318.6,245.9z M155,127.5c0.4-0.7,0.3-1.4,0.5-2.2
	c0.2-0.9,0-1.2-0.9-1.5c-1-0.3-2.1-0.6-3.1-0.8c-1.4-0.3-1.6-0.6-1.6-2c0-0.7,0-1.4,0-2.2c-0.1-0.9,0.3-1.3,1.1-1.5
	c1.1-0.3,2.2-0.6,3.2-0.9c0.5-0.1,1.3-0.3,1.3-0.8c0-1.1,0-2.4-0.8-3.4c-0.2-0.3-0.6-0.3-0.8-0.2c-1.1,0.3-2.4,0-3.5,0.4
	c-1,0.3-1.5-0.2-1.8-1c-0.3-0.9-0.6-1.7-1-2.5c-0.2-0.6-0.3-1.1,0.4-1.6c1.1-0.7,2.2-1.4,3.1-2.3l0.6-0.6c-0.1-1.4-1.1-2.4-1.8-3.5
	l-0.1,0.1c-1.3,0.2-2.4,1-3.6,1.6c-1.3,0.6-1.6,0.5-2.6-0.6c-0.5-0.6-1-1.2-1.6-1.8c-0.5-0.5-0.4-1-0.1-1.4c0.8-1.2,1.6-2.2,2.4-3.4
	c0.3-0.4,0.5-0.9,0-1.3c-0.9-0.7-1.6-1.5-2.7-2c-1.3,1-2.3,2.2-3.4,3.3c-0.6,0.6-1.1,0.7-1.8,0.2c-1-0.6-2-1.2-3-1.8l0-0.5
	c0-1.6,1.2-4,1.2-5.7l-3.7-1.3c-1,1.2-1.4,3-2.1,4.3c-0.6,1.2-0.8,1.3-2.2,1c-0.1,0-0.2-0.1-0.4-0.1c-1-0.2-2.3,0-2.8-0.7
	c-0.5-0.8-0.4-2.1-0.4-3.2c0-0.9,0-1.7-0.4-2.5c-1-0.2-2.1-0.1-3.2-0.1c-0.9,0-0.9,0.8-0.9,1.3c0,1.2-0.3,2.4-0.3,3.6
	c0.1,0.9-0.5,1.2-1.2,1.3c-0.4,0-0.8,0.1-1.2,0.2c-2.7,0.5-2.7,0.5-3.7-2.1c-0.4-0.9-0.8-1.9-1.4-2.6l-1,0.1c-0.7,0.1-1.4,0.4-2,0.7
	c-0.7,0.3-0.8,0.7-0.6,1.4c0.5,1.5,1.1,3,1.1,4.7h0.4c-1.1,0.5-2.1,1.3-3.3,1.8l-1.1,0.5c-1.3-0.7-2.1-1.9-3.1-2.9
	c-1-1-1.3-1.1-2.5-0.1c-0.2,0.2-0.5,0.4-0.7,0.6c-1,0.9-1.1,1.3-0.3,2.3c0.8,0.9,1.4,1.9,2.1,2.9c0.3,0.4,0.4,0.9-0.1,1.4
	c-0.6,0.6-1.1,1.3-1.7,1.9c-0.9,1-1.3,1.1-2.5,0.5c-0.9-0.4-1.7-0.9-2.5-1.3c-1-0.5-1.6-0.3-2,0.6c-0.4,0.8-0.9,1.5-1.1,2.4l0.6,0.6
	c0.9,0.9,2,1.6,3.1,2.3c0.8,0.5,0.8,1.1,0.6,1.7c-0.3,0.9-0.7,1.7-1,2.6c-0.2,0.7-0.8,1.2-1.8,0.9c-1.2-0.3-2.4-0.1-3.6-0.4
	c-0.2-0.1-0.5-0.1-0.7,0.1c-0.8,0.9-0.7,2.1-0.8,3.2c-0.1,0.8,0.7,0.9,1.3,1.1c1.1,0.3,2.1,0.7,3.2,0.9c0.8,0.2,1.2,0.6,1.1,1.5
	c-0.1,0.8-0.1,1.5,0,2.3c0.1,1.1-0.4,1.6-1.3,1.8c-1.1,0.3-2.2,0.7-3.4,0.9c-0.9,0.2-1,0.7-1,1.5c0.3,2.8,0.6,3,3.5,2.6
	c1-0.1,2-0.2,3.1,0l0.7,1.9c0.2,0.8,0.8,1.5,0.8,2.4l-1,0.9c-0.8,0.8-1.8,1.3-2.7,1.9c-0.7,0.5-0.7,1-0.3,1.7c0.4,0.9,1,1.7,1.6,2.4
	l0.2-0.1c1.8-0.5,3.2-1.8,5-2.1l0.1,0c0.9,0.8,1.5,1.9,2.4,2.7c0.6,0.5,0.6,1.1,0.1,1.8c-0.7,1-1.4,2-2.2,3
	c-0.4,0.6-0.5,1.1,0.1,1.7c2.3,2.1,2.2,2.5,4.5-0.1c0.2-0.3,0.5-0.5,0.7-0.7c1.4-1.4,1.4-1.4,3.1-0.4c0.4,0.3,0.9,0.4,1.3,0.7
	l1.1,0.8c0,1.6-0.8,3.1-1.1,4.7c-0.1,0.3-0.1,0.6-0.1,1l0.4,0.2c0.9,0.5,1.9,0.9,2.9,1l0.5,0c0.3-0.6,0.6-1.1,1-1.7
	c0.6-1.1,0.9-2.3,1.7-3.4l0.7,0c0.9,0.1,1.8,0.4,2.8,0.5c1,0.1,1.4,0.5,1.5,1.6c0.1,1.6,0,3.2,0.6,4.7c1.3,0,2.5,0,3.7,0
	c0.7-1.6,0.4-3.3,0.6-4.9c0.1-1,0.5-1.3,1.4-1.4c1.1-0.1,2.2-0.3,3.5-0.5c0.8,1.2,1.4,2.4,1.9,3.7c0.6,1.4,0.9,1.6,2.3,1.1
	c0.7-0.3,1.4-0.6,2.2-0.9l-0.1-0.8c0-0.6-0.3-1.1-0.4-1.7c-0.2-1-0.9-2.2-0.8-3.2c0,0,2.1-1.3,3.3-1.9c0.6-0.4,1.1-0.3,1.6,0.1
	c0.7,0.6,1.3,1.3,1.9,1.9c1.9,2,1.7,1.5,3.6,0.1c0.2-0.1,0.3-0.3,0.5-0.5c0.6-0.5,0.6-0.9,0.1-1.6c-0.8-1.1-1.5-2.2-2.3-3.3
	c-0.4-0.5-0.4-1,0.1-1.4c1-0.8,1.5-2,2.5-2.8l1.2,0.4c1.4,0.3,2.6,1.5,4.1,1.7l0.7-0.6c0.4-0.5,0.8-1.1,1-1.8
	c0.3-0.7,0.3-1.1-0.4-1.6c-0.9-0.6-1.9-1.2-2.7-1.9l-1-0.9c0-0.8,0.5-1.5,0.7-2.3l0.9-2c0.9-0.2,1.8-0.2,2.6,0c1,0.2,2,0.2,3,0
	L155,127.5z M360,140.1l-2.2,1.1c1,0.6,1.4,1.8,2.2,2.3 M132.5,305.9l-3.2,0.2c-0.7,1-1.6,2.5-1.7,3.2c0.1,0.6,5.2,1.4,6.8,0.1
	C134.8,309.4,133,306.7,132.5,305.9z M264.1,161.1c-0.6-0.5-1.3-0.9-2.1-1l-1.1,1.1c-2,2.6-4.5,4.7-7,6.8l0.4,1.1
	c0.2,0.7,0.6,1.5,1.3,1.9l0.1,0.1c0.5,0.1,0.9-0.3,1.2-0.5c2.7-2,5.1-4.2,7.1-6.9c0.4-0.5,1-1,1-1.8L264.1,161.1z M222.1,173.4
	c3.8,2.5,8.2,3.1,12.5,3.6c0.5-1.1,0.3-2.1,0.3-3c0-0.6-0.3-1-1.1-1.1c-2.8-0.2-5.5-0.9-8.1-2c-0.6-0.3-1.2-0.7-1.9-0.6l-0.7,0.6
	c-0.5,0.5-0.8,1.2-1,1.9L222.1,173.4z M255.7,115.1c-1,0.7-1.4,1.9-1.9,3l0.2,0.1c1,0.8,1.9,1.7,2.9,2.5c1.9,1.5,3.2,3.5,4.8,5.2
	l0.3,0.1c0.8,0,1.5-0.4,2-0.9l1-0.8c0.1-0.5-0.2-1-0.5-1.3c-1.8-2.3-3.8-4.5-6.1-6.4c-0.8-0.6-1.5-1.3-2.5-1.6L255.7,115.1z
	 M222.5,114.1c0.1,0.6,0.7,1.1,1.1,1.7l0.8-0.1c3.3-1.3,6.6-2.3,10.1-2.6c0.1-0.3,0.3-0.5,0.3-0.8c0-1,0.4-2.3-0.3-3.1
	c-0.5-0.5-1.6,0-2.4,0.1c-2.8,0.4-5.5,1.1-8.2,2.2c-0.7,0.3-1.4,0.7-1.9,1.2L222.5,114.1z M264.2,130c0,0.1,0,0.3,0,0.4
	c1,2.7,1.9,5.4,2.4,8.3c0.4,2.6,0.5,2.6,3.1,2.4c0.8-0.1,1.2-0.5,1.1-1.2c-0.4-3.7-1.2-7.2-2.8-10.5l-0.9-1.1
	c-0.6,0.1-1.3,0.3-1.7,0.7L264.2,130z M206.7,157.9c0.7-0.1,1.4-0.4,1.9-0.9l1.1-0.8c-0.5-2-1.5-3.9-1.9-5.9c-0.4-1.7-0.5-3.5-1-5.2
	c-1.2,0-2.3-0.3-3.5,0.2l-0.1,0.4c-0.1,4.3,1.1,8.3,3.1,12L206.7,157.9z M0,193c0.2-0.8,0.1-0.8,0.6-1.4l0.4,0.3
	c1.2,0.2,2.4,0.5,3.6,0.7c0.8,0.1,1.1,0.5,1.2,1.3c0.2,1.9,0.5,3.8,0.8,5.8c0.1,0.5,0.1,1.3,0.9,1.3c1.8,0,3.6,0,5.3,0
	c0.2-0.7,0.4-1.2,0.4-1.8c0.2-1.8,0.6-3.5,0.8-5.3c0.1-0.9,0.4-1.2,1.2-1.3c0.9-0.1,1.8-0.3,2.6-0.6c0.9-0.3,1.6-0.1,2.2,0.8
	c1,1.6,2.1,3,3.1,4.6c0.6,0.9,1.3,1,2.1,0.6c1.4-0.7,2.7-1.4,4.1-2.1l-0.1-1.3c-0.5-2.2-1.5-4.3-1.9-6.5l0.8-0.8
	c1-0.8,1.9-1.8,3.1-2.4l0.5,0.1c2.2,1,4.1,2.6,6.4,3.6l0.4,0.1c1.2-1.1,2.2-2.5,3.2-3.7c0.5-0.6,0.5-1.3-0.1-1.9
	c-1.3-1.4-2.6-2.8-4-4.2c-0.7-0.7-0.7-1.3-0.3-2.1c0.5-0.9,1-1.8,1.3-2.8c0.3-0.7,0.9-1,1.7-0.9c1.9,0.3,3.8,0.4,5.8,0.5
	c1.1,0.1,1.5-0.4,1.7-1.3c0.3-1.4,0.7-2.9,0.8-4.4c-0.6-0.6-1.6-0.8-2.4-1.2c-1.3-0.5-2.6-1.1-4-1.5c-0.9-0.3-1.3-0.8-1.2-1.8
	c0.1-1.2-0.5-2.7,0.2-3.7c0.8-1.1,2.4-1.2,3.6-1.7c1.2-0.5,2.5-0.8,3.6-1.7c0.1-1.7-0.6-3.3-0.8-4.9c-0.1-0.7-0.5-1.1-1.3-1
	c-2,0.2-4.1,0.4-6.1,0.6c-0.6,0.1-1.4,0.1-1.4-0.8c0-0.1-1.6-3.2-1.7-3.3c-0.1-0.9-0.3-0.5,2.4-3.4c0.7-0.8,1.4-1.5,2.2-2.3
	c0.6-0.6,0.7-1.2,0.1-1.9c-0.8-1-1.7-1.9-2.4-2.9c-0.6-1-1.3-0.8-2.1-0.3c-1.6,1-3.2,1.9-4.8,2.9c-0.4,0.2-0.8,0.4-1.2,0.6
	c-1-0.7-1.9-1.8-3-2.4c-0.8-0.5-0.8-1.1-0.6-1.9c0.4-1.6,0.9-3.1,1.5-4.7c0.2-0.6,0.3-1.3,0.5-1.9l0-0.1c-1.8-1-3.5-1.9-5.3-2.6
	l-0.8,0.7c-1.2,1.6-2.3,3.3-3.4,5c-0.5,0.8-1,1-1.9,0.6c-0.9-0.4-1.8-0.5-2.7-0.6c-0.8-0.1-1.1-0.4-1.2-1.2
	c-0.2-1.8-0.6-3.7-0.8-5.5c-0.1-0.6-0.3-1.1-0.4-1.7c-1.9,0-3.9,0-5.9,0c-0.7,2.2-0.8,4.4-1.1,6.5c-0.3,1.7-0.2,1.7-1.9,2
	c-1,0.2-2,0.4-3,0.8c-0.7-0.7-0.7-0.6-1.1-1.4 M182,28.1c-0.5,0.1-0.7,0.4-0.9,0.8c-1.7,4.9-4.9,8.5-9.9,10.2
	c-0.9,0.3-1.3,0.8-1.2,1.8c0.1,3,0,5.9,0,8.9c0,0.6,0,1.1,0.3,1.7c2.1,0.1,4.1-0.6,6.1-1.4c8.4-3.5,13.8-9.7,16.5-18.4
	c0.2-0.6,0.3-1.3,0.4-2c0.2-1.4,0.2-1.5-1.2-1.6c-1.4,0-2.8,0-4.2,0c-1.9,0-3.8,0-5.8,0 M28.8,31.1c-3.1,0.6-5.5,2.2-6.9,5.1
	c-2.5,5.2,0.4,11.4,6.1,12.7c5,1.2,11-2.3,11-8.9c0-4.8-3.8-8.8-8.8-8.9c-0.4,0-0.8,0-1.2,0 M139.3,28.1c-0.9,0.1-1,0.6-0.9,1.4
	c1.8,8,6,14.2,13,18.5c2.5,1.6,5.3,2.6,8.2,3.4c0.7,0.2,1.3,0.1,2,0.1c0.4-0.6,0.3-1.2,0.3-1.8c0-3,0-5.9,0-8.9
	c0-0.9-0.3-1.3-1.1-1.6c-5-1.8-8.3-5.2-10.1-10.2c-0.3-0.8-0.8-1-1.5-1c-3.3,0-6.6,0-9.8,0 M29.2,27c-2.9,0.4-5.5,1.3-7.8,3.2
	c-7.2,6.1-5.3,17.1,2.1,21.2c6.1,3.4,14.4,1.4,17.9-5.4c2.9-5.6,1.3-12.9-4.3-16.7c-2.4-1.6-5-2.2-7.8-2.3 M264.6,27.4
	c-4.7,2.1-7.8,5.6-9.1,10.6c-1.9,7.6,1.1,14.8,8.2,18.4c7.6,3.9,16.9,1.2,21.2-6.5c5.1-9.1,0.4-21-10.9-23.5
	C272.6,25.7,266.2,26.4,264.6,27.4z M269.6,36.2c-2.4,0.7-3.9,2.1-4.5,4.6c-0.6,2.8,1.1,6,4.2,7c2.5,0.8,6.1-0.6,7.2-3.4
	c1.6-4-1.3-8.3-5.3-8.3L269.6,36.2z M148.9,202.1c-3.2,0.4-5.8,1.9-7.8,4.4c-3.4,4.5-2.8,11.1,1.6,14.8c3.6,3.1,7.7,3.7,12,1.7
	c6.3-2.9,8.1-10.7,4.3-16.1c-2.4-3.5-5.8-4.9-10-4.8 M65.4,265.1c-2.8,0.8-2.9,3.4-1.8,4.9c0.8,1,2.5,1.4,3.6,0.8
	c1-0.5,2-2.2,1.8-3.1c-0.3-1.5-1.4-2.6-2.9-2.6c-0.2,0-0.4,0-0.6,0 M103.4,116.1c-2.5,0.9-3.5,2.1-3.5,4.2c0,1.7,1.6,3.6,3.1,3.7
	c2.8,0.3,4.3-0.9,4.7-2.9c0.5-1.9-0.3-3.8-2.3-4.7c-0.6-0.3-1.2-0.4-1.9-0.4 M108.1,128.2c-1.3,0.3-2.4,1.1-2.9,2.4
	c-0.8,2.1,0,4.3,2,5.1c2.4,0.9,4.1,0,5.1-1.8c1.1-1.9,0.4-4-1.5-5.3c-0.9-0.6-1.8-0.4-2.7-0.5 M137.5,116.1
	c-1.3,0.3-2.5,0.9-3.1,2.2c-0.9,1.9-0.4,4.4,1.8,5.4c2.3,1,4.4,0.1,5.4-1.8c1-1.9,0.1-4.3-1.9-5.3c-0.6-0.3-1.3-0.6-2-0.5
	 M120.2,133.1c-1.9,0.6-3.2,1.7-3.2,3.8c-0.1,2.3,1.5,3.8,3.2,4.1c2.2,0.3,4-0.8,4.6-3c0.5-1.9-0.7-4-2.3-4.6
	c-0.7-0.3-1.4-0.3-2.2-0.3 M132.6,128.1c-1.8,0.4-3.1,1.3-3.5,3.2c-0.5,2.3,1,4.5,3.4,4.8c2.2,0.2,4.1-1.2,4.4-3.1
	c0.4-2.2-0.5-3.9-2.8-4.7c-0.4-0.1-0.9-0.3-1.3-0.2 M9.3,265.1c-1.4,0.5-2.3,1.4-2.4,2.9c-0.1,1.3,0.5,2.2,1.7,2.8
	c1.2,0.6,2.3,0.4,3.2-0.4c1-0.8,1.3-1.9,1-3.1c-0.4-1.3-1.3-1.9-2.5-2.2c-0.3-0.1-0.6,0-0.8,0 M50.8,271.5c-2.4,0.4-4.5,1.2-6.4,2.9
	c-5,4.4-5,12.4,0.4,16.7c6.4,5.1,15.5,2.1,17.6-5.8c1.8-6.6-3-13.1-9.5-13.7c-0.7-0.1-1.4-0.1-2-0.1 M165.3,15
	c-2.9,0.4-5.3,1.7-7,4.2c-2.7,4-1.4,9.9,2.5,12.3c3.1,1.9,6.1,2.1,9.2,0.5c3.1-1.6,4.8-4.4,4.8-7.9c0-4.9-3.8-9.1-9.5-9.1
	 M81.3,182.1c-2.3,0.5-3.7,1.8-4.3,4.1c-0.4,1.6,0.5,4.1,2.3,5.2c1.7,1,4.1,1,5.5-0.1c2-1.6,2.6-3.6,1.8-5.8
	c-0.8-2.2-2.6-3.4-5.2-3.4 M9.1,157.1c-2,0.4-3.3,1.6-3.9,3.5c-0.8,2.3,0.3,4.4,2.1,5.8c1.5,1,4.2,1,5.6-0.3
	c1.5-1.2,2.6-3.3,1.7-5.6c-0.8-2.1-2.5-3.4-4.8-3.4c-0.2,0-0.4,0-0.6,0 M147.6,296.1c-2,0.8-3,2-2.6,3.5c0.4,1.6,1.7,2.7,3.2,2.5
	c1.4-0.2,2.8-1.5,2.8-2.9c0-1.7-1.1-2.9-2.9-3.1c-0.1,0-0.2,0-0.4,0H147.6z M113.5,296.1c-2.4,0.9-3.2,2.9-2,4.7
	c0.6,0.9,2,1.5,3.3,1.2c1.6-0.4,2.1-1.7,2.3-2.8c0.2-1.1-0.9-2.5-2-2.9c-0.4-0.2-0.9-0.3-1.3-0.2H113.5z M138.6,310.9
	c-1.5,0.6-2.4,1.7-2.3,3c0.1,1.2,0.7,2.2,1.9,2.6c1.2,0.5,2.4,0.3,3.2-0.6c0.9-0.9,1-2.1,0.7-3.2c-0.3-1-1.6-1.8-2.7-1.8
	c-0.2,0-0.5,0-0.7,0 M132.2,104.1c-1.5,0.5-2.7,1.3-3.1,3c-0.4,1.4,0,3.2,1.7,4.3c1.5,1,3.3,0.9,4.6-0.1c2.8-2.3,1.7-6.1-1.3-7.1
	c-0.6-0.2-1.1,0-1.7-0.1 M37.2,293.2c-1.6,0.7-2.4,1.8-2.3,3.1c0.1,1.3,1.2,2.6,2.5,2.8c1.3,0.2,2.3-0.3,3-1.3
	c0.7-0.9,0.7-1.9,0.2-2.9c-0.5-1.1-1.3-1.8-2.6-1.7c-0.2,0-0.5,0-0.7,0 M37.4,265.1c-2.5,0.6-3.1,3-1.9,4.8c0.7,1.1,2.3,1.4,3.5,1
	c1.4-0.6,2.1-1.8,1.9-3.2c-0.2-1.3-1.3-2.3-2.6-2.5c-0.2,0-0.5,0-0.7,0 M23.1,242.7c-3.9,0.5-7,2.4-8.9,6
	c-3.3,6.4,0.5,14.3,7.4,15.7c5.8,1.2,11.8-2.1,13.1-8.6c1.3-6.4-3-11.8-8.6-13c-1-0.2-2-0.2-3-0.2 M120.7,99
	c-1.5,0.3-2.7,0.9-3.4,2.4c-1,2.2,0,4.4,1.9,5.3c2,0.9,4.3,0.1,5.3-1.9c1-2.1,0-4.4-1.8-5.2c-0.6-0.3-1.2-0.6-1.9-0.6 M235.2,131.2
	c-3.1,0.6-5.7,2.1-7.7,4.5c-3.9,4.8-3.3,12.8,2.3,17c6.9,5.2,17.4,1.5,19-7.7c1.1-6.1-3.4-12.8-9.8-13.7c-1.2-0.2-2.5,0-3.7-0.1
	 M315.9,94.7c-3.4,0-6.2,2.8-6.2,6.2s2.8,6.2,6.2,6.2s6.2-2.8,6.2-6.2S319.3,94.7,315.9,94.7z M270.8,52.1c-0.3,0.1-0.6,0.3-0.7,0.7
	c-0.1,0.4,0.2,0.9,0.6,1c0.4,0.1,0.9-0.1,1.1-0.5c0.2-0.6-0.2-1.2-0.8-1.2C271,52.1,270.9,52.1,270.8,52.1 M281.8,41.2
	c-0.3,0.1-0.6,0.3-0.7,0.7c-0.1,0.4,0.2,0.9,0.6,1c0.4,0.1,0.9-0.1,1.1-0.5c0.2-0.6-0.2-1.2-0.8-1.2
	C281.9,41.2,281.9,41.2,281.8,41.2 M259.8,41.2c-0.3,0.1-0.6,0.3-0.7,0.7c-0.1,0.4,0.2,0.9,0.6,1c0.4,0.1,0.9-0.1,1.1-0.5
	c0.2-0.6-0.2-1.2-0.8-1.2C260,41.2,259.9,41.2,259.8,41.2 M270.8,30.2c-0.3,0.1-0.6,0.3-0.7,0.7c-0.1,0.4,0.2,0.9,0.6,1
	c0.4,0.1,0.9-0.1,1.1-0.5c0.2-0.6-0.2-1.2-0.8-1.2C271,30.2,270.9,30.2,270.8,30.2 M360,28.4c-1.7-0.9-4.1-2.8-6-3.3
	c0,0-2.6,6.6-2.9,13.6c-0.7,8,2.9,16.1,2.9,16.1c1.8-0.5,4.3-2.6,6-3.4 M360,63c-1.6,0.6-0.8,0.5-1.3,0.6c0.3,0.4,0.7,0.8,1.3,1.5
	 M360,14.6c-0.6,0.7-0.9,1-1.3,1.5c0.4,0.1-0.3,0,1.3,0.6 M305,309.6c0.1,0.7-0.4,1.2-0.7,1.7c-5.8,8-13.2,14-22.3,17.8
	c-5.1,2.1-10.4,3.4-16,3.9c-0.8,0.1-0.9-0.3-1.1-0.8c-0.1-0.3,0-0.6,0-0.8c0-11.4,0-22.7,0-34.1c0-1,0.3-1.5,1.3-1.8
	c1.9-0.6,3.7-1.5,5.3-2.9c1.7-1.5,1.7-1.5,3.7-0.4c0.2,0.1,0.3,0.2,0.5,0.2c5.4,3.1,10.7,6.2,16.1,9.4c4.2,2.4,8.3,4.8,12.5,7.2
	L305,309.6z M218.8,309.7c0,0.4,0.1,0.8,0.4,1.1c4.7,6.6,10.5,11.9,17.5,15.8c6.4,3.5,13.4,5.7,20.7,6.3c1.2,0.1,1.4,0,1.4-1.3
	c0-11.5,0-23,0-34.6c0-0.7-0.1-1.2-1-1.5c-2.6-0.8-4.9-2-6.7-4c-0.5-0.5-1-0.4-1.4-0.1c-2.2,1.3-4.4,2.6-6.6,3.8
	c-4.9,2.8-9.8,5.7-14.6,8.5c-2.9,1.7-6,3.3-8.8,5.1L218.8,309.7z M219.1,252.7c3.3,2.3,7,4.1,10.5,6.2c3.9,2.3,7.9,4.6,11.9,6.9
	c3,1.8,6.1,3.5,9.2,5.2c2.1-2.1,4.5-3.7,7.3-4.4c0.7-0.2,1-0.8,1-1.5c0-11.4,0-22.9,0-34.3l-0.5-1.4c-5.8,0-11.4,1.6-16.7,3.8
	c-6.6,2.7-12.4,6.7-17.3,11.9c-2,2-3.8,4.1-5.3,6.6C219,251.8,219.1,252.7,219.1,252.7z M215.5,258.1c-1.6,2.1-2.3,4.6-3.1,7.1
	c-1.8,5.3-2.6,10.8-2.5,16.4c0.1,7.1,1.5,14,4.5,20.5c0.3,0.6,0.4,1.3,0.9,1.8l0.3,0.1c1.8-0.4,3.1-1.6,4.7-2.4
	c4.5-2.5,8.9-5.1,13.3-7.7c4.3-2.5,8.6-5.1,13-7.4c0.9-0.5,1.1-1.1,0.8-2.2c-0.6-2.3-0.6-4.6,0.1-6.9c0.2-0.8,0.1-1.3-0.7-1.7
	c-7.8-4.4-15.5-8.9-23.3-13.4c-2.3-1.3-4.5-2.6-6.7-4L215.5,258.1z M308.1,258.1c-1-0.1-1.7,0.7-2.5,1.1c-5.5,3.3-11.1,6.4-16.7,9.7
	c-3.8,2.2-7.6,4.4-11.4,6.6c-1.1,0.6-1.3,1.1-1,2.3c0.6,2.3,0.6,4.6-0.1,6.8c-0.2,0.8,0,1.4,0.7,1.8c2.7,1.5,5.4,3.1,8.2,4.7
	c4.9,2.8,9.8,5.7,14.8,8.5c2.3,1.3,4.6,2.6,6.8,4c0.4,0.2,0.8,0.5,1.3,0.5l0.8-1.2c2.1-4.3,3.4-8.9,4.2-13.6
	c0.5-2.8,0.7-5.7,0.7-8.5c0-2.6-0.2-5.1-0.6-7.7c-0.8-4.8-2.1-9.5-4.3-13.9L308.1,258.1z M274,270.6c2.8-1.5,5.6-3.2,8.4-4.8
	c4.4-2.6,8.9-5.2,13.3-7.8c2.8-1.6,5.7-3.1,8.4-4.8l0.9-0.7c0.1-0.5-0.2-1-0.5-1.3c-4.6-6.4-10.3-11.6-17.1-15.5
	c-5.5-3.1-11.5-5.1-17.8-6.1c-1.4-0.2-2.9-0.5-4.3-0.2l-0.1,0.1c-0.4,1.1-0.2,2.2-0.2,3.4c0,10.6,0,21.2,0,31.8c0,1.6,0,1.6,1.6,2
	c2.2,0.7,4.1,1.9,5.8,3.4c0.3,0.3,0.6,0.6,1,0.8L274,270.6z M261.6,273c-2.8,0.3-5.2,1.5-6.6,4.1c-2.1,3.8-0.9,8.9,3.2,11.1
	c4.1,2.2,9.1,0.2,10.9-3.6c2.3-4.9-0.7-10.7-6.2-11.4c-0.4,0-0.8-0.2-1.2-0.1"/>
</svg>
