<?xml version="1.0" encoding="utf-8"?>
<!-- Generator: Adobe Illustrator 18.0.0, SVG Export Plug-In . SVG Version: 6.00 Build 0)  -->
<!DOCTYPE svg PUBLIC "-//W3C//DTD SVG 1.1//EN" "http://www.w3.org/Graphics/SVG/1.1/DTD/svg11.dtd">
<svg version="1.1" id="Layer_1" xmlns="http://www.w3.org/2000/svg" xmlns:xlink="http://www.w3.org/1999/xlink" x="0px" y="0px"
	 viewBox="0 0 120 120" enable-background="new 0 0 120 120" xml:space="preserve">
<path fill="none" stroke="#000000" stroke-width="2" stroke-linecap="round" stroke-linejoin="round" stroke-miterlimit="10" d="
	M30.1,120.2v-19 M101.2,90.1h19 M39.2,50.1H21.1 M81.1,110.1h18.1 M110.1,39.2V21.1 M50.1,81.1v18.1 M10.1,1.1v18 M70.1,61.1v18
	 M79.1,10.1h-18 M19.1,70.1h-18 M41.2,30.1H59 M90.1,41.2V59 M57.4,6l-14.6,8.5 M102.7,74.4l14.6-8.5 M37.8,74.3l-14.7-8.4
	 M63,114.2l13.6-7.9 M83.2,5.9l14.7,8.4 M16.6,46.3L3,54.2 M4.1,86.4l13.2,7.7 M74.1,57.1l-8.1-14 M14.1,117.1l-8.1-14 M82.8,94.3
	l13.8-8 M54.2,103.1l-8.1,14 M114.4,17.6l-8.3-14.5 M43.3,46l14,8 M6,37.3l7.9-13.8 M94.3,37.4l-8-13.8 M103.3,106l14,8 M106.1,57.1
	l8.1-14 M46.1,63.1l8.3,14.5 M77.3,34.1l-13.2-7.7 M26.3,83.6l8,13.8 M66,97.3l7.9-13.8 M22.8,34.3l13.8-8 M34.2,3.1l-8.2,14.3
	 M85.9,77.5l8.2-14.3"/>
</svg>
