<?xml version="1.0" encoding="utf-8"?>
<svg version="1.1" id="Layer_1" xmlns="http://www.w3.org/2000/svg" xmlns:xlink="http://www.w3.org/1999/xlink" x="0px" y="0px"
	 viewBox="0 0 600 600" enable-background="new 0 0 600 600" xml:space="preserve">
<path fill="none" stroke="#000000" stroke-width="2" stroke-linecap="round" stroke-linejoin="round" stroke-miterlimit="10" d="
	M593.8,0.7c-0.1,4.3,0.1,8.7-0.3,13c-1.3,12.5-2.8,25-4.3,37.4c-0.6,5.6-0.8,11,2.3,16.1c3,5,3.1,10.6,2.3,16.3
	c-0.8,6-2.6,11.7-4.6,17.3c-3.1,8.7-6.7,17.2-11.9,25c-6.2,9.2-14.6,14.6-25.9,14.9c-11,0.3-22.1,0.5-33.1,1
	c-6.6,0.3-13.2,0.7-19.7,1.7c-8.5,1.4-17,3.5-25.5,5.4c-10,2.3-20,4.8-30,6.9c-9.6,2-19.3,1.9-29,2.2c-9.9,0.4-19.6,1.9-29,5
	c-8.2,2.7-14.9,7.3-19,15.3c-2.3,4.5-5.1,8.8-7.6,13.2c-4.9,8.5-10.8,15.8-20.1,20c-10.5,4.8-18.5,12.9-25.5,22
	c-4.1,5.4-8,11.1-10.2,17.5c-1.9,5.4-2.9,11.1-4.7,16.5c-3.3,10.3-8.4,19.5-16.3,27.1c-6.7,6.4-14.5,10.8-23.1,14.1
	c-3.3,1.2-6.7,2.3-10.1,2.8c-3.3,0.5-6.5-1-5.2-5.7c0.5-1.7,0.9-3.4,1.7-5c3-6.5,7.5-12,12-17.5c4.9-6.1,8-13,8.4-20.9
	c0.2-4.3,0.4-8.6,0.5-13c0-3.6,0.2-7.2-0.3-10.8c-1.2-8.5-4.6-16.1-9.3-23.3c-7.3-11.1-16.7-20-28.1-26.9
	c-6.8-4.1-14.3-6.3-22.3-6.2c-8.9,0.1-17.2,2.5-25.2,6.2c-8.9,4.2-17.6,8.7-26.4,12.9c-9.3,4.4-18.8,8.3-28,12.8
	c-10.4,5.1-20.6,10.6-31,15.7c-3.3,1.6-6.8,2.8-10.3,3.8c-5.1,1.4-7.7-0.9-6.6-5.9c0.7-3.4,1.9-6.8,3.3-10.1
	c4.1-9.4,9.3-18.2,16.8-25.4c7.6-7.3,15.7-14.2,23.5-21.4c3.9-3.6,7.7-7.2,11.3-11.1c2.9-3.1,6-5.2,10.4-5.3c3,0,5.9-0.2,8.9-0.2
	c8.3-0.2,13.4-4.2,15.6-12c1.8-6.3,2.3-12.8,2.8-19.2c0.3-4.4,1.9-7.9,6.1-9.5c2.8-1,5.9-1.6,8.8-1.7c12.7-0.6,25,2.5,37.4,4.5
	c5.2,0.9,10.4,1.3,15.6,0.5c6.1-1,12.3-1.7,18.5-2.7c8.9-1.3,17.7-2.8,26.6-4c8.5-1.1,16.9-2.4,25.4-2.8c10.8-0.5,21-3,31-7.1
	c9.8-4.1,18.7-9.6,26.5-17c7.3-6.8,12.9-14.8,16.6-23.9c4.7-11.4,5.6-23.4,3.2-35.5c-1.6-7.9-3.8-15.7-5.7-23.5 M393.8,0.9
	c0.4,1,0.9,1.9,1.2,2.9c1.4,6.1,3,12.3,4.1,18.5c3.5,20.3-1.1,38.4-14.8,54c-9.6,10.9-20.4,20.2-33.1,27.4
	c-8.4,4.7-17.4,7.7-26.9,9.3c-8.1,1.4-16.1,2.7-24.2,3.8c-7.6,1.1-15.2,1.9-22.8,2.9c-4.5,0.6-8.6,2.2-12.7,3.8
	c-6.2,2.3-12.8,3.2-19.4,3.8c-7.2,0.7-14.4,0.8-21.6,1.3c-7.4,0.5-14.4-1.1-21.4-3.4c-2-0.7-4.1-1.3-6.2-1.7
	c-6.5-1-10.6,0.7-13.2,7.6c-2,5.1-2.6,10.5-3.3,15.9c-0.3,1.9-0.6,3.7-1.2,5.5c-1.1,3.6-4,5.6-7.4,6.7c-3.8,1.2-7.3,2.9-10.8,4.7
	c-1.9,1-4.3,1.4-6.4,1.5c-3.6,0.1-7.2-0.3-10.8-0.3c-1.1,0-2.6,0.4-3.3,1.2c-7.6,8.2-16.9,14.2-25.5,21.1
	c-3.9,3.2-7.8,6.6-10.1,11.3c-0.7,1.5-1.2,3.2-1.2,4.8c-0.1,4.2,3.1,7,7.1,5.9c3.6-1,7.2-2.5,10.6-4.3c8.6-4.5,17.3-8.7,26.2-12.5
	c10.1-4.3,20-9.2,30-13.8c7.2-3.3,14.6-5.9,22.3-7.7c7-1.6,13.8-0.9,20.4,2c6.8,2.9,13.8,5.8,20.4,9.2c9.9,5.1,18.8,11.5,25.5,20.6
	c5.5,7.5,8.6,16,10.3,25c1.3,6.6,2.2,13.2,2.2,19.9c0,12.2-3.4,23.4-10.1,33.6c-1.4,2.1-2.4,4.3-3.6,6.5c-1,1.6-1.3,3.4,0.1,4.7
	c1.5,1.5,3.4,0.8,5.2,0.1c4-1.6,6.8-4.6,9.6-7.7c5.1-5.8,7.5-12.7,9.6-19.9c2.7-9.2,5.2-18.5,8.2-27.6c2.5-7.7,6.6-14.7,12.2-20.6
	c2.3-2.4,5.1-4.4,7.9-6.3c8.3-5.7,16.8-11.2,25.2-16.9c6.3-4.3,10.3-10.4,13.2-17.3c5.2-12.2,14.4-19.7,27.4-22.3
	c4.2-0.8,8.5-1.4,12.7-1.4c11.9,0,23.7-1.4,35.3-4.1c8-1.8,16.1-2.8,24.2-3.5c5.2-0.5,10.2-2,15.4-3c12.6-2.6,25.3-5.2,37.9-7.6
	c2.7-0.5,5.6-0.7,8.4-0.7c9.8-0.3,19.5-0.3,29.3-0.8c4.6-0.2,9.1-1.7,13.5-3.4c5.9-2.4,9.4-6.6,11.5-12.3c1.4-3.8,3.1-7.6,4.8-11.3
	c2.7-6,4.9-12.1,5-18.7c0.1-5.4-0.9-10.7-2.6-15.8c-2.1-6.3-4.9-12.5-6.3-19c-1.6-7-2.5-14.2-2.6-21.3c-0.2-9.5,0.6-19,1.1-28.6
	c0-0.5,0.5-1,0.7-1.4 M600.7,178.8c-1.2,0.8-2.3,1.8-3.6,2.4c-8.3,3.6-16.9,5.3-25.9,4.6c-8.2-0.6-16.5-1.2-24.7-1.2
	c-12.7,0-25.3,1.7-37.4,5.5c-7.5,2.3-15,4.9-22.3,7.7c-6.6,2.5-13.3,2.7-20.2,2.6c-5-0.1-10.1-0.2-15.1,0.3
	c-7.1,0.6-14.1,1.7-20.9,3.7c-11.9,3.6-20.1,11.3-25.6,22.1c-1.9,3.7-3.7,7.4-5.3,11.3c-1.6,3.9-4.3,6.6-7.7,8.9
	c-7.3,4.8-14.7,9.5-21.8,14.7c-8.2,6-15.2,13.4-20.4,22.3c-3.2,5.5-6.1,11.2-9.2,16.8c-6.6,12.1-13.6,23.9-22.1,34.8
	c-5.7,7.3-13.3,11.7-22.1,14.4c-15.3,4.8-31,8.3-46.5,12.1c-14.9,3.6-28.7,10-40.3,20.4c-4.8,4.3-9.1,9.2-13.7,13.6
	c-5.5,5.2-11.2,10.1-16.8,15.1c-8.4,7.5-16,15.7-21.3,25.7c-3.1,5.8-1.8,9.8,2.1,12.9c1.6,1.3,3.5,2.4,5.5,2.9
	c6.8,1.8,13.7,3.3,20.6,4.9c4.2,1,8.5,1.6,12.7,2.7c10.3,2.6,19.8,0.4,28.8-4.6c6.7-3.7,13.4-7.7,20.2-11.2c5.5-2.8,11.3-5,17.5-5.5
	c8-0.6,17.5,3,20.9,9.8c1.9,3.8,1.8,7.8,0.9,11.7c-1.5,6.3-3.4,12.5-4.9,18.7c-0.8,3.2-1.2,6.5-1.4,9.8c-0.4,6.1-2.4,11.7-4.9,17
	c-2.5,5.3-5.6,10.5-8.9,15.4c-4,6-6,12.8-8.9,19.2c-2,4.6-4.2,9.2-7.2,13.1c-4.5,6-11.5,8.2-18.6,9.4c-6.3,1.1-12.6,1-18.7-1
	c-3.6-1.2-7.1-2.9-10.3-4.8c-12.1-7.1-24-14.4-36-21.5c-6.1-3.6-12.1-7.4-18.3-10.7c-2.6-1.4-5.7-2.4-8.6-2.9
	c-4.6-0.7-7.3,1.8-7.9,5.9c-0.3,2.4-0.6,4.8-0.5,7.2c0.2,3.7-0.9,6.9-3,9.8c-3.7,5.2-7.4,10.4-11.5,15.3c-5.6,6.6-8,14.4-9.6,22.6
	c-1.1,5.5-2.2,11-3.3,16.6c-0.1,0.5,0,1,0,1.4 M600.2,196.1c-1.4,2.1-3.7,2.3-5.8,2.8c-9.4,2.4-19,4.1-28.8,4.4
	c-6.5,0.2-13,0.6-19.4,0.4c-11.6-0.4-22.9,1.4-34.3,2.9c-8.3,1.1-16.5,2.3-25,2c-8.2-0.3-16.3-0.1-24.5-0.1c-11.9,0-23,2.8-34.2,7
	c-7.4,2.8-10.7,8.5-14.3,14.4c-4,6.4-7.5,13-12.4,18.8c-4.1,4.8-8.6,9-14,12.2c-5.9,3.5-10.8,8.1-15.4,13.2
	c-6.8,7.5-12.4,15.7-17.9,24.1c-3.8,5.8-7.2,11.8-11.1,17.5c-3.4,5-7.1,9.8-11,14.4c-5,5.7-10.4,11-15.5,16.6
	c-6.4,7-14.7,10.8-23.5,13.7c-13.5,4.4-27.1,8.3-41.1,11.2c-4.6,1-9.3,1.2-13.9,2.3c-2.8,0.6-5.7,1.8-8.1,3.4
	c-5.6,3.7-11.2,7.6-16.3,12c-7.1,6-13.9,12.3-20.4,19c-6.8,6.9-13.3,14.1-18.5,22.3c-2.6,4-2,7.2,2.4,9c5.5,2.2,11.3,3.8,17,5.3
	c4.6,1.2,9.2,2,13.9,2.6c6.9,0.9,12.9-1.8,18.5-5.5c9.4-6.3,19.7-10.6,30.7-13.2c9-2.1,18.1-3.3,27.4-1.7c3.5,0.6,6.8,1.7,9.6,3.9
	c4.8,3.7,5.3,9.1,4.5,14.4c-1.4,8.5-1.7,17.1-2.7,25.7c-1.2,10.1-3.7,20-7.3,29.5c-1.8,4.9-4.3,9.5-7.8,13.5c-3.8,4.4-5.8,10-8,15.3
	c-3.3,8.2-6.2,16.5-9.7,24.7c-3.2,7.7-9.6,12.4-17,15.6c-5.7,2.4-11.6,3.8-17.7,4.6c-8.8,1.1-17.1,0-25.2-3.6
	c-8.5-3.7-16.4-8.3-24.2-13.3c-8.5-5.5-16.8-11.2-25.2-16.7c-1.2-0.8-2.5-1.3-3.8-1.7c-2.9-0.9-4.8,0-6.7,3.1
	c-1.1,1.8-1.8,3.9-2.9,5.7c-1.7,2.7-3.3,5.7-5.6,7.9c-8.3,8-13.3,17.7-17,28.4c-1.9,5.5-2.9,11.1-3.1,16.8 M600.2,158.1
	c-0.7,1-1.2,2.2-2.2,2.8c-6.5,4.2-13.3,7.6-20.9,9.4c-3.2,0.7-6.5,1.3-9.8,0.1c-7.1-2.4-14.2-1.2-21.1,0.7
	c-11.8,3.4-23.9,5.6-36,7.1c-6.7,0.8-13.4,0.9-20.1,1.6c-2,0.2-4.1,0.8-6,1.7c-5.1,2.2-10,4.8-15.2,6.8c-2.4,0.9-5.2,1.2-7.9,1.2
	c-11.4,0.4-22.6,2-33.6,5.3c-4.4,1.3-8.8,2.5-12.9,4.4c-6.4,2.8-11.7,7.2-15.9,12.9c-2.1,2.9-4.2,5.8-5.9,8.9c-1,1.8-1.5,3.9-1.7,6
	c-0.7,5.5-3.9,9.3-8.2,12.2c-2.9,1.9-5.9,3.7-9.1,5c-9.6,3.9-17.3,10.3-24.4,17.6c-6.7,6.9-12.5,14.5-17.8,22.5
	c-4.7,7.2-7.4,15.2-10.1,23.3c-4.7,14.1-14.1,24.1-27.5,30.3c-14.4,6.6-29.6,10.9-44.9,15.2c-8.3,2.3-16.6,4.7-24.7,7.5
	c-5.9,2-10.9,5.7-15.4,10c-5.8,5.5-11.2,11.4-17.4,16.4c-5.4,4.4-11.6,7.7-17.4,11.7c-7.5,5.1-14.8,10.6-20.7,17.7
	c-3.2,3.8-6.9,7.2-10.2,10.9c-3.5,3.9-5.4,8.5-5.1,13.9c0.3,4.2,2.5,7.5,4.8,10.8c6.8,9.6,15.4,17.1,25.4,23
	c5.3,3.1,11.3,3.7,17.3,4.4c10.5,1.1,21,2,31.4,3.4c4.4,0.6,8.7,2,12.8,4.2c2.9,1.6,4.4,4.1,5.7,6.8c1.7,3.4,3.6,6.8,6.5,9.3
	c4.6,4.1,5.6,9.2,4.8,15.1c-0.8,6.4-2.9,12.4-5.6,18.2c-0.6,1.4-1.4,2.7-1.9,4.1c-1.9,5.9-7.6,7-12.5,6.7
	c-6.8-0.5-13.2-2.7-19.4-5.5c-10.6-4.6-20.3-10.8-29.8-17.2c-11.9-8.1-25.1-13.4-39.1-16.6c-3.5-0.8-7.2-1-10.8-1.2
	c-3.4-0.2-5.5,1.2-6.4,4.5c-1.1,4.2-1.8,8.6-2.5,12.9c-1.1,7.1-2.2,14.1-7.2,19.7c-1.9,2.1-4.2,3.9-5.9,6
	c-3.9,4.8-5.7,10.6-6.4,16.5c-1.1,8.9-1.7,17.9-2.5,26.9c-0.2,2.5-0.6,5-0.9,7.4 M508.6,0.9c-1.8,1.8-3.5,3.7-5.3,5.5
	c-2.8,2.9-5.8,6-10.1,6.1c-3.4,0.1-6.3,1.4-8.8,3.3c-8.3,6-17.1,5.7-26.2,2.6c-3.5-1.2-6.8-3.1-10.4-4.5c-1.8-0.7-3.8-0.7-5.7-1.3
	c-3.1-0.9-6.3-1.9-9.4-2.9c-3.4-1.1-6.7-2.3-10.1-3.3c-1.4-0.4-3-0.5-4.5-0.5c-2.3,0.1-3.9,1.9-4.1,4.5c-0.2,3.6-0.3,7.2-0.5,10.8
	c-0.9,14.2-2.8,28.1-7.7,41.5c-1.3,3.7-3.5,6.8-6.6,9.4c-6,5.1-11.8,10.4-17.8,15.5c-11.7,10.1-24.4,18.7-37.9,26.2
	c-7,3.9-14.1,7.6-21.6,10.3c-8.2,2.9-16.7,4.5-25.2,6c-8.7,1.5-17.3,3.4-25.9,5c-9.7,1.8-19.3,3.9-29.3,4.2
	c-7.2,0.2-14.1-1.3-21.1-2.3c-5.6-0.8-11.2-1.3-16.8-1.7c-2.1-0.1-4.3,0.3-6.2,1c-3.4,1.2-5.2,4-4.4,7.6c2.2,9.2,7.1,14.7,16.6,16.8
	c7.6,1.6,15.4,2.7,23,4.4c8.7,2,16.8,5.6,24,11c6.2,4.7,10.8,10.7,14.4,17.5c3.7,6.9,7,13.9,10.6,20.8c0.7,1.3,1.6,2.6,2.6,3.6
	c1.6,1.6,3.8,1.8,5.7,0.5c2.1-1.5,4-3.3,6-5c6.2-5.2,13.3-8.7,20.4-12.5c6.7-3.5,13.2-7.2,19-12.2c5-4.3,7.4-10.2,10-15.9
	c3.8-8.3,8.8-15.8,15.7-21.8c4.3-3.7,9.3-6.1,15.3-5.9c6.9,0.3,13.8,0.3,20.6,0c11-0.4,22.1-0.4,32.9-3.4c4.4-1.2,8.6-3.5,13-4.9
	c15.1-5.1,30.2-10.1,45.3-15.2c7.1-2.4,14.1-4.7,21.1-7.3c2.8-1,5.4-2.6,7.9-4.3c4.5-3,9.4-4.5,14.7-5.3c7.6-1.1,13.9-4.4,17.3-11.8
	c1.7-3.8,2.4-7.9,2.6-12c0.4-8.6-0.9-17-2.5-25.5c-1.1-5.4-1.6-11-1.9-16.5c-0.3-6.4-0.2-12.8,0-19.2c0.2-6.6,0.6-13.1,0.9-19.7
	 M600.7,209c-5.4,0.2-10.4,1.7-15.4,3.8c-4.2,1.8-8.4,3.9-12.7,5.2c-5.9,1.8-12.1,1.4-18.2,0.7c-5-0.5-9.9-1.6-14.9-2.3
	c-2.4-0.4-4.8-0.7-7.2-0.7c-7.4,0-14.7,0.3-22.1,0.4c-0.6,0-1.3,0.1-1.9,0.2c-4.1,1.1-4.9,3-1.9,5.9c4.4,4.3,8.6,8.9,14.4,11.3
	c2.2,0.9,4.8,1.1,7.2,1.8c3.4,0.9,4.5,2.7,3.9,6.2c-0.6,3.5-1.9,6.6-3.8,9.6c-2.4,3.8-5.9,5-10.1,4c-4.6-1-8.9-3-12.7-5.8
	c-4.2-3.1-5.3-8-6.3-12.9c-0.8-4.2-1.6-8.5-2.4-12.7c-0.5-2.6-2-4.1-4.5-5.1c-3.9-1.5-7.8-1.3-11.8-1.1c-5.8,0.3-11.5,0.8-17.3,1.4
	c-8.3,0.8-16.5,2.4-23.5,7.4c-4.4,3.2-7.8,7.4-11.1,11.7c-4.2,5.6-8.1,11.5-13.4,16.1c-3.7,3.1-7.7,5.9-11.5,8.9
	c-8.4,6.7-15.9,14.3-23,22.3c-2,2.3-3.9,4.6-5.8,7c-0.4,0.5-0.7,1.3-1,1.9c-1.4,3.2-0.7,4.5,2.6,5c2.7,0.4,5.5,0.2,8.2,0.6
	c4.8,0.6,8.7,3.3,12.5,6c3,2.2,5.8,4.6,7.3,8.4c1.3,3.3,0.9,6.3-0.8,9.1c-3,5.1-7.7,8.4-12.2,12c-3.5,2.8-6.5,6.1-7.6,10.6
	c-0.3,1.4-0.5,2.9-0.2,4.3c2,10.4-1.4,19.3-7.3,27.6c-2.5,3.6-6.3,5.4-10.3,6.7c-9,3.1-17.3,7.6-24.5,13.9
	c-8.4,7.4-12.7,17-14.7,27.8c-1.2,6.5-2.2,13.1-3.4,19.7c-0.4,2.2-1,4.4-1.9,6.5c-4.4,10-8.8,19.9-13.4,29.8
	c-3.5,7.5-7.1,15-11.1,22.3c-2.3,4.2-5.3,7.9-8.1,11.8c-5.2,7.2-8.1,15.5-11,23.8c-2.4,6.9-4.4,13.9-7.3,20.6
	c-3.2,7.3-8.9,12.8-15.8,16.8c-9.9,5.9-20.8,8.4-32.4,8c-9.9-0.4-19.2-3.1-27.6-8.2c-9.2-5.6-18.1-11.8-27.2-17.7
	c-3.4-2.2-6.9-4.1-10.6-5.7c-2.7-1.2-4.6-0.5-6.2,1.9c-3.4,5.2-7.9,9.6-12,14.2c-3.7,4.1-7.2,8.4-10.6,12.7
	c-3.3,4.2-4.4,9.2-5.1,14.4c-0.2,1.2-0.3,2.4-0.5,3.6 M600.2,109.7c-1.4,2.8-2.7,5.7-4.4,8.4c-4.9,7.7-9.8,15.3-14.9,22.8
	c-4.8,7.2-11.7,10.4-20.1,10.3c-8.2-0.1-16.3-0.7-24.5-0.6c-4.7,0-9.4,0.8-14.2,1.4c-6.2,0.7-12.3,1.8-18.5,2.1
	c-11,0.6-21.6,3-32.1,6.1c-8.7,2.6-17.5,4-26.4,5.2c-12.6,1.7-25.2,2.1-37.9,2.2c-11.6,0.1-21.2,5-28.8,13.6
	c-4.9,5.5-8,12-10.7,18.9c-3.3,8.6-8.3,15.8-17.4,19.5c-6.3,2.6-11.9,6.3-17.1,10.7c-7.1,5.9-12.1,13.2-16.2,21.2
	c-5.7,11.1-10.9,22.4-16.4,33.6c-3.1,6.3-6.8,12.4-11.8,17.5c-6.1,6.3-13.8,10-21.8,13.2c-10.1,4-20.6,6.5-31,9.4
	c-5.3,1.4-10.6,3.1-15.8,4.5c-9.5,2.6-17.7,7.7-25.2,14c-8.1,6.9-16,14.1-24,21.1c-9.3,8.1-19.3,15.3-29.7,21.9
	c-9.8,6.1-19.6,12.3-28.1,20.1c-10.9,10-17.2,22.6-20.4,36.9c-1.4,6-2.8,12.1-4.6,18c-2.6,9.1-7.6,16.8-13.6,24
	c-3.3,3.9-6.5,7.9-9.6,12c-2.9,3.9-4.1,8.4-4.3,13.2c-0.4,10.5-1.8,20.8-6.5,30.5c-2.4,5-4,10.3-6.3,15.3
	c-3.4,7.4-8.4,13.6-13.9,19.5c-4.1,4.4-8.3,8.8-10.7,14.4c-1.4,3.2-2,6.7-3,10 M600.2,146.6c-0.9,3.3-3.7,5.2-6.1,7.1
	c-8.5,6.8-18.4,9.4-29.2,8.2c-5.5-0.6-11-1.9-16.6-2.2c-3.6-0.2-7.3,0.7-10.8,1.6c-8.4,2.1-16.6,4.5-25,6.6
	c-2.3,0.6-4.8,0.5-7.2,0.5c-9.6,0.2-19.3,0.3-28.1,5.1c-1.9,1-3.7,2.2-5.5,3.3c-3.8,2.3-8,2.8-12.2,2.9c-9.8,0.2-19.5,0.9-29,2.9
	c-8.9,1.8-17.7,3.9-26.1,7.3c-5.8,2.3-11.7,4.9-14.3,11c-1.4,3.3-1.9,7-2.5,10.5c-1.5,10.1-6.8,17.6-15.7,22.5
	c-5.1,2.8-10.6,5-15.8,7.8c-10.2,5.3-18.3,12.9-23.7,23c-4.5,8.4-8.7,17-12.7,25.7c-3.7,7.9-7.4,15.7-12.5,22.8
	c-6.2,8.7-14.4,14.2-24.5,17.3c-4.9,1.5-9.6,3.8-14.4,5.4c-9,3.1-18,6-27.1,8.9c-7.2,2.2-14.6,3.7-21.5,6.4c-4.6,1.8-9,4.8-13,7.8
	c-6.6,5.1-12.6,10.8-19.1,16c-4.2,3.4-8.6,6.7-13.2,9.6c-11.6,7.4-23,15-33.3,24.1c-4.3,3.9-8.5,8.1-12.2,12.5
	c-4.1,4.9-5.7,10.8-3.8,16.9c1.3,4.1,3.4,7.9,5.4,11.8c2.7,5.2,5.4,10.4,6.5,16.3c1.1,5.6,0.1,10.5-4.2,14.4
	c-3.2,2.9-6.6,5.8-10.3,8.1c-6.3,3.9-9.1,9.5-9.6,16.6c-0.4,6.3-0.2,12.7-1.8,19c-1.6,6.1-4.5,11.6-9,15.7
	c-7.7,7-10.5,16.1-12.6,25.6c-1.9,8.6-2.6,17.3-2.8,26.1c0,2.9-1,5.8-1.6,8.6 M367.7,0.7c1.9,8.1,2.2,16.4,2.9,24.7
	c0.8,10.5,0.5,20.9-1.9,31.2c-2,8.5-7,15-13.7,20.4c-14.1,11.5-30.6,17.1-48.5,19.2c-4.5,0.5-9.1,0.2-13.7,0.6
	c-8.2,0.6-16.4,1.2-24.5,2.2c-11.3,1.4-22.5,3.5-33.9,4.9c-9.3,1.2-18.6,1.4-27.8-0.9c-5.3-1.3-10.4-3.1-15.6-4.5
	c-7.4-1.9-14.8-1.3-21.8,1.7c-5,2.2-7.9,6.5-9.4,11.7c-1.5,5.1-2.7,10.2-4.1,15.4c-1.5,5.4-3.6,10.4-8.9,13.1
	c-2.6,1.3-5.6,1.9-8.4,3c-8.5,3.1-16,7.7-20.6,15.8c-5.1,8.9-13.1,15.1-20.9,21.4c-7.1,5.8-13.7,12.1-18.8,19.9
	c-4.4,6.8-7.3,14.4-9.2,22.1c-3.4,13.7-6.3,27.5-9.2,41.3c-1.9,9-4.7,17.7-8.2,26.1c-3.7,8.9-7.8,17.5-12.9,25.7
	c-3.9,6.3-9,11.4-14.6,16.1c-5.6,4.7-12.5,6.9-18.8,10.3c-1.3,0.7-2.7,1.3-4.1,1.9 M351.4,0.7c0.8,6.1,2.1,12,4,17.8
	c2.2,6.5,0.9,13-0.7,19.4c-1.3,5.5-2.6,10.9-4.1,16.3c-1.3,4.7-4.3,8.6-7.9,11.7c-5.2,4.6-11.1,8.2-17.4,11.2
	c-7.2,3.4-14.8,5.7-22.6,7.1c-11,2-22.2,2.9-33.4,3.1c-1.2,0-2.4,0.3-3.6,0.2c-7.1-0.5-13.9,0.9-20.6,2.6
	c-7.1,1.9-14.4,3.1-21.8,3.1c-6.8,0-13.5-1-19.4-4.7c-9.4-5.9-19.4-5.9-29.5-2.2c-5.8,2.1-11.5,4.3-17.3,6.5
	c-3.6,1.4-5.7,4.3-7.5,7.6c-3.2,5.9-4.7,12.4-6.7,18.7c-0.9,3-1.7,6.2-2.9,9.1c-2,4.8-6.3,6.6-11,7.7c-2.9,0.7-5.8,1.5-8.6,2.4
	c-3.3,1-6,3.1-7.1,6.3c-1.9,5.1-5.1,9.3-8.5,13.4c-8.2,9.9-17.5,18.4-28,25.7c-3.8,2.6-6,6.7-8.1,10.6c-8.7,15.4-14.8,31.8-20,48.7
	c-2.4,7.8-3.5,15.9-4.1,24c-0.5,5.6-2.6,10.8-4.8,15.8c-3.9,8.9-9.1,16.9-15.1,24.5c-5.9,7.6-14.2,11.9-22.1,16.8
	c-0.7,0.4-1.6,1.1-1.6,1.7c0,5.8,0.1,11.7,0.2,17.5 M336.5,0.7c0.5,12.6,0.9,25.3,1.5,37.9c0.5,10.6-3.4,19.1-12.3,25.2
	c-8,5.5-16.8,8.9-26.4,9.7c-7.1,0.6-14.4,0-21.6,0.2c-6.2,0.1-12.6-0.9-18.7,0.9c-4.6,1.4-9,3.4-13.7,4.4
	c-6.7,1.5-13.5,1.6-20.4,1.4c-8.1-0.3-15.5-3.1-22.8-6.1c-12-5.1-23.8-4.2-35.5,0.5c-6.3,2.5-12.5,5.3-18,9.4
	c-7.5,5.5-10.8,13.4-12.3,22.3c-0.6,3.6-1.7,7.1-2.9,10.6c-2.2,6.9-7.7,9.4-14.4,10.4c-3.1,0.5-6.3,1.2-9.4,1.9
	c-3.9,0.9-6.5,3.4-8.1,7c-3.5,7.8-7.9,15-14.4,20.6c-5.4,4.6-10.9,9.1-16.3,13.7c-6.6,5.6-10.9,12.8-14.4,20.6
	c-5.8,13-8.6,26.9-13,40.3c-3.6,10.9-7.2,21.9-11.6,32.6c-3.4,8.5-7.9,16.4-14.4,23.2c-5,5.2-8.9,11.4-13.3,17.2
	c-1.1,1.4-2.2,2.9-3.4,4.3 M324.5,1.5c-1,3.8-2.1,7.6-3.1,11.4c-0.7,2.6-1.9,5-3.8,7c-2.4,2.3-2.5,5.1-1.7,8.2
	c0.7,2.9,1.8,5.7,1.8,8.6c0.1,3.7-2.6,6.5-5,9.1c-6.5,7-14.7,10.6-24.2,11.3c-8.1,0.6-16-1.1-23.8-2.9c-7.1-1.7-13.5-0.8-19.5,3.6
	c-6,4.3-12.8,4.6-19.9,3.2c-8.9-1.7-18-2.6-27.1-2.5c-10.3,0.1-20.6-0.2-30.7-2.1c-0.8-0.1-1.6-0.2-2.4-0.5
	c-5.2-1.8-9.6-0.2-13.4,3.2c-3.5,3.1-6.7,6.4-9.8,9.8c-4.7,5.2-10.5,8.9-16.6,11.9c-3.1,1.5-4.3,3.6-4.3,6.8
	c0.1,6.1,0.1,12.2,0.3,18.2c0,2.4-0.8,4.2-2.9,5.3c-4.6,2.2-9.3,4.3-13.9,6.5c-3.1,1.5-6.5,2.7-9.3,4.6c-4.9,3.3-7.2,8.4-8.5,14.1
	c-1,4.7-2.2,9.2-5.2,13.3c-2.4,3.2-5.4,5.7-8.7,7.6c-7,4-11.8,9.9-15.8,16.6c-5.7,9.5-9.8,19.6-13.4,30
	c-5.1,14.8-10.2,29.7-15.1,44.6C23,264.7,14.2,279,2.9,291.9c-0.9,1-1.3,2.4-2,3.6 M600.2,259.9c-0.8,4.3-3.6,7.7-5.8,11.3
	c-2.9,4.7-7.2,7.8-11.5,11.1c-9.8,7.5-19.3,15.3-29.1,22.7c-5.2,3.9-10.2,7.9-14.9,12.5c-4.9,4.9-11.5,6.6-18.2,7.8
	c-6.6,1.2-13.2,2.1-19.7,3.7c-8.6,2.1-16.2,6.4-23.8,10.9c-5.5,3.3-10.9,6.9-17.3,8.4c-2.5,0.6-5,1.4-7.4,1.4
	c-8.5-0.1-16.5,2-24.2,5c-8.2,3.2-16.1,7.1-22.8,12.9c-2.9,2.5-5.7,5.2-8.4,7.9c-6.9,7.2-14.5,13.5-22.8,18.9
	c-6.2,4.1-12.8,7.5-20.1,9.5c-8.1,2.2-12.3,8.2-14.2,16c-1.6,6.5-1.3,13.1-0.8,19.7c0.6,7.5-1.6,14.5-5.5,20.8
	c-2.7,4.4-6.1,8.3-9,12.5c-8.2,11.7-13.1,24.8-16.3,38.6c-1.9,8-3.3,16-3.3,24.2c-0.1,9.1,0.1,18.2-0.1,27.4
	c-0.3,11.5-0.9,23-4.3,34.1c-0.4,1.2-0.6,2.4-1,3.6 M311.8,0.9c-0.8,1.5-1.7,3-2.4,4.6c-3.2,7.7-4.8,15.8-4.6,24.2
	c0,2.1-0.3,4.3-1,6.2c-1.8,5.2-6.3,6.3-11.2,5.9c-7.8-0.5-15.5-1.8-23.3-2.3c-7.8-0.5-15.5,0.7-23.1,2.9c-9.6,2.9-19.3,5.5-29.5,4.9
	c-8.1-0.5-16.2-1.3-24.2-2.4c-9-1.3-17.9-3.1-26.9-4.7c-7.6-1.4-14.3,0.8-20.1,5.6c-4,3.3-7.6,7.1-11.3,10.8
	c-4.5,4.4-9.2,8.3-14.8,11.4c-4.9,2.6-9.1,6.3-11.4,11.7c-1.5,3.6-2.4,7.5-2,11.3c0.7,6.8-2.8,10.2-8.5,12.6
	c-4.1,1.7-8.3,3.5-11.8,6.4c-3.9,3.2-5.8,7.1-5.7,12c0.2,10.2-3.8,18.2-12,24.2c-4.6,3.4-9.1,6.9-13.9,10
	c-8,5.2-12.3,12.9-14.8,21.7c-3.5,12.4-6.3,25-9.7,37.4c-3,11.1-6.1,22.2-9.7,33.1c-1.3,3.8-4.3,6.9-6.6,10.4c-3.9,6-7.8,12-11.7,18
	c-0.4,0.6-0.5,1.3-0.7,1.9 M600.7,276.7c-0.3,0.9-0.5,1.9-1,2.6c-3.9,5.5-7.5,11.3-12.1,16.2c-3.7,3.9-8.5,6.9-13.1,9.9
	c-7.5,5.1-15.3,9.8-22.7,15c-2.4,1.7-4.2,4.3-6,6.7c-3.8,5.1-9,7.6-15.2,8.1c-6,0.5-12,0.6-18,1c-6.3,0.4-12.4,1.9-18.2,4.5
	c-7.8,3.6-15.1,8.3-22.3,13c-6.4,4.2-13.2,7.6-20.9,8.6c-4,0.5-8,0.2-12,0.6c-8.2,0.8-15.5,4-22.1,8.9c-9,6.7-17,14.6-24.5,23
	c-6.1,6.8-12.9,12.9-21.6,16.3c-2.9,1.1-5.8,2.1-8.6,3.1c-6.7,2.4-10.2,7.4-10.8,14.4c-0.5,6.9-0.6,13.9-1,20.9
	c-0.3,5.5-0.5,11.1-3.9,15.8c-1.8,2.5-3.7,5.1-6,7.2c-8.1,7.2-13.2,16.2-17.5,25.9c-5.1,11.5-7.8,23.6-8.4,36c-0.5,10,0.2,20,0.3,30
	c0.1,7.9,0.6,15.9,0.1,23.7c-0.3,4.2-2.4,8.3-3.7,12.5 M600.7,292.5c0.1,1.4-0.2,2.4-1.4,3.4c-5.5,4.9-10.7,10.4-16.4,15
	c-5,3.9-10.9,6.7-15.9,10.5c-6.7,5-13,10.5-19.5,15.8c-3.6,2.9-7,6.1-12,6.5c-2.3,0.2-4.6,0.2-7,0.2c-4.6,0-9.3-0.4-13.9,0.1
	c-5.2,0.6-9.6,3.2-13.5,6.8c-2.8,2.7-5.8,5.2-8.6,8c-1.5,1.5-3.5,2-5.3,1.8c-7.4-0.8-13.2,2.5-18.7,6.8c-5.3,4.1-11,7.4-17.5,8.8
	c-3,0.7-6.1,1.4-9.1,1.1c-8.2-0.6-14.6,2.8-20.7,7.8c-8.6,7.1-15.1,15.9-20.6,25.5c-6.5,11.4-16.7,18-28.6,22.5
	c-1.6,0.6-3.4,1-5,1.7c-3.6,1.6-4.9,4.9-5.8,8.4c-1.1,4.9-1.2,9.9-0.7,14.9c0.4,4.6,0.7,9.3,1.2,13.9c0.3,3.2-0.9,5.8-3.2,7.9
	c-2.2,2.1-4.4,4.1-6.7,6c-7,5.8-13.5,12.1-18.5,19.9c-5.5,8.4-8.6,17.5-9.8,27.4c-1.3,10.9-0.8,21.8,1.6,32.4
	c1.8,7.9,1.4,15.7,0.8,23.6c-0.3,3.5-1,6.9-1.4,10.3c-0.1,0.8-0.1,1.5-1.2,1.1 M513.4,537.8c4.8-0.8,8.1-4,11-7.5
	c4.3-5.3,8.2-11,12.3-16.5c3.9-5.1,8.3-9.6,14.9-11c3-0.6,6.1-0.6,9.1-1.1c2.9-0.5,5.8-1,8.6-1.9c4.1-1.3,5.4-5.2,2.8-9
	c-2.2-3.2-5.4-5.8-8-8.7c-1.7-1.8-3.5-3.6-4.7-5.8c-2.4-4.2-0.3-7,3.3-8.3c2-0.7,4.1-1.2,6.2-1.2c6.2,0,10.8-2.8,14.4-7.5
	c4-5.2,4.4-11.2,3.1-17.3c-0.9-3.9-3.7-5.1-6.8-2.6c-6.9,5.4-14.9,4.2-22.6,4.2c-6.7,0-13.4-0.7-20.2-0.9c-5.7-0.2-10.7-2-14.9-6
	c-2.4-2.4-4.9-4.7-7.2-7.2c-3.7-4.2-8-4.9-13-2.9c-4.4,1.8-8.8,3.3-13.7,3.2c-3.7,0-6.8,1.9-9.1,4.9c-4.4,5.6-9,10.7-15,14.7
	c-5.8,3.9-8.5,10.1-10.9,16.5c-1.8,4.7-3.9,9.5-6.8,13.6c-3.4,5-9.1,7.2-14.5,9.4c-8.3,3.3-16.8,6.4-23.7,12.3
	c-4.6,3.9-9.2,7.8-13.4,12c-3.6,3.6-5.3,8.2-5.3,13.4c0,2.2-0.2,4.3,0,6.5c0.3,3,2.2,4.4,5.2,4.6c5.2,0.3,9.7-1.9,14.4-3.6
	c3.5-1.3,6.8-2.8,10.3-4c3.7-1.3,5.4,0.9,4.6,4.1c-0.6,2.3-0.6,4.8-0.8,7.2c-0.2,2.2-0.2,4.5,2.2,5.7c2.4,1.2,5.1,1.6,7.4,0.2
	c2-1.2,3.6-3.1,5.4-4.7c4.2,1.6,7.2,6.6,6.7,11.5c-0.2,2.4-0.7,4.8-0.9,7.2c-0.4,4.3,0.8,7.9,4.5,10.6c3,2.2,5.8,1.4,8.7,0.2
	c5.5-2.5,9.9-6.5,14.4-10.3c4.2-3.5,8.4-7,12.8-10.3c1.3-1,3.3-1.1,5-1.8c1.9-0.7,3.9-1.3,5.5-2.5c2.7-2,5-4.4,7.5-6.6
	c1.4-1.2,2.8-2.4,4.3-3.3c2.3-1.3,4.6,0,6.9,0.4 M600.2,308.4c-1.7,3.1-4.6,5.2-7.5,6.6c-9.1,4.5-16.5,11.2-24,17.9
	c-6.9,6.2-14,12.3-20.9,18.5c-5.6,5.1-12.4,7.1-19.7,7.9c-5.6,0.7-11.3,1.5-16.1,4.8c-2.3,1.6-4.5,3.5-6.5,5.5
	c-4.1,4.2-9.2,6.1-14.9,6.4c-3,0.2-5.9,0.3-8.9,0.5c-3,0.2-5.8,1.1-8.4,2.8c-6.8,4.6-14.4,7.2-22.3,9.1c-4,1-8,2-12,3.1
	c-7.6,2.1-13.5,6.8-18.2,13c-4.9,6.4-9.7,13-14.7,19.4c-4.8,6.1-11.1,10.3-18.4,13.1c-4.2,1.6-8.2,3.6-12,6
	c-3.4,2.1-4.6,5.7-3.9,9.8c0.7,4.2,1.7,8.3,1.8,12.5c0.1,6.2-1.4,12-4.4,17.5c-2.8,5.1-6.2,9.7-10.4,13.6c-5.3,5-10.7,9.8-16,14.7
	c-6.9,6.3-10.5,14.2-11.1,23.5c-0.6,9.3,1.2,18.3,2.6,27.4c1,6.7,2,13.4,2.3,20.2c0.3,6.1-0.2,12.3-0.4,18.5 M600.2,324.7
	c-1.3,2.4-3.9,3-6,4.3c-10.6,6.2-21,12.7-30,21.2c-3.4,3.2-6.8,6.6-10.6,9.3c-6.7,4.8-14.4,7.4-22,10.4c-6.2,2.4-12.6,4.5-18,8.6
	c-2.1,1.6-4.1,3.2-6.2,4.8c-6.1,4.5-13.3,6.3-20.4,8.2c-4.5,1.2-9,2.4-13.4,3.9c-2.7,0.9-5,2.8-7.7,3.7c-6.3,2.1-12.7,3.8-18.9,5.9
	c-4.6,1.5-9.5,2.5-13.2,5.8c-2.4,2.1-4.4,4.8-6.3,7.4c-2.9,4.1-5.6,8.2-8.2,12.5c-4.8,7.9-10.9,14.4-18.8,19.1
	c-7.2,4.3-10.9,10.5-11.9,18.6c-1.3,10.1-5.8,18.8-12.1,26.6c-4.6,5.6-9.8,10.7-14.8,15.9c-6.5,6.7-10.4,14.6-12,23.8
	c-1.4,7.8-0.6,15.5-0.2,23.3c0.1,2.2,0.4,4.3,0.5,6.5c0.3,10.7,0.6,21.4,1,32.2c0,1.4,0.3,2.9,0.5,4.3 M593.8,600.7
	c-0.9-9.3-1.7-18.6-2.6-27.8c-1-10.1-3.2-20-5.8-29.8c-1.5-5.7-3.3-11.3-6.3-16.3c-3.7-6-9-10.5-16-12.2c-5.4-1.3-10.5-0.1-14.3,4.1
	c-3.5,3.9-6.4,8.3-9.7,12.4c-2.7,3.4-5.4,6.7-8.4,9.8c-2.5,2.5-5.6,3.8-9.3,3.7c-2.2-0.1-4.3,0.1-6.5,0.2c-3.9,0.2-7.2,1.8-9.8,4.6
	c-3.9,4.1-8,8.1-13.4,10.3c-1.8,0.7-3.5,1.6-5.3,2.4c-7.1,3-12.3,8.1-17.1,13.9c-2.4,2.8-5.4,5.2-8.4,7.5
	c-4.9,3.8-10.4,3.3-15.5,0.9c-3.9-1.8-7.4-4.5-10.2-8c-2.1-2.7-2.4-5.7-1.9-8.9c0.6-3.5-0.1-4.2-3.6-4.6c-1.4-0.1-2.7-0.2-4.1-0.2
	c-3.3-0.1-6.8-1.6-7.7-6.2c-0.3-1.8-0.6-3.5-1-5.3c-0.5-2.9-1.8-4.5-4.6-4.5c-9-0.1-18.1-0.4-27.1,0.1c-6.1,0.3-9.2,4.1-9.1,10.5
	c0.1,7.1,0.7,14.2,0.6,21.4c-0.1,6.7,1.2,13.1,3.2,19.4c0.3,0.9,0.5,1.9,0.7,2.9 M600,343.9c-1.4,1-2.9,1.9-4.3,2.9
	c-5.8,4.2-11.6,8.4-17.3,12.7c-10.6,8-22.1,14.5-33.4,21.3c-10.1,6.2-20.3,12.3-30.5,18.2c-6.3,3.7-13.1,6.3-20.1,8.2
	c-11.2,3-22.4,5.7-33.6,8.7c-3.3,0.9-6.5,2-9.6,3.4c-6,2.6-9.9,7.2-11.8,13.4c-2.8,9.2-8,16.6-15.6,22.6
	c-5.6,4.4-10.8,9.3-16.1,14.1c-5.2,4.6-9,10.4-11.9,16.6c-6.3,13.4-14.3,25.6-24.3,36.5c-2.5,2.8-4.7,5.9-6.2,9.5
	c-1.3,3.4-0.9,6.7-1.1,10.1c-0.2,5.1-0.4,10.2-0.5,15.4c-0.1,6.6-0.5,13.2,0.1,19.7c0.7,7.9,2.4,15.7,3.7,23.5 M70.8,600.5
	c3.8-4,4.9-8.9,5-14.2c0.2-5.8,0.2-11.7,0.3-17.5c0-4.2,2.3-7.7,4.4-11c5.5-8.7,11-17.4,16.8-25.9c4.4-6.4,6.2-13.5,6.4-21.2
	c0.2-7.2,0.2-14.5,3.7-21.1c2.5-4.7,5.3-9.1,7.9-13.7c1.5-2.7,3.1-5.5,4-8.4c2-6.6-0.7-11.7-5.6-16.1c-5.6-5-10.4-4.1-12.7,3.7
	c-1.7,5.9-3.1,11.9-4.1,18c-1.3,7.9-3.8,15-10.1,20.4c-4.3,3.7-8.1,8-11.1,12.9c-3.2,5.3-4,11.4-5.3,17.3
	c-1.6,7.4-3.5,14.6-6.5,21.6c-5.4,13-13.4,24.4-21.1,36c-3,4.6-5.7,9.3-7.2,14.6c-0.4,1.5-0.5,3.2-0.8,4.8 M570,600.7
	c0.3-5.4,1.1-10.9,0.9-16.3c-0.4-9.9-1-19.9-3.7-29.5c-0.9-3.2-2-6.3-4.1-8.9c-3.2-4.1-6.5-4.1-10.8-1.6c-1.7,1-3.3,2.5-4.8,3.8
	c-3.7,3.2-7.2,6.8-11.1,9.8c-5.2,3.9-11.5,5.4-17.9,5.6c-8.6,0.3-15.6,4.1-21.6,9.9c-5.6,5.4-11.2,10.9-16.8,16.3
	c-4.1,4-8.8,7.2-14.4,8.9c-4.5,1.3-9.1,1.1-13.7,0.9c-6-0.2-12-0.9-17.5-3.5c-4.6-2.2-8.2-5.3-10.3-9.9c-3.7-8-9-14.7-15.9-20.1
	c-2.1-1.6-4.3-3-6.7-4.1c-3.9-1.7-7.4,1-7.6,5.9c-0.4,7.1-0.9,14.2-0.9,21.4c0,3.8,0.9,7.5,1.4,11.3 M290.6,600.7
	c1.4-5.7,3.2-11.3,4.2-17.1c1.2-6.7,1.9-13.6,2.4-20.4c0.5-6.5,0.5-13.1,0.5-19.7c0-2.1-0.5-4.3-1.2-6.2c-1.4-3.8-4.7-4.9-7.9-1.2
	c-3.2,3.7-5,8-6.7,12.5c-2.7,7.3-5.3,14.6-9.1,21.4c-4.2,7.6-9.4,14.3-17.1,18.6c-4.3,2.4-9.1,3.9-14.1,3.8
	c-7.7-0.1-15.4-0.4-23-0.9c-7.5-0.5-14.4-3.4-21.4-6.1c-11.2-4.2-20.6-11.4-30.7-17.6c-2.7-1.6-5.6-3.1-8.9-1.7
	c-1.2,0.5-2.4,1.1-3.3,1.9c-3.8,3.1-7.5,6.4-11.3,9.6c-5.9,4.9-9.3,11.1-9.1,19c0,1.4-0.1,2.7-0.2,4.1 M0.7,494.1
	c1.2,3.4,2.8,6.8,3.5,10.3c1.1,5.7,2,11.5,2.4,17.3c0.5,6.9,0.5,13.8,0.8,20.6c0.1,1.5,0.5,2.9,0.9,4.3c1,3.3,3.1,4.1,5.9,2.3
	c2.7-1.7,5.2-3.7,7.4-6c3.8-3.8,7.6-7.6,11-11.8c5-6.1,7.2-13.4,6.9-21.1c-0.5-12.3,3.8-22.6,11.4-32c4.5-5.6,8.3-11.8,13.7-16.8
	c0.9-0.8,1.9-1.6,2.9-2.4c2.3-2.1,4.3-4.4,5.1-7.7c1-4,2.5-7.8,3.5-11.8c0.7-2.9-0.9-4.5-4-4.6c-4.3-0.1-8.4,1.3-12.5,2.4
	c-5.6,1.6-11.2,3.5-16.8,5.3c-4.7,1.5-9.5,1.7-14.4,1.9c-4.6,0.2-9.1,0.1-13.7,0.5c-5.5,0.5-8.9,4-10.8,9.1
	c-1.7,4.4-2.9,8.8-3.3,13.4 M122.6,1.2c-0.2,0.7-0.4,1.4-0.5,2.2c-1.3,10.1-4.3,19.6-9.2,28.5c-4.5,8.3-9.3,16.4-13.8,24.8
	c-1.6,3-2.9,6.3-4.1,9.6c-0.7,1.9,0.2,3.2,2.1,3.3c2.9,0.2,5.9,0.3,8.4-1.4c4.3-3.1,8.7-6.1,12.7-9.6c7.3-6.3,14.4-12.8,21.4-19.4
	c7.3-6.8,15.6-10.5,25.7-9.8c5.3,0.3,10.6,0.1,15.8,0.6c7.5,0.8,15.1,1.9,22.6,3.1c5.3,0.8,10.6,2.4,16.1,1.9
	c6.3-0.6,12.7-1.3,19-2.4c12.1-2,24.2-3.3,36.5-2.6c3,0.2,6.1,0.2,9.1,0.2c3.8,0,4.2-0.4,5.1-4.1c0.8-3.3,1.8-6.5,3.1-9.6
	c1.6-3.9,3.6-7.7,5.5-11.5c0.7-1.4,0.4-3.3,2.1-4.1 M1.2,196.1c1.2-0.6,2.5-1.2,3.6-1.9c8.9-5.9,15.8-13.7,22.3-22.1
	c4.5-5.7,8.5-11.8,13.6-16.9c4.4-4.5,9.7-8,14.8-11.9c3.8-2.9,7.1-6.1,9.6-10.1c3.1-4.9,3.7-10.6,4.8-16.1
	c2.2-11.4,4.1-22.9,6.3-34.3c1.1-5.7,3-11.1,6.5-15.8c3.4-4.7,7.2-9.2,10.5-14c3.6-5.2,7.2-10.4,9.1-16.5c0.7-2.2,0.7-4.6,1.5-6.7
	c1.9-4.7,4.2-9.3,6.2-14c2.1-4.9,4.4-9.7,4.8-15.1 M133.7,1.7c-0.5,3.4-0.9,6.9-1.4,10.3c-0.5,3.1-1.1,6.2-1.4,9.4
	c-0.3,2.5,0.9,3.3,3.8,3.2c3.5-0.1,6-2.3,8.6-4c3.8-2.4,8-3.4,12.3-3c10.3,1.1,20.6,2.7,31,4c9.3,1.1,18.7,2.6,28.1,3
	c8.1,0.3,16.2-0.8,24.2-1.3c11.5-0.6,23-1.1,34.6-1.7c1.6-0.1,3.3-0.4,4.8-1c4.9-1.7,6.9-6.1,8.9-10.3c1.3-2.8,2.3-5.8,3.4-8.7
	 M1,179.7c0.5-0.5,0.9-1,1.4-1.4c2.7-1.9,5.7-3.6,8.1-5.8c11.4-10.7,23.2-21,33.1-33.1c5.7-6.9,10.6-14.3,12.8-23.2
	c1.7-6.7,3.6-13.4,5.2-20.2c1.8-7.6,3.2-15.4,4.9-23c1.5-7,3.4-13.7,8.8-19c4.6-4.5,8.8-9.4,13.3-14.1c1.5-1.5,2.4-3.2,3.2-5.3
	c1.7-4.7,3.3-9.5,5.5-13.9c3.1-6.1,5.8-12.2,6.7-19c0-0.4,0.6-0.6,0.9-1 M0.7,554.6c0.2,3.3,0.9,6.5,2.6,9.4
	c2.3,3.9,3.9,5.6,9.1,2.9c9.2-4.7,17.7-10.5,24.2-18.7c4.1-5.2,7.3-10.9,7.9-17.7c0.4-4,0.5-8,1-12c0.8-7.3,3.2-14.1,6.4-20.6
	c4.9-9.8,10.3-19.2,19.7-25.4c3-2,4.7-4.8,5.8-8.2c2.2-7.2,4.4-14.4,6.7-21.6c1.6-5.1,3.5-10.1,3.6-15.6c0-4.8-1.8-6.4-6.4-5.2
	c-3.5,0.9-6.8,2.4-10.1,3.8c-9.1,3.8-18.6,5.9-28.3,6.6c-7.8,0.5-15.7,0.4-23.5,0.6c-6.6,0.1-12.7,1.8-18.2,5.3 M85.7,0.7
	c-0.3,0.2-0.8,0.2-0.9,0.5C79,11.6,69.2,16.1,58.3,18.7c-2.6,0.6-5.3,1-7.9,0.9c-6.2-0.2-10,2.7-11.7,9.7c-0.7,2.8-0.9,5.7-1,8.6
	c-0.1,6.3,0.1,12.6-0.1,19c-0.2,7.5-1.6,14.7-4.7,21.6c-7.3,16.1-14.3,32.4-21.7,48.5c-3,6.5-5.3,13.4-10,19
	c-0.3,0.4-0.3,1.1-0.5,1.7 M1,160.1c0.6-0.8,1-1.7,1.7-2.4c3-3.3,7-6.1,8.9-9.9c4.5-8.9,10.6-16.6,17-24.1
	c7.8-9.1,13.9-19,17.4-30.7c2.9-9.8,6.5-19.4,10.5-28.8c4-9.5,9.8-17.8,18.3-24.1c5.9-4.3,10.4-9.9,12.8-17
	c1.6-4.6,3.5-9.1,5.2-13.7c0.9-2.3,1.6-4.7,2.4-6.9c0.2-0.6,0.9-1,1.4-1.5 M143.3,0.9c-1,1.7-2.1,3.3-2.8,5.1
	c-0.8,1.9,0.2,3,2.6,3.3c1.3,0.2,2.7,0.3,4.1,0.2c13.7-0.3,27.3,1.2,40.8,3.6c7.5,1.3,15,2.6,22.6,3.3c5.5,0.5,11,0.2,16.5,0.1
	c5.4-0.2,10.7-0.5,16.1-0.9c10.5-0.9,21.1-1.6,31.2-5.3c2.7-1,4.7-2.9,6.2-5.3c0.8-1.2,1.3-2.5,1.9-3.8 M600.2,216
	c-4.4-0.1-8.2,2.1-12.2,3.4c-6.5,2.1-12.9,4.5-19.5,6.4c-3.9,1.1-8.1,1.3-12.2,2c-1.3,0.2-2.7,0.4-3.8,1c-2.7,1.3-4.6,2.6-3.3,7.4
	c1.4,5.6,2.9,11.2,5.1,16.5c3.2,7.9,5.1,16.2,7.6,24.3c2.2,7.2,7.2,7.6,12.7,4.4c3.4-2,6.4-4.8,9.1-7.6c4.3-4.6,8.7-9.3,11.5-15.1
	c2.3-4.8,4.8-9.6,5.1-15.1 M599.8,370.8c-4.7,0.2-8.9,2-12.7,4.6c-3.9,2.6-7.4,5.7-11.3,8.3c-6.9,4.6-14,8.8-20.8,13.5
	c-4.1,2.8-7.8,6.3-11.5,9.6c-1.9,1.7-3.8,3.8-3,6.4c0.8,2.9,3.7,3.6,6.4,4.1c8.8,1.8,17.3,1,25.7-1.9c10.6-3.6,19.4-9.7,26.4-18.5
	c0.7-0.9,1-2.1,1.5-3.1 M600.2,438.7c-3.6,3.2-5.3,7.1-5.3,12c-0.1,5.8-3.5,10.2-7.1,14.4c-3.2,3.7-6.7,7.2-9.5,11.1
	c-3.4,4.6-1.2,7.2,2.6,8.8c1.3,0.6,2.6,1.2,3.8,1.9c5.1,2.9,6.5,5.3,5.3,12c-0.4,2.2-0.3,4.5-0.2,6.7c0,1,0.5,2.2,1.2,2.8
	c3.1,3,3.9,6.9,4.5,10.9c1.4,9.8,2.6,19.7,3.9,29.5c0.4,3.2,1,6.4,1.4,9.6 M1,109.7c1.3-2.8,2.5-5.6,3.9-8.4
	c3.1-6.3,6.5-12.5,9.3-19c3.2-7.6,3.6-15.6,2.2-23.7c-1.4-8-2.8-16-3.8-24c-0.7-5.8-0.3-11.5,2-17.1c2.2-5.4,3.8-11.2,5.6-16.8
	 M0.7,411.6c2.1-3.7,4.4-7.4,5.8-11.5c2.9-8.5,6.1-16.9,7.9-25.7c1.6-7.9-4.2-14-12.2-12.9c-0.5,0.1-1.4,0.9-1.4,1.4
	c-0.1,2.5-0.1,5-0.1,7c2.1,0.9,4.1,1.2,5.4,2.4c0.9,0.8,1.2,2.8,1.2,4.2c0,1.9-0.3,4-0.9,5.7c-1.2,3.2-2.8,6.3-4.3,9.4
	c-0.5,1-1,2.1-1.4,3.1 M218.6,600.7c-3.4,0.2-6.3-1.6-9.3-2.7c-8.3-3.1-16.3-7-24.8-9.6c-6.3-1.9-11.6-5-16.6-9.2
	c-1.8-1.5-4.3-2.5-6.7-2.9c-4.7-0.7-7.3,2.7-9.3,6.2c-2,3.5-3.5,7.4-5.4,11c-1.3,2.5-2.9,4.8-4.3,7.2 M600,361.2
	c-0.2,0.2-0.4,0.6-0.7,0.7c-8.4,2.5-15.3,7.5-22,12.8c-7.4,5.9-15.4,10.7-23.3,15.8c-8.2,5.2-16.4,10.3-23.7,16.6
	c-1.7,1.4-2.9,3.4-4.1,5.3c-1.2,1.9-0.7,3.9,1.2,5c5.1,3.1,10.1,6.4,15.4,9.1c6.3,3.3,13.2,3.4,19.9,1.2c5.3-1.7,10.4-3.9,15.6-6
	c5.9-2.3,11.7-4.7,17.5-7.2c1.9-0.8,3.8-1.6,4.6-3.8 M548.2,600.7c0.2-6.5,0.5-13,0.7-19.4c0-1.4-0.2-3-0.7-4.3
	c-1.6-4.1-5.9-5.7-10.7-4.1c-4.9,1.7-9.2,4.3-13,7.9c-5.7,5.3-9.9,11.7-14.6,17.8c-0.6,0.8-1.4,1.5-2.1,2.2 M282.7,600.7
	c2.2-6.1,2.8-12.5,3.1-19c0.2-3.1,0-6.2,0-9.4c0-0.8-0.2-1.6-0.3-2.4c-0.2-0.1-0.4-0.2-0.5-0.3c-1,1.3-2.1,2.5-3,3.9
	c-3.6,5.3-7.2,10.7-10.8,16.1c-3.3,5-8.1,8.3-13.5,10.8c-0.8,0.3-1.7,0.2-2.6,0.3 M0.7,260.9c1.7-4.2,3.4-8.4,5-12.7
	c2.9-7.8,5.1-15.9,5.9-24.2c0.3-2.9,0.2-6-0.5-8.8c-0.8-3.5-3.7-6.2-10-6 M215.3,0.7c1.6,0.3,3.2,0.6,4.8,1
	c6.6,1.5,13.1,2.2,19.9,1.8c6.1-0.4,12-1.7,18-2.8 M34.8,1.2c1.2,4.3,3,6,7,6.2c3.1,0.2,6.2,0.4,9.4,0.2c5.5-0.2,11-0.9,15.8-4
	c1.4-0.9,2.9-1.9,4.3-2.9 M0.7,245.5c0.2-1.4,0.3-3,0.8-4.3c2.4-6.6,2.6-13.5,3-20.4c0.2-2.9-0.9-4-3.8-4.8 M600.2,465.8
	c0.1,3.7-1.2,7.2-3,10.3c-2.6,4.3-1.6,8.1,0.3,12.1c1.1,2.4,1.8,4.9,2.7,7.4 M1,344.4c0,5.6,0,11.2,0,16.8 M180,227.3
	c-1.8,1-3.7,2-5.5,2.9c-4.3,2.1-8.7,4.1-12.9,6.3c-4,2.1-8,4.5-10.8,8.2c-3.4,4.4-7.7,6.5-13.2,6.2c-3.4-0.1-6.1,1.4-8.4,3.8
	c-1.4,1.5-2.9,2.9-4.1,4.6c-3.5,5-8.4,6.9-14.2,6.9c-6.7,0.1-13.3,1.3-19.4,3.9c-6.2,2.7-9.9,7.9-11.5,14.3
	c-1.4,5.5-2.3,11.2-3.4,16.8c-1.4,7.3-2.7,14.6-4.1,21.8c-0.9,4.7-2,9.5-3.1,14.2c-1.3,5.4,0.1,7.7,4.4,10
	c6.2,3.3,12.8,5.5,19.9,5.3c5.4-0.2,10.6-1.7,15.6-3.8c6-2.6,12.2-4.9,18-8c6.1-3.2,10.6-8.3,14.7-13.8c7.4-9.9,12.1-21,15.7-32.7
	c2.2-7.2,7.2-10.9,14-12.7c4.8-1.2,9.7-2,14.4-3.4c8.2-2.5,13.3-8.4,16.4-16.3c1.9-4.9,2.6-9.8,1.4-14.9c-1.5-5.9-4.9-10.6-10-13.9
	c-3.3-2.2-6.6-4.5-10.6-5.3c-1-0.2-1.9-0.3-2.9-0.5 M351.4,354.5c-2,2.3-2,8.8,0,10.8c0.2,0.2,0.5,0.3,0.7,0.5
	c1.4,0.8,3.1,0.1,4.6-1.9c1.8-2.6,2-3.8,0.5-5c-1.8-1.5-3.7-2.9-5.5-4.3 M595,220.3c-8.2,3.3-16.2,6.8-24.5,9.7
	c-3.4,1.2-7.2,1.5-10.8,2c-3.7,0.5-5,2-4.3,5.5c0.6,3.2,1.7,6.2,2.6,9.4c1.6,5.9,3.1,11.9,4.8,17.7c0.7,2.4,1.8,4.7,2.8,7
	c1,2.2,3.6,3.2,6.2,1.6c3.3-2.1,6.4-4.6,9.1-7.4c3.7-3.8,6.9-8.1,9.5-12.9c3.1-5.8,5.2-11.9,6.4-18.3c0.6-3.2,1-6.4,1.4-9.6
	c0.4-3.3-0.5-4.6-3.1-4.8 M183.8,219.8c-11.3,2.4-21.5,7.4-31,13.9c-3.6,2.5-7.1,5.1-10.8,7.4c-3.2,1.9-6.8,2.6-10.5,2.4
	c-6-0.4-9.9,2.3-12.8,7.4c-2.8,4.9-4,4.7-8.1,3.6c-7.4-2-13.9,0-19.9,4.3c-8,5.7-14.6,12.5-18.9,21.4c-2.5,5.3-3.9,10.9-3.9,16.8
	c0.1,7.9-2.1,15.3-6,22.1c-3.5,6.1-7.5,11.9-10.9,18.1c-1.5,2.6-2.5,5.6-3.1,8.6c-0.5,2.7,0.7,5.2,3.5,6.2c3.4,1.2,6.9,2.2,10.3,3.2
	c2.1,0.6,4.4,0.9,6.4,1.8c1.8,0.8,4.1,1.8,4.9,3.4c2.2,4.3,5.9,4.6,9.7,4.7c6.4,0.1,12.7-1.3,19-2.8c8.5-2.1,16.6-5.1,24.4-8.7
	c7.1-3.3,13.1-8.5,18.5-14.1c5.1-5.3,9.7-10.9,13.4-17.3c3-5,5.8-10.1,5.9-16.3c0-1.6,1.1-3.4,2.1-4.8c2.8-3.6,7-4.9,11-6.8
	c4.9-2.3,9.8-4.6,14.4-7.5c2.9-1.8,5.4-4.5,7.7-7.1c3.1-3.5,5.8-7.3,8.7-11c4.5-5.8,5-12.6,3.7-19.2c-2.5-12.1-9.3-21.5-20.3-27.6
	c-2.1-1.2-4.8-1.4-7.2-2 M265.4,387.1c-6.1,1.2-12.3,1.8-18.5,1.4c-5.5-0.3-10.2,0.9-14.2,5c-6.6,6.7-14.2,12.6-19.6,20.5
	c-0.8,1.1-1.5,2.3-2.2,3.6c-1.7,3.4-0.5,5.7,3.3,6c6.7,0.4,13.2-0.7,18.9-4.3c3.6-2.2,6.9-5.1,10.6-7.1c4.7-2.4,9.7-4.2,14.6-6.3
	c3.9-1.7,7.8-3.5,10.8-6.7c1.8-2,2.8-4.4,2.6-7.2c-0.3-3.6-1.9-4.8-6.2-4.8 M185,211.7c-9.3,0.9-17.9,4.2-25.9,8.9
	c-2.1,1.2-4.2,2.5-6,4.1c-5.6,4.8-12.4,6.7-19.5,7.9c-4.8,0.8-10.1,1.3-13.8,4.6c-5.6,4.9-12.3,6.7-19.1,8.5
	c-7.6,2-14.2,5.7-20.2,10.8c-2,1.7-3.9,3.6-6,5c-3.8,2.6-5.6,6.2-6.5,10.6c-1.2,6-2.7,12-4,18c-1.5,6.9-2.8,13.9-4.4,20.9
	c-1.4,6.2-4.7,11.2-9.7,15.2c-5.7,4.5-11.1,9.4-16.3,14.4c-3,2.9-5.4,6.3-6.1,10.7c-0.6,3.5,0.6,6.4,2.7,8.9
	c1.6,1.9,3.5,3.5,5.5,5.1c7,5.6,10.4,12.9,10.3,21.9c0,3.2-0.2,6.4,0,9.6c0.4,4.6,2.1,6.4,6.7,7.2c2.7,0.4,5.5,0.7,8.1,0.5
	c9.8-1,19-3.7,27.1-9.6c4.9-3.6,9.5-7.5,14.4-11c9-6.5,18.1-12.7,27.1-19.3c8.4-6.1,16.3-12.8,22-21.6c4.8-7.4,8.8-15.3,13.3-23
	c2.4-4.1,4.4-8.6,8.2-11.7c2.8-2.3,5.9-4.2,9.1-6c12.2-6.9,23.4-15,33.1-25.2c3.9-4.1,7.2-8.7,9.6-13.9c3-6.4,2.1-12.6-0.7-18.7
	c-3.6-7.7-8.9-14-15.1-19.7c-4.6-4.2-9.3-8-14.9-10.9c-2.9-1.5-5.7-2.3-8.9-2.1 M192.7,194.4c-8.7,0.6-16.3,4.4-24,8
	c-10.5,4.8-21.1,9.7-31.4,14.9c-6.5,3.2-12.6,7.2-19,10.4c-5.5,2.8-11.5,4.9-17,7.8c-5.4,2.8-10.6,6.2-15.9,9.3
	c-2.9,1.7-5.8,3.3-8.6,5.1c-5.7,3.5-9.1,8.9-10.7,15.1c-2.5,9.2-4.4,18.6-6.8,27.8c-2.7,10.5-7.4,19.9-15.1,27.6
	c-6.6,6.7-13.5,13-20.1,19.8c-2.2,2.3-4.1,5-5.5,7.9c-2,4.2-0.1,8.3,1.4,12.2c1.1,3,2.6,5.9,3.8,8.9c2.7,6.8,2,13.3-0.8,20
	c-2.9,6.8-5.3,14-5.4,21.6c-0.1,6.5,3.1,11.3,8.6,12.4c3.8,0.7,7.9,0.7,11.7,0.3c12.1-1.3,23.6-5.1,34.8-9.8
	c12.7-5.3,24.9-11.4,36-19.7c8.7-6.5,17.4-13.1,25.9-19.9c5.1-4.1,9.9-8.6,14.9-12.9c7.6-6.5,13.3-14.7,19.2-22.6
	c10.9-14.6,24.5-26,40.1-35.3c6.6-3.9,13.5-7.4,19.5-12.5c6.9-5.9,12.8-12.5,14.5-21.6c1-5.4,1-11,1-16.5c0-6.4-0.8-12.8-2.6-19
	c-3.1-10.8-8.5-20.2-18.2-26.4c-4.5-2.8-8.9-5.8-13.5-8.4c-5.1-2.9-10.6-4.4-16.5-4.4 M330.2,138c-9.4,1.1-16.3,7.1-23.5,12.5
	c-2.8,2.1-5.7,4.1-8.7,6c-1,0.7-2.3,1-3.6,1.2c-4.2,0.6-7.1,4.6-6.2,8.7c0.8,3.7,3.3,5.7,7.2,5.8c6.8,0.1,12.7-2.4,18.5-5.6
	c9.3-5.1,16-12.9,21.1-22.1c0.4-0.7,0.7-1.6,1-2.4c0.8-2.3-0.4-4-2.9-4.1c-0.9,0-1.8,0-2.6,0 M333.6,128.6c-7,1.1-12.8,4.9-18.7,8.4
	c-3.6,2.2-7.2,4.3-10.8,6.5c-4.1,2.5-8.6,2.6-13.2,2.4c-7.7-0.4-15.3-0.9-23-0.3c-9.3,0.8-18.3,2.3-27.3,4.4c-2.4,0.6-4.7,1.7-7,2.6
	c-0.7,0.3-1.4,0.7-2.1,1.1c2.6,3.8,6,4.6,9,5.9c6.4,2.8,12.8,5.7,19.2,8.6c5.2,2.4,9.3,6,12.3,11c2.8,4.8,5.9,9.3,10.1,13
	c3.3,2.9,7.2,4,11.3,2.6c9.3-3.2,18.6-6.8,25.7-14.1c2.1-2.2,4.2-4.5,5.5-7.2c2.9-6,7-10.9,11.4-15.8c4.3-4.8,6.6-10.5,8.1-16.6
	c1.8-7.5-2.3-12.5-10-12.5 M501.1,436.5c-5.8,0.8-10.4,4.3-15.1,7.4c-4.1,2.7-8.1,5.5-12.2,8.2c-4.5,2.9-7.6,7-10.3,11.5
	c-4,6.8-8,13.6-12,20.4c-2.8,4.8-7.1,7.5-12.5,8.7c-6.6,1.4-13,3.4-18.5,7.6c-6.2,4.8-11.5,10.2-15.3,17.1c-1.9,3.4-0.8,5.3,3.1,5
	c5.4-0.5,10.7-1.4,16.1-2.1c1.7-0.2,3.4-0.3,5-0.2c2.5,0.2,3.3,1.2,3.4,3.8c0.1,2.2,0.1,4.5,0.5,6.7c0.5,2.8,2.1,3.9,4.7,3.8
	c2.2-0.1,4.5-0.3,6.7-0.7c3.3-0.6,4.5,0.2,5.7,3.2c1,2.7,1.3,5.6,2,8.4c0.8,3.4,1.5,6.8,2.7,10.1c1,2.7,4,3.7,6.4,2.2
	c7.6-4.7,15.2-9.4,22.5-14.5c2.5-1.7,4.6-4.1,6.2-6.7c3.9-6.3,9.8-8.3,16.6-8.1c6.3,0.2,11.3-2.1,15.1-7c1.5-2,3-3.9,4.3-6
	c3-4.6,6.6-8.8,10.6-12.7c3.6-3.6,8-5.1,13-5.3c2.3-0.1,4.7-0.4,6.9-1c4.2-1.1,5.6-4.6,3.1-8.1c-1.7-2.4-3.7-4.6-6-6.5
	c-4.8-3.9-6.4-8.8-5.9-14.7c0.1-1.2,0.8-2.6,1.7-3.6c2.2-2.3,4.6-4.3,6.9-6.5c1-1,2.1-1.8,1.5-3.6c-0.6-1.8-1.9-2.5-3.6-2.9
	c-3.6-0.7-7.1,0.5-10.6,1.2c-3.9,0.7-7.8,1.4-11.8,1.7c-7.6,0.6-13.3-3.2-18-8.8c-0.8-1-1.7-2-2.4-3.1c-2.5-3.6-6-5.2-10.3-4.8
	 M449.8,286.3c-3.8,0.5-7.6,1.1-11,2.9c-5.2,2.6-6.2,7.3-3.1,12c3,4.7,6.4,9,11.3,12c5.9,3.6,12.2,4,18.7,2.3
	c6.1-1.6,12.1-3.7,17.5-7.1c5.5-3.5,5.5-6.6-0.3-9.6c-3.5-1.8-7.4-3-11-4.6c-3.8-1.6-7.6-3.2-11.3-5.1c-3.4-1.7-6.8-2.7-10.6-2.8
	 M586.3,230.1c-3,1.3-5.9,2.8-8.9,3.8c-3.2,1.1-6.5,1.7-9.8,2.4c-3.4,0.8-5.2,2.9-4.2,6c1.7,5.2,3.7,10.4,6,15.4
	c1.7,3.6,4.2,4.7,8.3,1.6c7.7-5.8,11.9-13.9,13.2-23.5c0.2-1.2,0.1-2.4-0.2-3.6c-0.5-2-2.2-2.4-4-2.2 M448.8,55.9
	c-3,0.7-3.8,3.5-5,5.8c-1.3,2.5-2,5.2-2.9,7.9c-2,5.8-5.6,10.6-10.1,14.6c-5.2,4.5-10.8,8.4-16.3,12.6c-1.2,0.9-2.3,1.8-3.4,2.9
	c-1.8,1.8-1.7,3.4,0.2,4.8c2.2,1.5,4.5,2.8,6.7,4.1c3.6,2.1,7.3,2.1,10.8,0.2c4.6-2.6,9.2-5.4,13.4-8.6c6.6-5,14-8.4,21.6-11.5
	c7.6-3.1,15.2-6,22.8-9.2c1.9-0.8,3.6-2.1,5.3-3.3c2.5-2,2.8-4.9,1.2-7.9c-1.5-2.7-3-3.2-6.7-2.1c-3.3,1-6.5,2.2-9.9,3.1
	c-5.2,1.3-10.1,0.5-14.4-2.9c-3-2.4-5.7-5-8.7-7.4c-1.4-1.1-3-1.9-4.5-2.9 M499.9,446.9c-11.5,3.6-20.9,10-26.9,20.6
	c-3.1,5.6-6,11.2-9.2,16.8c-2.9,5.2-7.4,8.7-12.7,11.3c-3.7,1.8-7.4,3.7-11,5.8c-1.6,0.9-3.2,2-4.3,3.4c-2,2.5-1.7,3,0.2,5.4
	c0.8,0.9,2.1,1.4,3.1,2.2c2.7,2.2,4.7,4.9,5.3,8.4c0.7,4.6,2.1,5.5,7.5,5.7c0.9,0,1.8-0.1,2.6,0c5.2,0.5,6.1,2.5,6.9,7.4
	c0.2,1.4,0.3,2.9,0.5,4.3c0.4,2.4,1.6,3.3,4.1,2.6c4.9-1.3,9.1-4,12.9-7c5.3-4.2,10.5-8.7,15.6-13.2c3.9-3.4,8.2-5.3,13.5-5.3
	c4.8,0,8.7-2.5,12-5.7c3.5-3.5,7.1-7.1,10-11.1c3.2-4.3,7.3-6.2,12.3-6.9c3.7-0.5,5.5-2.5,4.3-6.5c-2.2-7.1-4.5-14.1-7-21.1
	c-0.9-2.5-2.7-4.4-5.5-4.8c-2.4-0.4-4.8-0.8-7.2-0.7c-7.5,0.4-13.7-2.2-18.7-7.7c-2.2-2.4-4.6-4.3-8.1-4.1 M515.5,35.5
	c-2.6,0.8-4.4,2.8-6,4.8c-1.3,1.5-2.5,3.1-3.8,4.6c-1.8,2.1-4.2,3.5-6.7,4.6c-5,2.2-9.8,5.1-14.9,6.5c-5.2,1.4-10.8,1-16.3-0.1
	c-3.3-0.6-5.9-2.8-8.6-4.5c-2.5-1.6-5-3.4-7.7-4.8c-3.4-1.7-7.3-0.8-10.1,1.9c-2.7,2.6-4.6,5.8-5.4,9.4
	c-2.6,10.7-9.6,17.9-17.8,24.5c-7.4,5.9-14.8,11.8-22,17.8c-1.9,1.6-3.6,3.7-5,5.7c-2.6,3.8-2.2,7.1,1.9,9.2
	c7.2,3.8,14.5,7.8,22.5,9.6c5.9,1.3,11.4,0,15.8-4.5c1.9-2,3.9-3.9,6-5.7c3-2.5,6.6-3.9,10.3-4.8c5-1.2,9.9-2.6,14.4-5.3
	c5.3-3,11-5.3,16.2-8.3c2.8-1.6,5.3-4,7.4-6.4c2.9-3.2,6.3-5.1,10.4-5.9c3.8-0.8,7.5-1.7,11.3-2.4c4.8-0.8,7.6-4.3,9.7-8
	c2.6-4.5,4.4-9.5,6.3-14.4c2.8-7.3,2.3-14.3-2.8-20.6c-1.3-1.6-2.5-3.1-4.8-2.9 M50.2,450.9c-7.1,1.2-14.1,3.1-21.4,2.7
	c-3.3-0.2-6.6,0.3-9.8,0.7c-2.7,0.3-4.7,2-5.7,4.3c-4.1,9.8-5,20.1-1.6,30.2c2.1,6.2,5.5,12.1,8.3,18c0.3,0.5,0.8,1,1.2,1.4
	c2.4,2.6,4.4,2.5,5.9-0.7c1.9-3.9,3.4-8.1,4.8-12.2c1.7-4.9,3.1-9.9,4.6-14.9c1.3-4.3,3.6-7.7,7.4-10.4c4.2-2.9,8.1-6.3,12-9.6
	c0.9-0.7,1.5-1.7,2.2-2.6c2.3-3.4,0.6-6.7-3.6-6.9c-1.4-0.1-2.7,0-4.1,0 M360.7,306.7c-2.6,0.8-4.1,2.7-5.3,5
	c-4,7.5-8.9,14.4-14.6,20.7c-5.1,5.6-10.2,11.3-15.6,16.5c-6.4,6.1-13,12-21.3,15.4c-5.7,2.3-11.4,4.3-17.3,6
	c-9.1,2.6-18.4,4.8-27.6,7.3c-7.8,2.1-15.6,4-23.3,6.3c-7.2,2.1-13,5.9-16.4,12.9c-1.8,3.7-4.8,6.5-7.8,9.2
	c-3.7,3.4-7.3,7-10.8,10.6c-0.8,0.8-1.2,1.9-1.7,2.9c-1.7,3.3-1.4,4.6,1.4,6.7c6.8,5.2,14.2,6.6,22.6,4.6c7.3-1.8,14.1-4.6,20.9-7.7
	c6.8-3.1,13.7-6.2,20.7-9.1c2.4-1,5.1-1.5,7.6-1.4c8.3,0.2,15.8-1.6,22.8-6c5.6-3.5,11.9-5.1,18.7-4.9c2.2,0.1,3.9-1.1,5.3-2.9
	c1.3-1.7,2.6-3.5,3.8-5.3c1.3-2,3.1-2.9,5.5-2.9c7.1-0.1,13.5-1.9,18.8-7.1c2.9-2.9,7.1-3.6,10.7-5.1c2.3-1,4.5-2.1,6.7-3.4
	c3.3-1.9,4.3-5,4.3-8.6c0-7.2,0.6-14.3,2.9-21.1c1.9-5.6,4.9-10.2,10.1-13.2c3.8-2.2,6.8-5.4,9.1-9.1c1.9-3,1.7-6.2-0.5-7.6
	c-1.2-0.8-2.7-1.5-4-1.4c-7.1,0.4-13.1-2.5-19.2-5.4c-2-1-3.9-1.9-6.3-1.6 M466.6,229.4c-10.9,1.2-19.6,6.7-27.1,14.2
	c-7.6,7.6-14.6,15.8-22.2,23.4c-3.7,3.8-8.1,6.9-12.2,10.4c-2.6,2.2-5.3,4.4-7.4,7c-3,3.8-2.5,6.1-0.3,9.5c3.8,6,9.3,10.5,14.8,14.9
	c7.5,6.2,16.1,10.6,24.3,15.8c4.6,3,9.3,5.9,13.9,8.9c7.1,4.5,14.5,4.9,22.1,1.4c2.9-1.3,5.7-2.9,8.4-4.6c7.5-4.7,15.9-6.9,24.3-9.3
	c5.7-1.6,11.3-3.2,16.3-6.5c8.3-5.4,11.4-16.5,9.6-24.8c-0.9-4.1-3.5-7.3-6.9-9.7c-4.1-2.9-8.5-5.4-12.7-8.2
	c-5.4-3.6-10.8-7.1-16.1-10.8c-3.1-2.2-4.3-6-5.8-9.3c-2.1-4.9-3.9-10-7-14.4c-3.8-5.4-9.2-8-15.8-7.9 M178.3,488.1
	c-0.6,0.1-1.3,0.1-1.9,0.2c-5.9,1.4-8.5,7.5-5.2,12.9c3.5,5.9,8.6,9.4,15.8,9.1c3.4-0.1,6.9-0.1,10.3-0.5c2.7-0.4,4.7-2.2,5-5
	c0.3-2.6,0.1-5.3,0.1-7.9c0-2.3-1.8-3-3.6-3.3c-4-0.7-7.9-1.8-11.5-3.8c-2.7-1.5-5.6-1.8-8.6-1.7 M455.8,502.5
	c-3.3,0.9-4.7,2.4-4.8,5c-0.2,3.9,2.5,6.2,6.2,5.2c2.8-0.7,5.1-2.3,6.7-4.8c0.9-1.4,0.6-2.7-1-3.8c-2.1-1.4-4.5-1.6-7-1.7
	 M522.7,18.9c-4.7,0.6-8.7,2.7-12.5,5.3c-5,3.4-10.1,6.8-15.4,9.8c-9.1,5.1-18.7,5.4-28.5,2.2c-5.5-1.8-11-3.5-16.6-5
	c-2.4-0.6-5,0.2-6.9,1.9c-3.1,2.8-6.3,5.5-9.1,8.7c-3.2,3.6-4.6,8.2-6.3,12.7c-2.4,6.4-5.5,12.2-11.2,16.4c-3.1,2.3-5.6,5.4-8.2,8.3
	c-4,4.5-8.5,8.4-13.5,11.7c-6.3,4.2-12.6,8.4-17.7,14c-2,2.2-3.8,4.7-5,7.4c-2.2,4.9-0.2,9.4,4.9,13.2c3.3,2.5,7.2,2.9,11.1,3
	c5.9,0.1,10.8,2.2,15.6,5.3c3.8,2.5,8.1,4.3,12.7,4.8c1.7,0.2,3.5,0.3,5-0.3c5.9-2.1,11.8-4.1,17.5-6.8c2.6-1.2,4.9-3.4,6.7-5.7
	c4.6-5.6,10.3-8.5,17.6-8.4c4.9,0.1,9.5-1.7,13.9-3.6c3.9-1.7,7.6-3.9,11.6-5.7c2.6-1.1,3.4-3.6,4.8-5.6c1.3-1.9,2.3-4,3.9-5.7
	c2.6-2.8,6-3.9,9.8-3.9c5.3,0.1,10.4-0.7,15.4-2.8c6.1-2.7,9.2-7.5,9.8-13.9c0.5-5.8,0.9-11.7,1.2-17.5c0.4-9.5,0-18.9-1.7-28.3
	c-0.4-2.1-0.7-4.2-1.5-6.2c-1.9-4.9-2.6-4.8-7.2-5.3 M363.1,314.4c-3.6,0.4-5.5,3.1-7.2,5.8c-1.9,3-3.5,6.1-5.3,9.1
	c-1.2,1.9-2.4,3.8-3.8,5.5c-4.6,5.4-6.5,11.8-6.7,18.7c-0.1,2.9-0.1,5.8,0,8.6c0.3,6.1,4.6,10.3,11.5,10.6c1.9,0.1,3.8-0.1,5.8,0
	c2,0.1,3.3-0.6,4.4-2.4c2.3-4.2,2.9-8.6,2.1-13.2c-1.6-8.4,0.4-15.5,6.7-21.4c4.4-4.1,8.5-8.4,12.7-12.7c0.7-0.7,1-1.9,1.5-2.8
	c-1-0.4-2.1-0.8-3.1-1.2c-0.4-0.1-1-0.1-1.4,0c-4.4,0.4-8.5-0.3-12.3-2.8c-1.3-0.9-3-1.2-4.5-1.7 M180,240.2
	c-4.6,1.2-7.7,4.2-10.1,8.1c-2,3.3-1.8,5.5,1.5,7.4c3.1,1.8,6.4,3.5,10.1,3.8c6.6,0.6,10.4-3.1,10.4-9.1c0-3.8-0.9-6.9-4.1-9.1
	c-2.3-1.5-4.9-1.2-7.4-1.2 M451.4,252.5c-2.9,0.5-5.3,2.1-7.5,4.1c-7.8,6.9-15.7,13.7-23.5,20.7c-3.6,3.3-7,6.8-10.3,10.3
	c-1.1,1.1-1.8,2.6-2.4,4.1c-0.7,1.7,0.2,4.1,1.9,5.3c11.3,7.8,22.6,15.7,34.1,23.2c5.8,3.8,12.2,6.6,19.4,6.3
	c1.4-0.1,2.8-0.3,4.1-0.7c11.1-3.8,22.2-7.4,33.1-11.6c4.9-1.9,9.9-4.3,14-8c3.4-3.1,4.4-5.7,1.7-9.6c-4-6-9.7-9.6-16.1-12.5
	c-7.3-3.4-14.9-6.2-21.1-11.5c-5.1-4.4-9.9-9.1-14.9-13.6c-1.9-1.7-3.8-3.3-6-4.5c-1.9-1-4.1-1.2-6.2-1.8 M129.4,270.2
	c-3.8,0.4-7.7,0.8-11.5,1.2c-5.9,0.6-11.8,1.1-17.8,1.7c-5.9,0.6-9.9,3.9-11.5,9.6c-1.9,7.2-3.7,14.4-5.3,21.6
	c-1.7,7.9-3.4,15.8-4.7,23.8c-0.5,3.2-0.5,6.6,0,9.8c0.8,5.7,5.1,7.9,10.5,8.4c13.5,1.2,24.9-3.8,35.3-11.9
	c6-4.7,11.6-9.8,15.5-16.4c5.4-9.1,9.5-18.9,11-29.5c0.3-2,0.1-4.2-0.2-6.2c-1.1-6.5-6.3-9-11.7-10.7c-3-0.9-6.2-0.9-9.3-1.3
	 M179,235.4c-3.3,1.6-6.6,3.2-9.8,4.8c-1.7,0.8-3.2,1.9-4.8,2.9c-6.1,3.6-6.6,9-3.6,14.6c3.1,5.8,8.6,8.7,14.6,10.8
	c4.5,1.5,9,2.3,13.7,0.5c2.9-1.2,4.7-3.2,5.6-6.2c1.5-5.3,2.3-10.5,1.5-16.1c-1-6.4-7.6-11.2-13.3-11.3c-1.2,0-2.4,0-3.6,0
	 M115.7,277.2c-3.3,0.3-6.6,0.4-9.8,1c-6.8,1.3-11.3,5.2-13,12.2c-2.1,8.4-4.7,16.8-6.6,25.2c-0.9,3.9-0.8,8.1-0.8,12.2
	c0.1,5.2,2.1,6.7,7.1,7.9c9.6,2.2,18.2,0.2,25.7-6.4c7.3-6.4,14-13.5,19.4-21.6c4-6,5.6-12.9,5.9-19.9c0.2-6.6-2.9-9.9-10-10.1
	c-5.9-0.1-11.8-0.3-17.8-0.5 M115,285.6c-7.9,1.1-13.3,5.4-15.5,13c-1.4,4.8-1.7,9.9-0.5,14.8c1,4,3.8,6,7.9,5
	c8.7-2.2,16.8-5.8,22.3-13.4c2.7-3.8,4-8.1,1.7-12.7c-1.9-3.8-5.7-4.9-9.3-6c-2-0.6-4.1-0.5-6.2-0.8 M514.3,466.5
	c-6.7,0.5-10.8,4.7-14.2,10.1c-2.2,3.5-4.3,7-5,11.3c-1.1,6.6,1.9,9.5,8.4,8.4c8.3-1.3,15-5.2,21.2-10.8c6-5.5,3.5-11.8-0.5-15.4
	c-2.7-2.4-5.9-3.8-9.6-3.6"/>
</svg>
