<?xml version="1.0" encoding="UTF-8" standalone="no"?>
<svg
   xmlns:dc="http://purl.org/dc/elements/1.1/"
   xmlns:cc="http://creativecommons.org/ns#"
   xmlns:rdf="http://www.w3.org/1999/02/22-rdf-syntax-ns#"
   xmlns:svg="http://www.w3.org/2000/svg"
   xmlns="http://www.w3.org/2000/svg"
   version="1.1"
   width="464.1"
   height="43.36"
   id="svg3035">
  <defs
     id="defs3037" />
  <metadata
     id="metadata3040">
    <rdf:RDF>
      <cc:Work
         rdf:about="">
        <dc:format>image/svg+xml</dc:format>
        <dc:type
           rdf:resource="http://purl.org/dc/dcmitype/StillImage" />
        <dc:title></dc:title>
      </cc:Work>
    </rdf:RDF>
  </metadata>
  <g
     id="layer1" transform="translate(-143,-510)">
    <path
       d="m 192.35549,517.03239 c -5e-5,0.0616 -0.0616,0.27708 -0.1847,0.64644 -0.0924,0.36942 -0.23091,0.81577 -0.41556,1.33905 -0.15396,0.52333 -0.33866,1.09281 -0.55409,1.70843 -0.18474,0.58491 -0.36944,1.15438 -0.55409,1.70844 -0.15396,0.55412 -0.30787,1.04664 -0.46174,1.47757 -0.12318,0.4002 -0.20013,0.67725 -0.23087,0.83114 -0.12318,0.49254 -0.21552,1.00046 -0.27704,1.52374 -0.0308,0.52333 -0.10779,1.04663 -0.23087,1.56991 -0.33866,1.38525 -0.66188,2.77047 -0.96966,4.15567 -0.27709,1.38524 -0.6157,2.77046 -1.01583,4.15566 -0.0616,0.27706 -0.16935,0.5541 -0.32322,0.83113 -0.15395,0.24628 -0.27708,0.49254 -0.36939,0.73879 -4e-5,0.21549 -0.0154,0.52332 -0.0462,0.92348 -4e-5,0.40018 -0.0308,0.67723 -0.0924,0.83113 -0.15396,0.33862 -0.29248,0.67723 -0.41557,1.01583 -0.12317,0.30784 -0.26169,0.63105 -0.41556,0.96965 -0.21552,0.5541 -0.40022,1.20054 -0.55409,1.93931 -0.12317,0.73879 -0.2463,1.50836 -0.36939,2.3087 -0.0924,0.80036 -0.20013,1.60071 -0.32322,2.40105 -0.0924,0.80035 -0.23091,1.52375 -0.41557,2.17018 l -2.17018,1.56992 c -0.5849,0 -1.16978,0 -1.75461,0 -0.55412,0.0308 -1.13899,0.0462 -1.75461,0.0462 -0.89273,0 -1.75465,-0.077 -2.58575,-0.23087 -0.83116,-0.15391 -1.56994,-0.58487 -2.21635,-1.29287 -0.15394,-0.15391 -0.36942,-0.76957 -0.64644,-1.84696 -0.24629,-1.07739 -0.53872,-2.38565 -0.8773,-3.92479 -0.30786,-1.53913 -0.63108,-3.186 -0.96966,-4.94062 -0.33863,-1.78539 -0.64646,-3.44765 -0.92348,-4.9868 -0.27707,-1.53912 -0.50794,-2.86277 -0.69261,-3.97097 -0.15394,-1.10815 -0.23089,-1.75459 -0.23087,-1.9393 -2e-5,-0.24624 0.0308,-0.52329 0.0923,-0.83114 0.0615,-0.3078 0.1231,-0.58484 0.18469,-0.83113 l -0.18469,0 0,-0.1847 -0.41557,0 c -0.18472,0.18472 -0.36941,0.43099 -0.55409,0.73879 -0.18472,0.30785 -0.30785,0.58489 -0.36939,0.83113 -0.12315,0.36942 -0.2155,0.76959 -0.27704,1.20053 -0.0308,0.43097 -0.0924,0.84654 -0.1847,1.24669 -0.18472,0.9235 -0.4002,1.84698 -0.64643,2.77045 -0.24629,0.89271 -0.50794,1.78541 -0.78496,2.67809 0.0923,0.58489 0.0923,1.12358 0,1.61609 -0.0616,0.49254 -0.16933,0.98506 -0.32322,1.47757 -0.15394,0.49253 -0.32324,0.98506 -0.50792,1.47757 -0.15393,0.46175 -0.29245,0.96966 -0.41556,1.52374 -0.15394,0.70801 -0.26168,1.4314 -0.32322,2.17018 -0.0308,0.70801 -0.0924,1.41601 -0.1847,2.12401 -0.0924,0.67722 -0.18471,1.26209 -0.27704,1.75461 -0.0924,0.49252 -0.24628,0.92348 -0.46174,1.29287 -0.18472,0.36939 -0.47715,0.67722 -0.87731,0.92348 -0.40019,0.24626 -0.93889,0.44635 -1.61609,0.60026 l -2.07783,0.50792 c -0.46175,0 -0.96967,0 -1.52374,0 -0.5541,0.0308 -1.10819,0 -1.66227,-0.0923 -0.5541,-0.0924 -1.0774,-0.24626 -1.56991,-0.46174 -0.46175,-0.21548 -0.84654,-0.55409 -1.15435,-1.01583 -0.0308,-0.0308 -0.0924,-0.1693 -0.1847,-0.41556 -0.0924,-0.27705 -0.18471,-0.55409 -0.27704,-0.83114 -0.0924,-0.30782 -0.18471,-0.60026 -0.27705,-0.8773 -0.0924,-0.27704 -0.15392,-0.46174 -0.1847,-0.55409 -0.1847,-0.5233 -0.38479,-1.03122 -0.60026,-1.52374 -0.21548,-0.49252 -0.40018,-1.00044 -0.55409,-1.52375 -0.1847,-0.70799 -0.29244,-1.44678 -0.32321,-2.21635 -0.0308,-0.80034 -0.16932,-1.53912 -0.41557,-2.21635 -0.1847,-0.46173 -0.38479,-0.93886 -0.60026,-1.4314 -0.21549,-0.49251 -0.40018,-0.98503 -0.55409,-1.47757 -0.15392,-0.52329 -0.24627,-1.07738 -0.27705,-1.66226 0,-0.58486 -0.077,-1.13895 -0.23087,-1.66227 -0.0924,-0.40015 -0.23087,-0.81572 -0.41556,-1.2467 -0.1847,-0.43093 -0.35401,-0.8465 -0.50792,-1.24669 -0.15391,-0.36938 -0.21548,-0.78494 -0.18469,-1.2467 0.0616,-0.46172 0.0154,-0.87729 -0.13852,-1.2467 -0.0924,-0.24624 -0.20009,-0.4925 -0.32322,-0.73879 -0.0924,-0.24624 -0.1847,-0.4925 -0.27705,-0.73878 -0.1847,-0.4925 -0.30783,-1.06198 -0.36939,-1.70844 -0.0616,-0.67719 -0.12313,-1.27745 -0.18469,-1.80079 -0.12314,-0.18467 -0.29244,-0.60023 -0.50792,-1.2467 -0.21548,-0.67719 -0.43096,-1.40058 -0.64644,-2.17018 -0.21548,-0.76953 -0.40017,-1.49292 -0.55408,-2.17017 -0.15392,-0.70797 -0.23087,-1.1851 -0.23087,-1.4314 0,-0.15388 0.0308,-0.35397 0.0923,-0.60026 0.21548,-0.70797 0.60027,-1.1851 1.15436,-1.4314 0.58486,-0.24622 1.20052,-0.44631 1.84696,-0.60026 0.15391,-0.0615 0.30782,-0.1077 0.46174,-0.13852 0.18469,-0.0615 0.3386,-0.0923 0.46174,-0.0924 0.5233,4e-5 1.12356,4e-5 1.80078,0 0.67722,4e-5 1.32365,0.0616 1.93931,0.1847 0.64643,0.0924 1.2313,0.30786 1.75462,0.64643 0.52329,0.30787 0.87729,0.785 1.062,1.4314 -0.0924,0.55412 -0.10775,1.06203 -0.0462,1.52374 0.0616,0.46177 0.15391,0.92351 0.27705,1.38522 0.12312,0.46177 0.24625,0.92351 0.36939,1.38522 0.12312,0.46177 0.20008,0.9389 0.23087,1.4314 0.0308,0.4002 0.0462,0.78498 0.0462,1.15435 -1e-5,0.36942 0.0154,0.7542 0.0462,1.15435 -1e-5,0.24629 0.0616,0.52333 0.18469,0.83113 0.12312,0.27707 0.20008,0.55412 0.23088,0.83113 0.0615,0.43099 0.0923,0.87733 0.0923,1.33905 -1e-5,0.43098 0.0462,0.84655 0.13853,1.2467 0.12311,0.52333 0.27703,1.04663 0.46174,1.56992 0.18468,0.49254 0.33859,1.00045 0.46174,1.52374 0.1539,0.7388 0.24624,1.49298 0.27704,2.26253 0.0616,0.7388 0.18468,1.47758 0.36939,2.21635 -0.0308,0.15393 -0.0616,0.40019 -0.0924,0.73878 -1e-5,0.33863 0.0154,0.69263 0.0462,1.06201 0.0616,0.33862 0.1539,0.64645 0.27704,0.92348 0.12312,0.27705 0.27703,0.41558 0.46174,0.41556 l 0.1847,0 c 0.0616,2e-5 0.13851,-0.0769 0.23087,-0.23087 0.12311,-0.1539 0.20007,-0.26164 0.23087,-0.32321 0.0616,-0.70799 0.13851,-1.41599 0.23087,-2.12401 0.12311,-0.70799 0.24624,-1.41599 0.36939,-2.12401 0.27703,-1.63146 0.55407,-3.24755 0.83113,-4.84827 0.30781,-1.63146 0.63103,-3.26294 0.96966,-4.89444 0.15389,-0.80033 0.3232,-1.61607 0.50791,-2.44723 0.21546,-0.8311 0.38477,-1.64684 0.50792,-2.44722 0.0923,-0.67719 0.16928,-1.33902 0.23087,-1.98548 0.0615,-0.67719 0.20007,-1.33902 0.41556,-1.98549 0.0923,-0.27701 0.26164,-0.56944 0.50792,-0.8773 0.27702,-0.30779 0.58485,-0.46171 0.92348,-0.46174 0.33859,3e-5 0.90807,3e-5 1.70844,0 0.83111,-0.0308 1.67763,-0.0154 2.53957,0.0462 0.89267,0.0616 1.70841,0.16934 2.44722,0.32322 0.76954,0.15395 1.27745,0.38482 1.52374,0.69261 0.33858,0.43099 0.56945,0.92351 0.69262,1.47757 0.15388,0.55412 0.26162,1.09282 0.32321,1.61609 0.15389,1.13899 0.32319,2.27795 0.50792,3.41688 0.18466,1.1082 0.40014,2.21638 0.64643,3.32453 0.0923,0.4002 0.21545,0.80037 0.3694,1.20052 0.18466,0.36942 0.30779,0.76959 0.36939,1.20052 l 0.41556,4.15567 c 0.0307,0.33863 0.10771,0.7388 0.23087,1.20052 0.1231,0.43098 0.24623,0.89272 0.3694,1.38522 0.15388,0.49254 0.2924,0.98506 0.41556,1.47757 0.15388,0.49254 0.26162,0.93889 0.32322,1.33905 0.0308,0.33862 0.10771,0.7388 0.23087,1.20052 0.15388,0.46176 0.46171,0.69263 0.92348,0.69261 l 0.1847,0 0.32322,-0.41556 c -0.12317,-0.92347 -0.13856,-1.86234 -0.0462,-2.81662 0.0923,-0.98503 0.21545,-1.95468 0.36939,-2.90896 0.15388,-0.95425 0.3078,-1.89312 0.46174,-2.81662 0.18466,-0.92346 0.27701,-1.81615 0.27705,-2.67809 l 0,-1.80079 c -4e-5,-0.61563 0.12309,-1.24667 0.36939,-1.89313 0.27701,-0.67719 0.43092,-1.32363 0.46174,-1.93931 -4e-5,-0.33858 0.0154,-0.80032 0.0462,-1.38522 0.0615,-0.61563 0.12309,-1.24667 0.18469,-1.89314 0.0923,-0.6464 0.18466,-1.26205 0.27705,-1.84696 0.12309,-0.58484 0.26161,-1.01579 0.41556,-1.29287 0.15388,-0.27701 0.44631,-0.49249 0.87731,-0.64644 0.43092,-0.18466 0.89266,-0.30779 1.38522,-0.36939 0.52326,-0.0923 1.01579,-0.15388 1.47757,-0.1847 0.49248,-0.0307 0.87726,-0.0461 1.15435,-0.0462 0.4617,4e-5 0.985,0.0308 1.56992,0.0924 0.58482,0.0308 1.13891,0.13856 1.66226,0.32322 0.55404,0.18473 1.01578,0.46177 1.38522,0.83113 0.36935,0.33864 0.55404,0.81577 0.55409,1.43139"
       id="path47995"
       style="font-size:46.17402649px;font-style:normal;font-variant:normal;font-weight:normal;font-stretch:normal;text-align:start;line-height:125%;letter-spacing:0px;word-spacing:0px;writing-mode:lr-tb;text-anchor:start;fill:#000000;fill-opacity:1;stroke:none;font-family:Propaganda;-inkscape-font-specification:Propaganda" />
    <path
       d="m 219.40481,551.10882 c -0.89273,0 -1.6469,-0.15391 -2.26253,-0.46174 -0.58489,-0.30782 -1.06203,-0.72339 -1.43139,-1.24669 -0.33864,-0.52331 -0.5849,-1.13896 -0.73879,-1.84697 -0.15393,-0.70799 -0.23089,-1.46217 -0.23087,-2.26252 l -0.23087,0 c -2e-5,-0.15391 -0.077,-0.23087 -0.23087,-0.23087 -0.12315,0 -0.24628,0.0308 -0.36939,0.0923 -0.12315,0.0308 -0.23089,0.077 -0.32322,0.13853 -0.18472,0 -0.70802,0 -1.56991,0 -0.83116,-0.0308 -1.73925,-0.0462 -2.72427,-0.0462 -0.95428,1e-5 -1.87776,0.0154 -2.77044,0.0462 -0.89272,0.0308 -1.47759,0.0924 -1.75462,0.18469 -0.61566,0.1847 -1.0774,0.46175 -1.38522,0.83114 -0.27705,0.36939 -0.49253,0.78496 -0.64643,1.24669 -0.15393,0.46175 -0.27706,0.93888 -0.3694,1.4314 -0.0924,0.49252 -0.24627,0.93887 -0.46174,1.33905 -0.21549,0.40017 -0.5541,0.72339 -1.01582,0.96965 -0.43097,0.27704 -1.06202,0.41557 -1.89314,0.41557 -0.43097,0 -0.84653,-0.0154 -1.2467,-0.0462 -0.40018,-0.0308 -0.81575,-0.0462 -1.2467,-0.0462 -0.27705,0 -0.55409,0.0308 -0.83113,0.0924 -0.27705,0.0616 -0.5387,0.0923 -0.78496,0.0923 -0.43096,0 -0.8927,-0.0308 -1.38522,-0.0923 -0.46174,-0.0616 -0.8927,-0.1847 -1.29287,-0.3694 -0.3694,-0.18469 -0.67722,-0.44634 -0.92348,-0.78495 -0.24626,-0.33861 -0.36939,-0.78496 -0.36939,-1.33905 0,-0.55409 0.077,-1.07739 0.23087,-1.56992 0.18469,-0.5233 0.40017,-1.03121 0.64643,-1.52374 0.24626,-0.49252 0.49252,-0.96965 0.73879,-1.4314 0.27704,-0.49251 0.50791,-0.98503 0.69261,-1.47756 0.0616,-0.18469 0.0923,-0.38478 0.0924,-0.60027 0.0308,-0.24625 0.0769,-0.47712 0.13852,-0.69261 0.15391,-0.67721 0.30782,-1.4006 0.46174,-2.17018 0.15391,-0.80033 0.36939,-1.52373 0.64643,-2.17018 0.33861,-0.76955 0.66183,-1.52372 0.96966,-2.26252 0.3386,-0.76955 0.67721,-1.53912 1.01583,-2.3087 0.1539,-0.3386 0.23086,-0.72338 0.23087,-1.15435 -1e-5,-0.46173 0.0616,-0.87729 0.18469,-1.2467 0.15391,-0.46172 0.38478,-0.92346 0.69261,-1.38522 0.30782,-0.46172 0.5233,-0.92346 0.64644,-1.38523 0.0923,-0.33858 0.1693,-0.70797 0.23087,-1.10817 0.0616,-0.40015 0.13851,-0.78493 0.23087,-1.15435 0.12312,-0.40015 0.26164,-0.78493 0.41557,-1.15435 0.1539,-0.36937 0.35399,-0.69259 0.60026,-0.96966 0.12312,-0.76954 0.3386,-1.50832 0.64644,-2.21635 0.30781,-0.70797 0.6772,-1.38519 1.10817,-2.03166 0.0923,-0.55405 0.21547,-1.10814 0.36939,-1.66226 0.15391,-0.55406 0.38478,-1.06197 0.69261,-1.52375 0.30782,-0.4617 0.67721,-0.84648 1.10818,-1.15435 0.46173,-0.30779 1.01582,-0.49248 1.66227,-0.55408 0.70798,-0.0923 1.26207,-0.16927 1.66226,-0.23087 0.43094,-0.0923 0.83112,-0.13849 1.20053,-0.13853 0.58485,4e-5 1.26207,0.077 2.03165,0.23087 0.80033,0.12317 1.5699,0.33865 2.3087,0.64644 0.73877,0.30786 1.3852,0.70804 1.93931,1.20052 0.58485,0.46178 0.96963,1.03126 1.15435,1.70844 0.36937,1.4776 0.78494,2.909 1.2467,4.29419 0.46172,1.38525 0.80033,2.86281 1.01583,4.4327 0.21545,0.33864 0.4771,0.80038 0.78496,1.38522 0.3078,0.5849 0.61562,1.20055 0.92348,1.84697 0.33858,0.64645 0.63102,1.26211 0.87731,1.84696 0.27701,0.58489 0.46171,1.04663 0.55409,1.38522 0.0923,0.33863 0.16927,0.67723 0.23087,1.01583 0.0923,0.30784 0.18466,0.63106 0.27704,0.96965 0.0923,0.33863 0.27701,0.72341 0.55409,1.15435 0.30779,0.40019 0.53866,0.76958 0.69261,1.10818 0.1231,0.30784 0.21544,0.64645 0.27704,1.01583 0.0923,0.3694 0.16927,0.73879 0.23087,1.10817 0.0923,0.36941 0.18467,0.7388 0.27705,1.10818 0.0923,0.33862 0.21544,0.64645 0.36939,0.92348 0.15388,0.27705 0.38475,0.7234 0.69261,1.33905 0.30779,0.58488 0.61562,1.21592 0.92348,1.89313 0.33857,0.67723 0.61562,1.33905 0.83113,1.98549 0.24623,0.61565 0.36936,1.09278 0.36939,1.43139 -3e-5,0.3694 -0.10777,0.69261 -0.32321,0.96966 -0.21552,0.27704 -0.49256,0.53869 -0.83114,0.78495 -0.30786,0.21548 -0.64647,0.41557 -1.01582,0.60027 -0.33865,0.15391 -0.63108,0.30782 -0.87731,0.46174 -0.15395,0 -0.44638,0.0154 -0.87731,0.0462 -0.4002,0.0308 -0.84655,0.0616 -1.33904,0.0924 -0.46178,0 -0.90812,0.0308 -1.33905,0.0924 -0.40021,0.0308 -0.66186,0.0616 -0.78496,0.0923 m -10.80472,-25.67275 c -0.18472,0.61567 -0.33863,1.20054 -0.46174,1.75461 -0.12315,0.55411 -0.24628,1.13898 -0.36939,1.75461 -0.12315,0.61568 -0.29246,1.24672 -0.50792,1.89314 -0.21549,0.61567 -0.43097,1.23132 -0.64644,1.84696 -0.21549,0.61567 -0.41558,1.24671 -0.60026,1.89313 -0.15393,0.61567 -0.23088,1.24672 -0.23087,1.89314 -1e-5,0.24627 0.0923,0.44636 0.27705,0.60026 0.18468,0.12314 0.40016,0.21549 0.64643,0.27704 0.24625,0.0616 0.49251,0.10776 0.73879,0.13853 0.27702,1e-5 0.50789,1e-5 0.69261,0 0.24624,1e-5 0.55407,1e-5 0.92348,0 0.36937,-0.0308 0.75415,-0.077 1.15435,-0.13853 0.40015,-0.0615 0.76955,-0.1385 1.10818,-0.23087 0.33858,-0.12311 0.60024,-0.27703 0.78495,-0.46174 0.0308,2e-5 0.0462,-0.0154 0.0462,-0.0462 -2e-5,-0.0308 -2e-5,-0.0462 0,-0.0462 -2e-5,-0.0923 -0.0462,-0.21547 -0.13852,-0.3694 -0.0616,-0.18468 -0.12316,-0.30781 -0.1847,-0.36939 -0.27707,-0.61564 -0.50794,-1.27746 -0.69261,-1.98548 -0.15393,-0.70799 -0.30785,-1.4006 -0.46174,-2.07783 -0.0924,-0.40016 -0.24628,-0.78494 -0.46174,-1.15435 -0.18472,-0.36937 -0.30785,-0.73877 -0.36939,-1.10818 l -0.64644,-3.5554 c -0.0308,-0.0923 -0.12315,-0.18467 -0.27704,-0.27704 -0.12315,-0.12311 -0.23089,-0.20007 -0.32322,-0.23087"
       id="path47997"
       style="font-size:46.17402649px;font-style:normal;font-variant:normal;font-weight:normal;font-stretch:normal;text-align:start;line-height:125%;letter-spacing:0px;word-spacing:0px;writing-mode:lr-tb;text-anchor:start;fill:#000000;fill-opacity:1;stroke:none;font-family:Propaganda;-inkscape-font-specification:Propaganda" />
    <path
       d="m 244.43546,522.94267 0.41556,2.21635 -0.41556,2.4934 c 0.12311,0.4002 0.20007,1.12359 0.23087,2.17018 0.0615,1.01585 0.0923,2.10863 0.0924,3.27835 0.0308,1.13898 0.0308,2.23176 0,3.27836 -2e-5,1.04662 -2e-5,1.8008 0,2.26253 -2e-5,0.49253 -0.0462,1.00045 -0.13853,1.52374 -0.0616,0.49253 -0.12315,0.98506 -0.18469,1.47757 -0.0308,0.33862 -0.0308,0.73879 0,1.20052 0.0615,0.46175 0.12311,0.93888 0.18469,1.4314 0.0923,0.49253 0.16929,0.98505 0.23087,1.47757 0.0923,0.49253 0.13851,0.93887 0.13853,1.33904 -2e-5,1.0774 -0.24628,1.89314 -0.73879,2.44723 -0.49254,0.55409 -1.26211,0.93887 -2.3087,1.15435 l 0,0.23087 c -0.80037,0 -1.60071,0.0462 -2.40105,0.13852 -0.80036,0.0924 -1.60071,0.13852 -2.40105,0.13852 -0.83114,0 -1.49297,-0.29243 -1.98548,-0.8773 -0.46175,-0.58487 -0.69262,-1.27748 -0.69261,-2.07784 -1e-5,-0.49251 0.0154,-0.98504 0.0462,-1.47756 0.0308,-0.5233 0.0462,-1.04661 0.0462,-1.56992 -0.0308,-0.3386 -0.077,-0.6926 -0.13853,-1.062 -0.0308,-0.40017 -0.0462,-0.76956 -0.0462,-1.10818 -10e-6,-0.49251 0.0616,-1.00043 0.1847,-1.52374 0.1539,-0.5233 0.23086,-1.03121 0.23087,-1.52375 -1e-5,-0.55407 -0.0462,-1.13894 -0.13853,-1.75461 -0.0616,-0.61564 -0.12314,-1.20051 -0.18469,-1.75461 -0.0616,-0.46173 -0.0308,-0.95425 0.0924,-1.47757 0.1539,-0.52329 0.23086,-1.0312 0.23087,-1.52374 -1e-5,-0.43094 -0.0462,-0.87729 -0.13853,-1.33905 -0.0616,-0.4925 -0.12314,-0.95424 -0.18469,-1.38522 -0.0616,-0.33859 -0.0616,-0.8619 0,-1.56992 0.0616,-0.70798 0.13851,-1.44676 0.23087,-2.21635 0.0923,-0.80033 0.18468,-1.5545 0.27704,-2.26253 0.0923,-0.70797 0.1693,-1.24667 0.23087,-1.61609 -0.49253,3e-5 -0.93888,0.0616 -1.33904,0.1847 -0.3694,0.12315 -0.7388,0.26168 -1.10818,0.41556 -0.3694,0.12316 -0.75418,0.24629 -1.15435,0.36939 -0.3694,0.0924 -0.80036,0.13855 -1.29287,0.13853 -0.49253,2e-5 -1.00045,-0.0308 -1.52375,-0.0924 -0.52331,-0.0923 -1.01583,-0.24624 -1.47757,-0.46174 -0.43096,-0.24624 -0.78496,-0.55406 -1.062,-0.92348 -0.27704,-0.40015 -0.41557,-0.90806 -0.41556,-1.52374 l 0,-2.17018 c -1e-5,-0.95423 0.0462,-1.70841 0.13852,-2.26253 0.12313,-0.55405 0.33861,-1.0004 0.64643,-1.33905 0.30783,-0.33857 0.708,-0.60022 1.20053,-0.78496 0.5233,-0.21544 1.18513,-0.44631 1.98548,-0.69261 0.40017,0.0616 0.90809,0.13856 1.52374,0.23087 0.64643,0.0924 1.29287,0.18474 1.93931,0.27705 0.67721,0.0616 1.32365,0.12316 1.93931,0.18469 0.61565,0.0308 1.12356,0.0308 1.52375,0 0.46172,-0.0615 0.93885,-0.12309 1.43139,-0.18469 0.52329,-0.0615 1.01581,-0.0923 1.47757,-0.0924 0.70799,4e-5 1.43138,0.077 2.17018,0.23087 0.76955,0.12317 1.50833,0.18473 2.21635,0.1847 1.07738,3e-5 2.13938,-0.0308 3.18601,-0.0924 1.04659,-0.0923 2.10859,-0.13849 3.18601,-0.13852 0.67719,3e-5 1.24667,0.0154 1.70844,0.0462 0.46171,0.0308 0.8311,0.15395 1.10817,0.36939 0.27702,0.18473 0.46171,0.49256 0.55409,0.92348 0.1231,0.43099 0.18467,1.03126 0.1847,1.80079 -3e-5,0.18473 -3e-5,0.36942 0,0.55409 -3e-5,0.18473 -0.0154,0.36942 -0.0462,0.55409 0.0615,0.27707 0.0923,0.5849 0.0924,0.92348 -3e-5,0.30785 -3e-5,0.61568 0,0.92348 -3e-5,0.46177 -0.18472,0.90812 -0.55409,1.33904 -0.33863,0.43099 -0.67724,0.80038 -1.01583,1.10818 -0.95428,3e-5 -1.90855,-0.10771 -2.86278,-0.32322 -0.95429,-0.21545 -1.90855,-0.32319 -2.86279,-0.32322 -0.76959,3e-5 -1.52377,0.16934 -2.26253,0.50792"
       id="path47999"
       style="font-size:46.17402649px;font-style:normal;font-variant:normal;font-weight:normal;font-stretch:normal;text-align:start;line-height:125%;letter-spacing:0px;word-spacing:0px;writing-mode:lr-tb;text-anchor:start;fill:#000000;fill-opacity:1;stroke:none;font-family:Propaganda;-inkscape-font-specification:Propaganda" />
    <path
       d="m 283.5629,550.9703 -3.7401,0 c -0.64646,0 -1.30828,-0.0308 -1.98548,-0.0924 -0.64646,-0.0923 -1.30829,-0.13852 -1.98548,-0.13852 -0.33863,0 -0.83116,0 -1.47757,0 -0.64646,-0.0308 -1.30828,-0.0308 -1.98548,0 -0.67724,0.0308 -1.32368,0.077 -1.93931,0.13852 -0.58489,0.0616 -1.00046,0.16931 -1.2467,0.32322 -0.61567,0 -1.2775,-0.0154 -1.98549,-0.0462 -0.67723,-0.0308 -1.32366,0.0154 -1.9393,0.13852 -0.61567,0.12313 -1.2621,0.21548 -1.93931,0.27704 -0.67723,0.0924 -1.32367,0.13853 -1.93931,0.13853 -1.47758,0 -2.53958,-0.43096 -3.18601,-1.29288 -0.64644,-0.86191 -0.96966,-1.98548 -0.96966,-3.3707 0,-1.10817 0.10774,-2.20096 0.32322,-3.27836 0.21548,-1.10816 0.32322,-2.20095 0.32322,-3.27835 0,-0.30782 -0.0308,-0.61564 -0.0924,-0.92348 -0.0616,-0.30782 -0.10774,-0.61564 -0.13852,-0.92348 -0.0308,-0.46173 -0.0308,-0.92347 0,-1.38522 0.0308,-0.49251 0.0308,-0.96964 0,-1.4314 0,-0.24624 -0.0308,-0.49251 -0.0923,-0.73878 -0.0616,-0.24625 -0.0924,-0.49251 -0.0924,-0.73879 0,-0.80033 0.0462,-1.58529 0.13853,-2.35487 0.12312,-0.80033 0.18469,-1.60068 0.18469,-2.40105 0,-0.33859 -0.0308,-0.66181 -0.0923,-0.96966 -0.0308,-0.33858 -0.0462,-0.67719 -0.0462,-1.01583 0,-0.80032 0.0308,-1.61606 0.0924,-2.44722 0.0923,-0.8311 0.13852,-1.64684 0.13852,-2.44722 0,-1.04658 -0.0462,-2.0778 -0.13852,-3.09366 -0.0924,-1.04658 -0.13853,-2.09319 -0.13852,-3.13984 -10e-6,-0.277 0.10773,-0.52327 0.32322,-0.73878 0.21547,-0.24623 0.46173,-0.44631 0.73878,-0.60026 0.30782,-0.15388 0.61565,-0.2924 0.92348,-0.41557 0.3386,-0.12309 0.63104,-0.23083 0.87731,-0.32322 0.24625,4e-5 0.5079,4e-5 0.78496,0 0.27703,-0.0307 0.53869,-0.0461 0.78495,-0.0462 0.83113,4e-5 1.64687,0.0616 2.44723,0.1847 0.80034,0.12316 1.60069,0.26168 2.40105,0.41556 l 0.32321,-0.0462 1.52375,-0.0462 c 2.12399,-0.0923 4.24799,-0.13848 6.37201,-0.13852 0.30781,4e-5 0.61564,0.0308 0.92348,0.0924 0.30781,0.0308 0.61564,0.077 0.92348,0.13852 -0.0308,4e-5 0.0154,4e-5 0.13853,0 0.1231,-0.0307 0.21545,-0.0615 0.27704,-0.0924 l 0.60026,-0.0462 2.26253,-0.27704 c 0.15389,-0.0308 0.3078,-0.0461 0.46174,-0.0462 0.18467,4e-5 0.35398,4e-5 0.50791,0 0.33859,4e-5 0.69259,0.0308 1.06201,0.0924 0.36936,0.0616 0.72336,0.18473 1.062,0.36939 0.1231,0.0924 0.24623,0.40021 0.36939,0.92348 0.1231,0.52334 0.21545,1.10821 0.27705,1.75462 0.0923,0.64646 0.15388,1.26212 0.18469,1.84696 0.0615,0.5849 0.0923,0.96968 0.0924,1.15435 -3e-5,1.04664 -0.29246,1.80081 -0.87731,2.26252 -0.55411,0.43099 -1.32368,0.64647 -2.3087,0.64644 -0.89272,3e-5 -1.77003,-0.0769 -2.63192,-0.23087 -0.83115,-0.15389 -1.69307,-0.23084 -2.58574,-0.23087 -0.89272,3e-5 -1.80081,-0.0308 -2.72427,-0.0924 -0.89272,-0.0923 -1.78541,-0.13849 -2.67809,-0.13852 -0.52332,3e-5 -1.07741,0.077 -1.66227,0.23087 -0.5541,0.12316 -1.00045,0.41559 -1.33905,0.87731 -0.0924,2e-5 -0.13853,0.0462 -0.13852,0.13852 -10e-6,0.0308 0.0154,0.0616 0.0462,0.0924 0.0308,0.30785 0.0462,0.69263 0.0462,1.15435 -10e-6,0.46176 0.0308,0.90811 0.0924,1.33904 0.0923,0.43099 0.24625,0.80038 0.46174,1.10818 0.21546,0.30785 0.56947,0.46176 1.062,0.46174 0.67721,2e-5 1.33903,-0.0615 1.98548,-0.18469 0.67721,-0.1539 1.35443,-0.23085 2.03166,-0.23088 0.6772,3e-5 1.33903,0.0308 1.98549,0.0924 0.64641,0.0308 1.30824,0.0308 1.98548,0 0.61563,-0.0308 1.21589,-0.0769 1.80079,-0.13852 0.61562,-0.0923 1.23128,-0.1385 1.84696,-0.13852 0.80032,2e-5 1.43136,0.16933 1.89313,0.50791 0.4925,0.30785 0.73876,0.89272 0.73879,1.75462 -3e-5,0.12315 -0.0154,0.24628 -0.0462,0.36939 -3e-5,0.0924 -3e-5,0.20011 0,0.32322 -0.0308,0.52332 -0.0462,1.10819 -0.0462,1.75461 -3e-5,0.61567 -0.077,1.20054 -0.23087,1.75461 -0.12316,0.52332 -0.36942,0.96967 -0.73879,1.33905 -0.36942,0.36941 -0.9389,0.5541 -1.70844,0.55409 -0.98507,10e-6 -1.97011,0.0308 -2.95513,0.0924 -0.98507,0.0308 -1.97012,0.0462 -2.95514,0.0462 -0.46176,10e-6 -1.07741,-0.12312 -1.84696,-0.36939 -0.7388,-0.27703 -1.4622,-0.41555 -2.17018,-0.41557 -0.24628,2e-5 -0.47715,0.0154 -0.69261,0.0462 -0.2155,0.0308 -0.44637,0.0924 -0.69261,0.18469 -0.58489,2e-5 -1.01584,0.0924 -1.29288,0.27705 -0.27705,0.15392 -0.47714,0.38479 -0.60026,0.69261 -0.0924,0.27705 -0.13853,0.63105 -0.13852,1.062 0.0308,0.40019 0.0462,0.83114 0.0462,1.29287 -1e-5,0.40019 -1e-5,0.81575 0,1.2467 -1e-5,0.43097 0.0462,0.81575 0.13853,1.15435 0.12311,0.33862 0.30781,0.63105 0.55408,0.87731 0.27704,0.21548 0.67721,0.32322 1.20053,0.32322 0.64642,0 1.32364,-0.0616 2.03166,-0.1847 0.70798,-0.12312 1.41598,-0.21547 2.124,-0.27704 1.13894,-0.0616 2.26251,-0.0923 3.37071,-0.0924 1.10815,-0.0308 2.23172,-0.077 3.3707,-0.13852 0.52328,-0.0308 1.03119,-0.0616 1.52374,-0.0924 0.52328,-0.0616 1.04659,-0.0923 1.56992,-0.0924 0.80032,10e-6 1.46215,0.15392 1.98548,0.46174 0.52328,0.30783 0.78493,0.9081 0.78496,1.80079 -3e-5,0.33861 -0.0462,0.66183 -0.13852,0.96965 -0.0616,0.27705 -0.0924,0.58488 -0.0924,0.92348 -3e-5,0.43096 0.0308,0.84653 0.0924,1.2467 0.0615,0.40018 0.0923,0.81574 0.0924,1.2467 -3e-5,0.61565 -0.21551,1.21592 -0.64644,1.80079 -0.4002,0.58487 -0.9389,0.8773 -1.61609,0.8773"
       id="path48001"
       style="font-size:46.17402649px;font-style:normal;font-variant:normal;font-weight:normal;font-stretch:normal;text-align:start;line-height:125%;letter-spacing:0px;word-spacing:0px;writing-mode:lr-tb;text-anchor:start;fill:#000000;fill-opacity:1;stroke:none;font-family:Propaganda;-inkscape-font-specification:Propaganda" />
    <path
       d="m 321.74593,548.56925 c -3e-5,0.64644 -0.20012,1.12357 -0.60026,1.4314 -0.36943,0.30783 -0.83117,0.5233 -1.38522,0.64643 -0.52334,0.12314 -1.09282,0.20009 -1.70844,0.23087 -0.5849,0 -1.09282,0 -1.52374,0 l -1.20053,0.0462 c -0.64646,0 -1.41603,-0.0462 -2.3087,-0.13852 -0.89272,-0.0924 -1.63151,-0.30783 -2.21635,-0.64644 -0.12316,-0.0616 -0.24629,-0.20009 -0.3694,-0.41557 -0.12315,-0.24626 -0.24628,-0.49252 -0.36939,-0.73878 -0.0924,-0.27704 -0.18472,-0.5387 -0.27704,-0.78496 -0.0924,-0.24626 -0.16933,-0.43095 -0.23087,-0.55409 -0.30785,-0.67721 -0.64646,-1.30826 -1.01583,-1.89313 -0.33863,-0.61565 -0.72341,-1.2313 -1.15435,-1.84696 -2e-5,-0.0308 -0.0308,-0.12313 -0.0923,-0.27705 -0.0616,-0.1539 -0.12315,-0.32321 -0.1847,-0.50791 -0.0616,-0.18469 -0.12315,-0.35399 -0.18469,-0.50792 -0.0308,-0.18468 -0.0616,-0.30781 -0.0924,-0.36939 -0.12315,-0.27703 -0.27706,-0.53869 -0.46174,-0.78496 -0.15393,-0.24625 -0.27706,-0.5079 -0.36939,-0.78496 -0.0924,-0.30781 -0.16933,-0.61564 -0.23087,-0.92348 -0.0308,-0.30781 -0.12315,-0.61564 -0.27705,-0.92348 -0.15393,-0.24625 -0.36941,-0.44633 -0.64643,-0.60026 -0.24628,-0.18468 -0.50793,-0.27703 -0.78496,-0.27704 -0.24628,10e-6 -0.46176,0.0462 -0.64644,0.13852 -0.52332,10e-6 -1.00045,10e-6 -1.43139,0 -0.43097,-0.0308 -0.80037,10e-6 -1.10818,0.0924 -0.30784,0.0924 -0.53871,0.29245 -0.69261,0.60026 -0.15393,0.27706 -0.23088,0.7388 -0.23087,1.38522 -1e-5,0.76958 0.0769,1.52375 0.23087,2.26253 0.1539,0.70801 0.23086,1.4314 0.23087,2.17018 -10e-6,0.27705 -0.0154,0.56948 -0.0462,0.8773 -0.0308,0.27705 -0.0462,0.5541 -0.0462,0.83114 -10e-6,0.43096 0.0308,0.8927 0.0924,1.38522 0.0923,0.46174 0.13851,0.92348 0.13852,1.38522 -1e-5,0.30783 -0.0308,0.55409 -0.0924,0.73878 -0.0308,0.15392 -0.0924,0.29244 -0.18469,0.41557 -0.0924,0.12313 -0.23088,0.23087 -0.41557,0.32322 -0.15392,0.0923 -0.35401,0.20008 -0.60026,0.32321 -0.46175,0.24627 -0.87732,0.41557 -1.2467,0.50792 -0.33862,0.0924 -0.67723,0.15391 -1.01583,0.18469 -0.33862,0.0616 -0.70801,0.077 -1.10817,0.0462 -0.3694,0 -0.80036,0 -1.29288,0 -0.83114,0 -1.53914,-0.0462 -2.124,-0.13852 -0.55409,-0.0924 -1.01583,-0.27705 -1.38522,-0.55409 -0.33862,-0.27705 -0.60027,-0.67722 -0.78496,-1.20053 -0.15392,-0.5233 -0.23087,-1.21591 -0.23087,-2.07783 0,-0.55408 0.0154,-1.10817 0.0462,-1.66226 0.0616,-0.55409 0.0923,-1.10817 0.0923,-1.66227 0,-0.30782 -0.0308,-0.60025 -0.0923,-0.8773 -0.0308,-0.30782 -0.0462,-0.63104 -0.0462,-0.96966 0,-1.56991 0.0462,-3.10904 0.13852,-4.6174 0.12313,-1.50834 0.18469,-3.04747 0.1847,-4.6174 -10e-6,-0.43094 -0.0154,-0.84651 -0.0462,-1.2467 -0.0308,-0.40016 -0.0308,-0.80033 0,-1.20053 0.0308,-0.33859 0.0616,-0.6772 0.0924,-1.01583 0.0616,-0.36937 0.0923,-0.72337 0.0923,-1.062 0,-0.43093 -0.0616,-0.86189 -0.1847,-1.29287 -0.0924,-0.43093 -0.13852,-0.86189 -0.13852,-1.29287 0,-0.33859 0.0462,-0.66181 0.13852,-0.96966 0.12313,-0.33858 0.1847,-0.67719 0.1847,-1.01583 0,-0.52328 -0.0616,-1.07736 -0.1847,-1.66226 -0.0924,-0.58484 -0.1693,-1.13893 -0.23087,-1.66227 -0.0616,-0.43092 -0.0308,-0.89266 0.0923,-1.38522 0.15391,-0.49249 0.23087,-0.95423 0.23087,-1.38522 0,-0.33857 -0.0308,-0.6464 -0.0924,-0.92348 -0.0616,-0.30779 -0.0924,-0.63101 -0.0924,-0.96965 0,-0.43093 0.077,-0.81571 0.23087,-1.15435 0.15391,-0.36936 0.49252,-0.55406 1.01583,-0.55409 0.15391,3e-5 0.27704,0.0154 0.3694,0.0462 0.12312,0.0308 0.26164,0.0616 0.41556,0.0924 0.30782,0.0616 0.66182,0.10778 1.062,0.13852 0.43096,4e-5 0.86191,4e-5 1.29288,0 0.46173,4e-5 0.90808,4e-5 1.33904,0 0.46174,4e-5 0.86191,4e-5 1.20053,0 0.89269,0.0616 1.78538,0.15395 2.67809,0.27705 0.92347,0.0924 1.83156,0.13855 2.72427,0.13852 0.46172,3e-5 0.92346,-0.0461 1.38522,-0.13852 0.49251,-0.1231 0.98503,-0.18466 1.47757,-0.1847 0.61563,4e-5 1.2159,0.0616 1.80079,0.1847 0.58485,0.0924 1.18511,0.13855 1.80078,0.13852 0.33859,3e-5 0.69259,-0.0307 1.06201,-0.0923 0.40015,-0.0923 0.76954,-0.13849 1.10817,-0.13852 0.55407,3e-5 1.13894,0.0924 1.75462,0.27704 0.61562,0.18473 1.23128,0.43099 1.84696,0.73879 0.6464,0.27708 1.24667,0.60029 1.80078,0.96965 0.55406,0.33864 1.03119,0.67725 1.4314,1.01583 1.29284,1.13899 2.17014,2.52421 2.63192,4.15566 0.4617,1.63151 0.69257,3.27838 0.69261,4.94062 -4e-5,1.84699 -0.38482,3.43229 -1.15435,4.75593 -0.73882,1.29289 -1.87778,2.43185 -3.41688,3.41688 -0.24629,0.15392 -0.52333,0.29245 -0.83113,0.41556 -0.27708,0.12315 -0.55412,0.26167 -0.83114,0.41557 -0.18472,0.12314 -0.27707,0.32323 -0.27704,0.60026 -3e-5,0.58488 0.23084,1.10819 0.69261,1.56992 0.73876,0.76958 1.32363,1.50836 1.75461,2.21635 0.43093,0.67723 0.92345,1.46219 1.47757,2.35488 0.18467,0.33861 0.44632,0.76957 0.78496,1.29287 0.33858,0.52331 0.6618,1.06201 0.96966,1.61609 0.33857,0.55409 0.61562,1.09279 0.83113,1.61609 0.24623,0.52331 0.36936,0.95427 0.36939,1.29287 m -20.59362,-26.08832 c -0.15392,0.12316 -0.40018,0.33864 -0.73878,0.64643 -0.33862,0.30786 -0.50793,0.5849 -0.50791,0.83114 -2e-5,0.52333 0.0154,1.03124 0.0462,1.52374 0.0308,0.46177 0.0462,0.9389 0.0462,1.43139 -10e-6,0.21551 -10e-6,0.53873 0,0.96966 -10e-6,0.4002 0.0154,0.81576 0.0462,1.2467 0.0616,0.43098 0.13851,0.83115 0.23087,1.20052 0.12312,0.36942 0.30781,0.61568 0.55409,0.73879 0.1539,0.0924 0.3232,0.13854 0.50791,0.13852 0.18468,-0.0308 0.35399,-0.0308 0.50791,0 0.0923,2e-5 0.18469,0.0154 0.27705,0.0462 0.0923,2e-5 0.20007,2e-5 0.32322,0 0.73877,2e-5 1.46216,-0.1385 2.17018,-0.41556 0.70798,-0.27703 1.41598,-0.46172 2.124,-0.55409 0.43094,-0.0616 0.8619,-0.10772 1.29287,-0.13852 0.43094,-0.0308 0.8619,-0.0462 1.29288,-0.0462 0.61563,-0.24624 1.09276,-0.72337 1.43139,-1.43139 0.36937,-0.73876 0.55407,-1.41598 0.55409,-2.03166 -2e-5,-0.15389 -0.0308,-0.38476 -0.0924,-0.69261 -0.27707,-1.0158 -0.81576,-1.76998 -1.61609,-2.26253 -0.76959,-0.49249 -1.64689,-0.81571 -2.63192,-0.96965 -0.98506,-0.18467 -2.00089,-0.26163 -3.04748,-0.23087 -1.04663,3e-5 -1.97011,3e-5 -2.77045,0"
       id="path48003"
       style="font-size:46.17402649px;font-style:normal;font-variant:normal;font-weight:normal;font-stretch:normal;text-align:start;line-height:125%;letter-spacing:0px;word-spacing:0px;writing-mode:lr-tb;text-anchor:start;fill:#000000;fill-opacity:1;stroke:none;font-family:Propaganda;-inkscape-font-specification:Propaganda" />
    <path
       d="m 347.39055,551.38587 c -0.83116,-0.0616 -1.63151,0.0154 -2.40105,0.23087 -0.76959,0.21548 -1.4622,0.32322 -2.07783,0.32322 -2.37029,0 -4.67899,-0.354 -6.92611,-1.06201 -2.21636,-0.73878 -4.15567,-2.01626 -5.81793,-3.83244 l -2.3087,-2.4934 c -0.15391,-0.49251 -0.36939,-1.01582 -0.64643,-1.56991 -0.24627,-0.55408 -0.50792,-1.12356 -0.78496,-1.70844 -0.27705,-0.58486 -0.52331,-1.15434 -0.73879,-1.70844 -0.18469,-0.58486 -0.27704,-1.12356 -0.27704,-1.61609 0,-1.07738 0.0462,-2.15478 0.13852,-3.23219 0.0924,-1.10815 0.13852,-2.20094 0.13852,-3.27835 0,-0.70798 0,-1.41598 0,-2.12401 0,-0.70798 0.0308,-1.41598 0.0924,-2.124 0.0923,-0.86189 0.30783,-1.75459 0.64644,-2.67809 0.36939,-0.95424 0.81574,-1.86233 1.33905,-2.72427 0.5233,-0.89267 1.09278,-1.7238 1.70843,-2.4934 0.64643,-0.80032 1.29287,-1.46214 1.93931,-1.98548 0.67721,-0.55406 1.53913,-1.12354 2.58575,-1.70844 1.0466,-0.58484 1.98547,-1.04658 2.81661,-1.38522 0.0308,-0.0308 0.21547,-0.0769 0.55409,-0.13852 0.36938,-0.0923 0.76956,-0.18466 1.20053,-0.27705 0.43094,-0.0923 0.81572,-0.16927 1.15435,-0.23087 0.36937,-0.0615 0.56946,-0.0923 0.60026,-0.0924 1.13894,4e-5 2.30868,0.077 3.50923,0.23087 1.23128,0.12317 2.43181,0.35404 3.60157,0.69261 1.2005,0.33865 2.33946,0.785 3.41688,1.33905 1.07736,0.55412 2.03163,1.26212 2.86279,2.12401 0.24623,0.27707 0.49249,0.56951 0.73878,0.8773 0.24623,0.30786 0.49249,0.6003 0.73879,0.87731 0.36936,0.43099 0.76953,0.95429 1.20052,1.56992 0.43093,0.5849 0.6464,1.18516 0.64644,1.80078 -4e-5,0.15394 -0.0924,0.36942 -0.27705,0.64644 -0.18473,0.27707 -0.4002,0.56951 -0.64643,0.87731 -0.2463,0.30785 -0.49256,0.60028 -0.73879,0.8773 -0.24629,0.24629 -0.41559,0.43098 -0.50791,0.55409 -0.33864,0.18472 -0.66186,0.4002 -0.96966,0.64644 -0.30785,0.24628 -0.61568,0.47715 -0.92348,0.69261 -0.30785,0.2155 -0.64647,0.40019 -1.01582,0.55408 -0.33864,0.12316 -0.72343,0.18472 -1.15436,0.1847 -0.4002,2e-5 -0.76959,-0.0923 -1.10818,-0.27704 -0.33863,-0.21546 -0.64645,-0.47711 -0.92347,-0.78496 -0.27708,-0.3078 -0.53873,-0.63102 -0.78497,-0.96966 -0.24628,-0.33858 -0.47716,-0.63102 -0.69261,-0.8773 -0.24628,-0.27702 -0.53872,-0.53867 -0.87731,-0.78496 -0.33862,-0.24624 -0.70802,-0.47711 -1.10816,-0.69261 -0.36942,-0.21545 -0.7542,-0.38476 -1.15436,-0.50792 -0.4002,-0.1231 -0.78497,-0.18466 -1.15436,-0.18469 -0.61566,3e-5 -1.18514,0.13855 -1.70842,0.41556 -0.49255,0.24629 -0.98507,0.52334 -1.47757,0.83114 -0.33864,0.24629 -0.70802,0.47715 -1.10819,0.69261 -0.36941,0.18472 -0.72341,0.4002 -1.062,0.64643 -0.46176,0.33864 -0.86193,0.78499 -1.20052,1.33905 -0.30785,0.55411 -0.55411,1.15437 -0.73878,1.80079 -0.18471,0.64646 -0.32323,1.30828 -0.41557,1.98548 -0.0616,0.64646 -0.0924,1.24672 -0.0924,1.80079 -1e-5,1.56993 0.32321,3.12446 0.96965,4.66357 0.67721,1.50837 1.47756,2.8782 2.40106,4.10949 1.35442,0.89271 2.84737,1.33906 4.47888,1.33905 1.32363,10e-6 2.33946,-0.26164 3.04747,-0.78496 0.73878,-0.52329 1.33904,-1.10817 1.8008,-1.75461 0.4925,-0.64643 0.93885,-1.2313 1.33905,-1.75462 0.43093,-0.52329 1.00041,-0.78494 1.70844,-0.78495 0.43093,10e-6 1.00041,0.13853 1.70844,0.41556 0.70796,0.24628 1.38519,0.58489 2.03165,1.01583 0.67719,0.40019 1.26206,0.86193 1.75461,1.38522 0.4925,0.52332 0.73876,1.03123 0.73878,1.52375 -3e-5,0.76957 -0.38481,1.64688 -1.15435,2.63191 -0.76959,0.98506 -1.67769,1.95471 -2.72426,2.90897 -1.04664,0.92348 -2.12404,1.75461 -3.23218,2.4934 -1.1082,0.73878 -2.0009,1.24669 -2.67809,1.52374"
       id="path48005"
       style="font-size:46.17402649px;font-style:normal;font-variant:normal;font-weight:normal;font-stretch:normal;text-align:start;line-height:125%;letter-spacing:0px;word-spacing:0px;writing-mode:lr-tb;text-anchor:start;fill:#000000;fill-opacity:1;stroke:none;font-family:Propaganda;-inkscape-font-specification:Propaganda" />
    <path
       d="m 396.24484,529.12999 c -4e-5,1.72385 -0.0924,3.52463 -0.27705,5.40236 -0.15395,1.84697 -0.44638,3.60159 -0.8773,5.26384 -0.12317,0.49253 -0.35404,1.04662 -0.69261,1.66226 -0.30786,0.58488 -0.67726,1.18514 -1.10818,1.80079 -0.40021,0.58488 -0.81577,1.15436 -1.2467,1.70844 -0.43099,0.52331 -0.80038,0.98505 -1.10817,1.38522 -0.18473,0.24627 -0.52334,0.56948 -1.01583,0.96965 -0.49256,0.40018 -1.01586,0.81575 -1.56992,1.2467 -0.55412,0.40018 -1.09281,0.76957 -1.61609,1.10818 -0.52333,0.33861 -0.92351,0.55409 -1.20053,0.64644 -0.27707,0.0923 -0.61568,0.21548 -1.01582,0.36939 -0.4002,0.12313 -0.80038,0.24626 -1.20053,0.36939 -0.4002,0.12313 -0.80037,0.23087 -1.20052,0.32322 -0.36942,0.12313 -0.69264,0.21548 -0.96966,0.27704 -0.18472,0.0616 -0.41559,0.10774 -0.69261,0.13852 -0.24628,0.0308 -0.46176,0.0462 -0.64643,0.0462 l -3.50923,0 c -0.27706,0 -0.7388,-0.077 -1.38522,-0.23087 -0.61567,-0.12313 -1.29289,-0.29244 -2.03166,-0.50792 -0.70801,-0.18469 -1.38523,-0.38478 -2.03166,-0.60026 -0.64644,-0.21548 -1.12358,-0.38478 -1.43139,-0.50791 -0.83114,-0.33861 -1.72384,-0.8927 -2.67809,-1.66227 -0.92349,-0.76956 -1.8008,-1.63148 -2.63192,-2.58574 -0.83114,-0.98504 -1.55453,-2.00087 -2.17018,-3.04749 -0.58488,-1.0466 -0.96966,-2.01625 -1.15435,-2.90896 -0.0616,-0.18469 -0.13853,-0.5079 -0.23087,-0.96966 -0.0924,-0.46172 -0.1847,-0.93886 -0.27705,-1.43139 -0.0924,-0.52329 -0.1693,-1.00042 -0.23087,-1.4314 -0.0616,-0.43094 -0.0923,-0.70798 -0.0923,-0.83113 0,-0.52329 0.0308,-1.01581 0.0923,-1.47757 0.0924,-0.4925 0.13852,-1.00042 0.13852,-1.52374 0,-1.97007 0.15392,-3.74007 0.46174,-5.31001 0.33861,-1.60068 0.90809,-3.29372 1.70844,-5.07915 0.0616,-0.1231 0.20009,-0.32319 0.41557,-0.60026 0.24626,-0.27701 0.49252,-0.56945 0.73878,-0.87731 0.27704,-0.30779 0.5387,-0.60023 0.78496,-0.8773 0.27704,-0.27701 0.46174,-0.46171 0.55409,-0.55409 0.76956,-0.80032 1.55452,-1.56988 2.35488,-2.3087 0.83112,-0.73875 1.70842,-1.38519 2.63192,-1.93931 0.92346,-0.55405 1.89312,-0.98501 2.90896,-1.29287 1.01581,-0.33857 2.1086,-0.50788 3.27836,-0.50792 0.21546,4e-5 0.61563,0.0154 1.20052,0.0462 0.61563,0.0308 1.24668,0.077 1.89314,0.13852 0.67719,0.0616 1.29285,0.12317 1.84696,0.18469 0.58484,0.0616 0.96963,0.12317 1.15435,0.1847 0.43093,0.15395 0.8465,0.30786 1.2467,0.46174 0.40014,0.15395 0.81571,0.30786 1.24669,0.46174 0.4925,0.15395 0.98502,0.27708 1.47757,0.36939 0.52328,0.0616 1.03119,0.21552 1.52375,0.46174 0.0923,0.0308 0.21545,0.12317 0.36939,0.27705 0.18466,0.12316 0.38475,0.27708 0.60026,0.46174 0.21545,0.15395 0.41554,0.32325 0.60026,0.50791 0.18467,0.15395 0.32319,0.26169 0.41557,0.32322 0.43092,0.33864 0.90806,0.75421 1.43139,1.2467 0.55406,0.46177 1.07736,0.96969 1.56992,1.52374 0.49249,0.52334 0.93884,1.07743 1.33905,1.66227 0.40014,0.5849 0.67718,1.13899 0.83113,1.66226 0.15388,0.55412 0.27701,1.13899 0.36939,1.75462 0.0923,0.61567 0.21544,1.21594 0.36939,1.80078 0.0308,0.12316 0.0769,0.33864 0.13853,0.64644 0.0923,0.27707 0.18466,0.5695 0.27704,0.8773 0.0923,0.27707 0.16927,0.55412 0.23087,0.83114 0.0615,0.24628 0.0923,0.40019 0.0924,0.46174 m -10.80472,0.41556 c -0.27707,-0.55406 -0.52334,-1.10815 -0.73879,-1.66226 -0.18472,-0.55407 -0.4002,-1.10815 -0.64643,-1.66227 -0.21551,-0.55406 -0.53873,-1.06197 -0.96966,-1.52374 -0.43098,-0.49249 -0.90811,-0.90806 -1.43139,-1.2467 -0.52333,-0.33858 -1.09281,-0.60023 -1.70844,-0.78496 -0.61568,-0.21545 -1.21594,-0.32319 -1.80079,-0.32321 -0.36941,2e-5 -0.78498,0.0616 -1.2467,0.18469 -0.43097,0.12316 -0.81576,0.24629 -1.15435,0.36939 -0.98506,0.36942 -1.83158,0.86195 -2.53957,1.47757 -0.67723,0.5849 -1.24671,1.26212 -1.70844,2.03166 -0.46175,0.76959 -0.80036,1.61611 -1.01583,2.53957 -0.21549,0.9235 -0.32323,1.87777 -0.32322,2.86279 -1e-5,1.16976 0.15391,2.35489 0.46174,3.5554 0.3386,1.16976 0.83112,2.23176 1.47757,3.18601 0.67721,0.95427 1.50834,1.73923 2.4934,2.35487 0.98503,0.58489 2.13938,0.87732 3.46305,0.87731 0.46172,10e-6 0.90807,-0.0923 1.33905,-0.27704 0.46172,-0.18469 0.90807,-0.36939 1.33905,-0.55409 0.64641,-0.30782 1.13893,-0.53869 1.47757,-0.69261 0.36936,-0.1539 0.64641,-0.32321 0.83113,-0.50792 0.21545,-0.21546 0.40015,-0.49251 0.55409,-0.83113 0.18467,-0.3386 0.41554,-0.83112 0.69261,-1.47757 0.1231,-0.24625 0.26162,-0.47711 0.41556,-0.69261 0.15389,-0.21546 0.29241,-0.44633 0.41557,-0.69261 0.0307,-0.0923 0.0615,-0.43094 0.0923,-1.01583 0.0308,-0.61563 0.0615,-1.27746 0.0923,-1.98548 0.0308,-0.73877 0.0462,-1.43138 0.0462,-2.07783 0.0308,-0.6772 0.0615,-1.15433 0.0924,-1.4314"
       id="path48007"
       style="font-size:46.17402649px;font-style:normal;font-variant:normal;font-weight:normal;font-stretch:normal;text-align:start;line-height:125%;letter-spacing:0px;word-spacing:0px;writing-mode:lr-tb;text-anchor:start;fill:#000000;fill-opacity:1;stroke:none;font-family:Propaganda;-inkscape-font-specification:Propaganda" />
    <path
       d="m 419.25033,551.10882 0.0462,0 -0.0924,-0.0462 -0.78496,-0.0462 -3.32453,-0.1847 c -0.18471,0 -0.3694,0 -0.55408,0 -0.18472,-0.0308 -0.36941,-0.0462 -0.55409,-0.0462 -0.43098,0 -0.89272,0.0308 -1.38522,0.0923 -0.46176,0.0616 -0.87732,0.21548 -1.2467,0.46174 -0.70802,0 -1.41602,0.0308 -2.12401,0.0923 -0.67723,0.0616 -1.35445,0.0924 -2.03165,0.0924 -1.4468,0 -2.60115,-0.0616 -3.46306,-0.1847 -0.86192,-0.0923 -1.52374,-0.3386 -1.98548,-0.73878 -0.43096,-0.43096 -0.7234,-1.062 -0.87731,-1.89314 -0.12313,-0.83112 -0.18469,-1.97008 -0.18469,-3.41687 0,-0.43095 0.0462,-0.86191 0.13852,-1.29288 0.12313,-0.43095 0.1693,-0.8619 0.13852,-1.29287 -0.0308,-0.64643 -0.077,-1.29286 -0.13852,-1.93931 -0.0308,-0.67721 -0.0462,-1.33903 -0.0462,-1.98548 -10e-6,-0.98503 0.0462,-1.95469 0.13852,-2.90896 0.12313,-0.95425 0.18469,-1.92391 0.18469,-2.90897 0,-0.6772 -0.0923,-1.33903 -0.27704,-1.98548 -0.1847,-0.64642 -0.27705,-1.30824 -0.27704,-1.98548 -1e-5,-0.55407 0.0462,-1.12355 0.13852,-1.70844 0.12313,-0.61563 0.18469,-1.21589 0.18469,-1.80079 l 0,-1.20053 c 0.0308,-0.80032 0.0308,-1.60067 0,-2.40104 0,-0.83111 -0.0308,-1.64685 -0.0923,-2.44723 -0.0308,-0.43092 -0.10775,-0.86188 -0.23087,-1.29287 -0.12314,-0.46171 -0.1847,-0.92345 -0.1847,-1.38522 0,-0.70797 0.20008,-1.21588 0.60026,-1.52374 0.40017,-0.30779 0.86191,-0.52327 1.38522,-0.64644 0.55409,-0.12309 1.09278,-0.20005 1.61609,-0.23087 0.5233,-0.0615 0.90809,-0.20005 1.15435,-0.41557 0.61565,0.12317 1.27748,0.21552 1.98549,0.27705 0.70799,0.0616 1.35443,0.18473 1.93931,0.36939 0.58486,0.18473 1.06199,0.49256 1.43139,0.92348 0.40016,0.43099 0.60025,1.07743 0.60026,1.93931 -1e-5,0.36942 -0.0462,0.75421 -0.13852,1.15435 -0.0616,0.40021 -0.0924,0.78499 -0.0924,1.15435 -10e-6,0.43099 0.0154,0.87734 0.0462,1.33905 0.0308,0.46177 0.0462,0.90812 0.0462,1.33904 -10e-6,0.46177 -0.0308,0.9389 -0.0924,1.4314 -0.0616,0.46177 -0.0924,0.92351 -0.0923,1.38522 -2e-5,0.33863 0.0462,0.70803 0.13852,1.10818 0.12312,0.36941 0.18468,0.72341 0.18469,1.062 -10e-6,0.55411 -0.10775,1.09281 -0.32321,1.61609 -0.2155,0.52333 -0.32324,1.06202 -0.32322,1.61609 -2e-5,0.52333 0.0462,1.06202 0.13852,1.61609 0.12312,0.55411 0.18468,1.0928 0.1847,1.61609 -2e-5,0.27706 -0.0462,0.58489 -0.13853,0.92348 -0.0616,0.33863 -0.12314,0.64646 -0.18469,0.92348 0.0615,0.33863 0.13851,0.69263 0.23087,1.06201 0.12312,0.33862 0.21546,0.67723 0.27704,1.01582 -0.12314,0.43098 -0.2001,0.87732 -0.23087,1.33905 -0.0308,0.46175 -0.0462,0.92349 -0.0462,1.38522 -2e-5,0.27706 0.0923,0.50793 0.27704,0.69261 0.21547,0.15393 0.46173,0.27706 0.73879,0.36939 0.27703,0.0616 0.55407,0.10775 0.83113,0.13853 0.30781,0.0308 0.55407,0.0462 0.73878,0.0462 1.0466,10e-6 2.07782,-0.10773 3.09366,-0.32322 1.01581,-0.21547 2.03164,-0.32321 3.04749,-0.32322 0.36937,10e-6 0.81572,0.0154 1.33905,0.0462 0.55406,0.0308 1.09276,0.10775 1.61609,0.23087 0.52328,0.12314 0.96963,0.32323 1.33904,0.60026 0.36937,0.24627 0.55407,0.61566 0.55409,1.10818 l 0,1.66226 c -2e-5,0.58488 0.0769,1.16975 0.23087,1.75462 0.15389,0.58487 0.23084,1.18513 0.23087,1.80078 -3e-5,0.73879 -0.18472,1.29288 -0.55409,1.66227 -0.36941,0.36939 -0.83115,0.63104 -1.38522,0.78496 -0.55411,0.15391 -1.15437,0.24626 -1.80078,0.27704 -0.61568,0 -1.18516,0.0154 -1.70844,0.0462"
       id="path48009"
       style="font-size:46.17402649px;font-style:normal;font-variant:normal;font-weight:normal;font-stretch:normal;text-align:start;line-height:125%;letter-spacing:0px;word-spacing:0px;writing-mode:lr-tb;text-anchor:start;fill:#000000;fill-opacity:1;stroke:none;font-family:Propaganda;-inkscape-font-specification:Propaganda" />
    <path
       d="m 463.79239,529.12999 c -4e-5,1.72385 -0.0924,3.52463 -0.27705,5.40236 -0.15395,1.84697 -0.44638,3.60159 -0.87731,5.26384 -0.12316,0.49253 -0.35403,1.04662 -0.69261,1.66226 -0.30786,0.58488 -0.67725,1.18514 -1.10817,1.80079 -0.40021,0.58488 -0.81578,1.15436 -1.2467,1.70844 -0.43099,0.52331 -0.80038,0.98505 -1.10818,1.38522 -0.18473,0.24627 -0.52334,0.56948 -1.01583,0.96965 -0.49255,0.40018 -1.01586,0.81575 -1.56991,1.2467 -0.55412,0.40018 -1.09282,0.76957 -1.61609,1.10818 -0.52334,0.33861 -0.92351,0.55409 -1.20053,0.64644 -0.27707,0.0923 -0.61568,0.21548 -1.01583,0.36939 -0.4002,0.12313 -0.80037,0.24626 -1.20052,0.36939 -0.4002,0.12313 -0.80038,0.23087 -1.20053,0.32322 -0.36941,0.12313 -0.69263,0.21548 -0.96965,0.27704 -0.18472,0.0616 -0.41559,0.10774 -0.69261,0.13852 -0.24629,0.0308 -0.46176,0.0462 -0.64644,0.0462 l -3.50922,0 c -0.27707,0 -0.73881,-0.077 -1.38522,-0.23087 -0.61567,-0.12313 -1.29289,-0.29244 -2.03166,-0.50792 -0.70802,-0.18469 -1.38524,-0.38478 -2.03166,-0.60026 -0.64645,-0.21548 -1.12358,-0.38478 -1.43139,-0.50791 -0.83115,-0.33861 -1.72384,-0.8927 -2.6781,-1.66227 -0.92349,-0.76956 -1.80079,-1.63148 -2.63192,-2.58574 -0.83113,-0.98504 -1.55453,-2.00087 -2.17018,-3.04749 -0.58487,-1.0466 -0.96965,-2.01625 -1.15435,-2.90896 -0.0616,-0.18469 -0.13852,-0.5079 -0.23087,-0.96966 -0.0924,-0.46172 -0.1847,-0.93886 -0.27704,-1.43139 -0.0924,-0.52329 -0.16931,-1.00042 -0.23087,-1.4314 -0.0616,-0.43094 -0.0923,-0.70798 -0.0923,-0.83113 0,-0.52329 0.0308,-1.01581 0.0923,-1.47757 0.0923,-0.4925 0.13852,-1.00042 0.13852,-1.52374 0,-1.97007 0.15391,-3.74007 0.46174,-5.31001 0.33861,-1.60068 0.90809,-3.29372 1.70844,-5.07915 0.0616,-0.1231 0.20008,-0.32319 0.41557,-0.60026 0.24625,-0.27701 0.49251,-0.56945 0.73878,-0.87731 0.27704,-0.30779 0.53869,-0.60023 0.78496,-0.8773 0.27704,-0.27701 0.46173,-0.46171 0.55409,-0.55409 0.76956,-0.80032 1.55451,-1.56988 2.35487,-2.3087 0.83113,-0.73875 1.70843,-1.38519 2.63192,-1.93931 0.92347,-0.55405 1.89312,-0.98501 2.90897,-1.29287 1.01581,-0.33857 2.10859,-0.50788 3.27835,-0.50792 0.21546,4e-5 0.61564,0.0154 1.20053,0.0462 0.61563,0.0308 1.24667,0.077 1.89313,0.13852 0.6772,0.0616 1.29285,0.12317 1.84696,0.18469 0.58485,0.0616 0.96963,0.12317 1.15435,0.1847 0.43094,0.15395 0.8465,0.30786 1.2467,0.46174 0.40015,0.15395 0.81572,0.30786 1.2467,0.46174 0.4925,0.15395 0.98502,0.27708 1.47757,0.36939 0.52328,0.0616 1.03119,0.21552 1.52374,0.46174 0.0923,0.0308 0.21545,0.12317 0.36939,0.27705 0.18467,0.12316 0.38476,0.27708 0.60027,0.46174 0.21545,0.15395 0.41553,0.32325 0.60026,0.50791 0.18466,0.15395 0.32319,0.26169 0.41557,0.32322 0.43092,0.33864 0.90805,0.75421 1.43139,1.2467 0.55406,0.46177 1.07736,0.96969 1.56992,1.52374 0.49249,0.52334 0.93883,1.07743 1.33904,1.66227 0.40014,0.5849 0.67719,1.13899 0.83114,1.66226 0.15387,0.55412 0.277,1.13899 0.36939,1.75462 0.0923,0.61567 0.21544,1.21594 0.36939,1.80078 0.0308,0.12316 0.0769,0.33864 0.13852,0.64644 0.0923,0.27707 0.18466,0.5695 0.27705,0.8773 0.0923,0.27707 0.16926,0.55412 0.23087,0.83114 0.0615,0.24628 0.0923,0.40019 0.0924,0.46174 m -10.80473,0.41556 c -0.27707,-0.55406 -0.52333,-1.10815 -0.73878,-1.66226 -0.18472,-0.55407 -0.4002,-1.10815 -0.64644,-1.66227 -0.2155,-0.55406 -0.53872,-1.06197 -0.96965,-1.52374 -0.43098,-0.49249 -0.90812,-0.90806 -1.4314,-1.2467 -0.52333,-0.33858 -1.0928,-0.60023 -1.70844,-0.78496 -0.61567,-0.21545 -1.21593,-0.32319 -1.80078,-0.32321 -0.36941,2e-5 -0.78498,0.0616 -1.2467,0.18469 -0.43098,0.12316 -0.81576,0.24629 -1.15435,0.36939 -0.98506,0.36942 -1.83159,0.86195 -2.53957,1.47757 -0.67724,0.5849 -1.24672,1.26212 -1.70844,2.03166 -0.46176,0.76959 -0.80037,1.61611 -1.01583,2.53957 -0.21549,0.9235 -0.32323,1.87777 -0.32322,2.86279 -1e-5,1.16976 0.1539,2.35489 0.46174,3.5554 0.3386,1.16976 0.83112,2.23176 1.47757,3.18601 0.6772,0.95427 1.50834,1.73923 2.4934,2.35487 0.98503,0.58489 2.13938,0.87732 3.46305,0.87731 0.46172,10e-6 0.90807,-0.0923 1.33905,-0.27704 0.46171,-0.18469 0.90806,-0.36939 1.33904,-0.55409 0.64642,-0.30782 1.13894,-0.53869 1.47757,-0.69261 0.36937,-0.1539 0.64641,-0.32321 0.83113,-0.50792 0.21546,-0.21546 0.40015,-0.49251 0.55409,-0.83113 0.18467,-0.3386 0.41554,-0.83112 0.69261,-1.47757 0.12311,-0.24625 0.26163,-0.47711 0.41557,-0.69261 0.15389,-0.21546 0.29241,-0.44633 0.41557,-0.69261 0.0308,-0.0923 0.0615,-0.43094 0.0923,-1.01583 0.0308,-0.61563 0.0615,-1.27746 0.0924,-1.98548 0.0308,-0.73877 0.0462,-1.43138 0.0462,-2.07783 0.0308,-0.6772 0.0615,-1.15433 0.0923,-1.4314"
       id="path48011"
       style="font-size:46.17402649px;font-style:normal;font-variant:normal;font-weight:normal;font-stretch:normal;text-align:start;line-height:125%;letter-spacing:0px;word-spacing:0px;writing-mode:lr-tb;text-anchor:start;fill:#000000;fill-opacity:1;stroke:none;font-family:Propaganda;-inkscape-font-specification:Propaganda" />
    <path
       d="m 499.58808,548.56925 c -4e-5,0.64644 -0.20012,1.12357 -0.60026,1.4314 -0.36943,0.30783 -0.83117,0.5233 -1.38523,0.64643 -0.52333,0.12314 -1.09281,0.20009 -1.70843,0.23087 -0.5849,0 -1.09282,0 -1.52375,0 l -1.20052,0.0462 c -0.64646,0 -1.41603,-0.0462 -2.3087,-0.13852 -0.89273,-0.0924 -1.63151,-0.30783 -2.21636,-0.64644 -0.12315,-0.0616 -0.24628,-0.20009 -0.36939,-0.41557 -0.12315,-0.24626 -0.24628,-0.49252 -0.36939,-0.73878 -0.0924,-0.27704 -0.18472,-0.5387 -0.27704,-0.78496 -0.0924,-0.24626 -0.16933,-0.43095 -0.23087,-0.55409 -0.30785,-0.67721 -0.64646,-1.30826 -1.01583,-1.89313 -0.33863,-0.61565 -0.72342,-1.2313 -1.15435,-1.84696 -2e-5,-0.0308 -0.0308,-0.12313 -0.0924,-0.27705 -0.0616,-0.1539 -0.12315,-0.32321 -0.1847,-0.50791 -0.0616,-0.18469 -0.12315,-0.35399 -0.18469,-0.50792 -0.0308,-0.18468 -0.0616,-0.30781 -0.0924,-0.36939 -0.12315,-0.27703 -0.27707,-0.53869 -0.46174,-0.78496 -0.15393,-0.24625 -0.27707,-0.5079 -0.36939,-0.78496 -0.0924,-0.30781 -0.16933,-0.61564 -0.23088,-0.92348 -0.0308,-0.30781 -0.12314,-0.61564 -0.27704,-0.92348 -0.15393,-0.24625 -0.36941,-0.44633 -0.64644,-0.60026 -0.24627,-0.18468 -0.50793,-0.27703 -0.78495,-0.27704 -0.24628,10e-6 -0.46176,0.0462 -0.64644,0.13852 -0.52332,10e-6 -1.00045,10e-6 -1.4314,0 -0.43097,-0.0308 -0.80036,10e-6 -1.10817,0.0924 -0.30784,0.0924 -0.53871,0.29245 -0.69261,0.60026 -0.15393,0.27706 -0.23088,0.7388 -0.23087,1.38522 -10e-6,0.76958 0.0769,1.52375 0.23087,2.26253 0.1539,0.70801 0.23086,1.4314 0.23087,2.17018 -1e-5,0.27705 -0.0154,0.56948 -0.0462,0.8773 -0.0308,0.27705 -0.0462,0.5541 -0.0462,0.83114 -1e-5,0.43096 0.0308,0.8927 0.0924,1.38522 0.0923,0.46174 0.13851,0.92348 0.13852,1.38522 -10e-6,0.30783 -0.0308,0.55409 -0.0924,0.73878 -0.0308,0.15392 -0.0924,0.29244 -0.18469,0.41557 -0.0924,0.12313 -0.23089,0.23087 -0.41557,0.32322 -0.15393,0.0923 -0.35401,0.20008 -0.60026,0.32321 -0.46175,0.24627 -0.87732,0.41557 -1.2467,0.50792 -0.33862,0.0924 -0.67723,0.15391 -1.01583,0.18469 -0.33862,0.0616 -0.70801,0.077 -1.10818,0.0462 -0.3694,0 -0.80035,0 -1.29287,0 -0.83114,0 -1.53914,-0.0462 -2.124,-0.13852 -0.5541,-0.0924 -1.01584,-0.27705 -1.38523,-0.55409 -0.33861,-0.27705 -0.60026,-0.67722 -0.78495,-1.20053 -0.15392,-0.5233 -0.23088,-1.21591 -0.23087,-2.07783 -1e-5,-0.55408 0.0154,-1.10817 0.0462,-1.66226 0.0616,-0.55409 0.0924,-1.10817 0.0924,-1.66227 0,-0.30782 -0.0308,-0.60025 -0.0924,-0.8773 -0.0308,-0.30782 -0.0462,-0.63104 -0.0462,-0.96966 -1e-5,-1.56991 0.0462,-3.10904 0.13852,-4.6174 0.12313,-1.50834 0.18469,-3.04747 0.18469,-4.6174 0,-0.43094 -0.0154,-0.84651 -0.0462,-1.2467 -0.0308,-0.40016 -0.0308,-0.80033 0,-1.20053 0.0308,-0.33859 0.0616,-0.6772 0.0924,-1.01583 0.0616,-0.36937 0.0923,-0.72337 0.0924,-1.062 -1e-5,-0.43093 -0.0616,-0.86189 -0.1847,-1.29287 -0.0924,-0.43093 -0.13852,-0.86189 -0.13852,-1.29287 0,-0.33859 0.0462,-0.66181 0.13852,-0.96966 0.12313,-0.33858 0.18469,-0.67719 0.1847,-1.01583 -1e-5,-0.52328 -0.0616,-1.07736 -0.1847,-1.66226 -0.0924,-0.58484 -0.16931,-1.13893 -0.23087,-1.66227 -0.0616,-0.43092 -0.0308,-0.89266 0.0924,-1.38522 0.15391,-0.49249 0.23087,-0.95423 0.23087,-1.38522 0,-0.33857 -0.0308,-0.6464 -0.0924,-0.92348 -0.0616,-0.30779 -0.0924,-0.63101 -0.0924,-0.96965 0,-0.43093 0.077,-0.81571 0.23087,-1.15435 0.15391,-0.36936 0.49252,-0.55406 1.01583,-0.55409 0.15391,3e-5 0.27704,0.0154 0.36939,0.0462 0.12313,0.0308 0.26165,0.0616 0.41557,0.0924 0.30782,0.0616 0.66182,0.10778 1.062,0.13852 0.43095,4e-5 0.86191,4e-5 1.29287,0 0.46174,4e-5 0.90809,4e-5 1.33905,0 0.46173,4e-5 0.86191,4e-5 1.20053,0 0.89268,0.0616 1.78538,0.15395 2.67809,0.27705 0.92347,0.0924 1.83156,0.13855 2.72427,0.13852 0.46172,3e-5 0.92346,-0.0461 1.38522,-0.13852 0.4925,-0.1231 0.98503,-0.18466 1.47757,-0.1847 0.61563,4e-5 1.21589,0.0616 1.80078,0.1847 0.58485,0.0924 1.18512,0.13855 1.80079,0.13852 0.33859,3e-5 0.69259,-0.0307 1.062,-0.0923 0.40016,-0.0923 0.76955,-0.13849 1.10818,-0.13852 0.55406,3e-5 1.13893,0.0924 1.75461,0.27704 0.61563,0.18473 1.23128,0.43099 1.84696,0.73879 0.64641,0.27708 1.24667,0.60029 1.80079,0.96965 0.55406,0.33864 1.03119,0.67725 1.4314,1.01583 1.29284,1.13899 2.17014,2.52421 2.63192,4.15566 0.4617,1.63151 0.69257,3.27838 0.69261,4.94062 -4e-5,1.84699 -0.38482,3.43229 -1.15435,4.75593 -0.73882,1.29289 -1.87778,2.43185 -3.41688,3.41688 -0.24629,0.15392 -0.52334,0.29245 -0.83114,0.41556 -0.27707,0.12315 -0.55411,0.26167 -0.83113,0.41557 -0.18472,0.12314 -0.27707,0.32323 -0.27704,0.60026 -3e-5,0.58488 0.23084,1.10819 0.69261,1.56992 0.73875,0.76958 1.32362,1.50836 1.75461,2.21635 0.43093,0.67723 0.92345,1.46219 1.47757,2.35488 0.18467,0.33861 0.44632,0.76957 0.78496,1.29287 0.33858,0.52331 0.66179,1.06201 0.96965,1.61609 0.33858,0.55409 0.61562,1.09279 0.83114,1.61609 0.24622,0.52331 0.36935,0.95427 0.36939,1.29287 m -20.59362,-26.08832 c -0.15392,0.12316 -0.40019,0.33864 -0.73878,0.64643 -0.33862,0.30786 -0.50793,0.5849 -0.50792,0.83114 -1e-5,0.52333 0.0154,1.03124 0.0462,1.52374 0.0308,0.46177 0.0462,0.9389 0.0462,1.43139 -1e-5,0.21551 -1e-5,0.53873 0,0.96966 -1e-5,0.4002 0.0154,0.81576 0.0462,1.2467 0.0616,0.43098 0.13851,0.83115 0.23087,1.20052 0.12311,0.36942 0.30781,0.61568 0.55408,0.73879 0.1539,0.0924 0.32321,0.13854 0.50792,0.13852 0.18468,-0.0308 0.35399,-0.0308 0.50791,0 0.0923,2e-5 0.18468,0.0154 0.27705,0.0462 0.0923,2e-5 0.20007,2e-5 0.32322,0 0.73876,2e-5 1.46215,-0.1385 2.17016,-0.41556 0.70799,-0.27703 1.416,-0.46172 2.12401,-0.55409 0.43095,-0.0616 0.8619,-0.10772 1.29287,-0.13852 0.43095,-0.0308 0.8619,-0.0462 1.29287,-0.0462 0.61564,-0.24624 1.09277,-0.72337 1.4314,-1.43139 0.36937,-0.73876 0.55406,-1.41598 0.55409,-2.03166 -3e-5,-0.15389 -0.0308,-0.38476 -0.0924,-0.69261 -0.27707,-1.0158 -0.81576,-1.76998 -1.61609,-2.26253 -0.76959,-0.49249 -1.64689,-0.81571 -2.63192,-0.96965 -0.98505,-0.18467 -2.00089,-0.26163 -3.04748,-0.23087 -1.04663,3e-5 -1.9701,3e-5 -2.77045,0"
       id="path48013"
       style="font-size:46.17402649px;font-style:normal;font-variant:normal;font-weight:normal;font-stretch:normal;text-align:start;line-height:125%;letter-spacing:0px;word-spacing:0px;writing-mode:lr-tb;text-anchor:start;fill:#000000;fill-opacity:1;stroke:none;font-family:Propaganda;-inkscape-font-specification:Propaganda" />
    <path
       d="m 535.391,541.31993 c -4e-5,0.64645 -0.13856,1.35445 -0.41557,2.12401 -0.27708,0.76957 -0.63108,1.50835 -1.062,2.21635 -0.43099,0.70801 -0.93891,1.35444 -1.52375,1.93931 -0.55411,0.58487 -1.10821,1.03122 -1.66226,1.33905 -0.18473,0.0924 -0.4002,0.18469 -0.64644,0.27704 -0.2155,0.0616 -0.43098,0.12313 -0.64643,0.1847 -0.431,0.18469 -0.87734,0.38478 -1.33905,0.60026 -0.43098,0.18469 -0.86194,0.38478 -1.29287,0.60026 -0.46177,0 -0.9389,0.0308 -1.4314,0.0924 -0.49254,0.0616 -0.95428,0.20009 -1.38522,0.41556 -0.80037,-0.0308 -1.58533,-0.0462 -2.35487,-0.0462 -0.73881,-0.0308 -1.50837,-0.0462 -2.30871,-0.0462 -0.55411,0 -1.10819,0.0154 -1.66227,0.0462 -0.55409,0.0308 -1.10818,0.0462 -1.66226,0.0462 -0.33862,0 -0.66184,-0.0154 -0.96965,-0.0462 -0.27706,-0.0308 -0.56949,-0.0462 -0.87731,-0.0462 -0.30784,0 -0.56949,0.0462 -0.78496,0.13852 -0.30784,-0.0616 -0.61567,-0.0924 -0.92349,-0.0924 -0.30782,-0.0308 -0.61565,-0.077 -0.92347,-0.13852 -0.52331,0.15391 -1.04662,0.26165 -1.56991,0.32322 -0.52332,0.0923 -1.06201,0.13852 -1.61609,0.13852 -1.66227,0 -2.80123,-0.38478 -3.41688,-1.15435 -0.61566,-0.80035 -0.92349,-1.98548 -0.92348,-3.5554 -10e-6,-0.76956 0.0616,-1.53913 0.18469,-2.3087 0.12313,-0.80035 0.1847,-1.5853 0.1847,-2.35488 0,-1.50834 -0.0462,-3.0013 -0.13852,-4.47888 -0.0616,-1.50834 -0.0924,-3.01669 -0.0924,-4.52505 0,-0.64642 0.0462,-1.30825 0.13852,-1.98549 0.12313,-0.70798 0.15391,-1.3852 0.0924,-2.03165 -0.12313,-1.10816 -0.20009,-2.20094 -0.23087,-3.27836 0,-1.07737 0,-2.17015 0,-3.27836 0,-0.80032 -0.077,-1.60067 -0.23087,-2.40105 -0.12313,-0.80031 -0.1847,-1.60066 -0.1847,-2.40104 0,-0.21545 0,-0.41554 0,-0.60027 0,-0.21544 0.0308,-0.43092 0.0924,-0.64643 0.12313,-0.1231 0.20009,-0.21545 0.23087,-0.27705 0.27704,-0.4617 0.73878,-0.78492 1.38522,-0.96965 0.67722,-0.18466 1.38522,-0.30779 2.12401,-0.36939 0.76956,-0.0615 1.52373,-0.0769 2.26252,-0.0462 0.76956,4e-5 1.40061,4e-5 1.89314,0 l 2.63192,-0.0923 c 0.43094,-0.0307 0.87729,4e-5 1.33905,0.0923 0.46172,0.0924 0.90807,0.13856 1.33904,0.13852 0.40016,4e-5 0.80034,-0.0461 1.20053,-0.13852 0.43094,-0.12309 0.8619,-0.18466 1.29287,-0.18469 0.83111,3e-5 1.66225,0.0462 2.4934,0.13852 0.83111,0.0616 1.66224,0.12316 2.4934,0.18469 1.87771,0.15395 3.46302,0.53874 4.75592,1.15435 1.32363,0.58491 2.47798,1.72387 3.46305,3.41688 0.0923,0.15395 0.21545,0.36943 0.36939,0.64644 0.15389,0.24629 0.3078,0.52333 0.46174,0.83113 0.15389,0.30786 0.29241,0.60029 0.41557,0.87731 0.1231,0.27707 0.18466,0.49255 0.1847,0.64643 -4e-5,0.18473 -0.0308,0.50795 -0.0924,0.96966 -0.0616,0.43098 -0.15395,0.72342 -0.27705,0.8773 -3e-5,0.21551 0.0154,0.43099 0.0462,0.64644 0.0615,0.18472 0.0923,0.4002 0.0924,0.64644 -4e-5,0.9235 -0.15395,1.70846 -0.46174,2.35487 -0.30786,0.64646 -0.72343,1.20055 -1.2467,1.66227 -0.52334,0.46176 -1.13899,0.86193 -1.84696,1.20052 -0.67725,0.33863 -1.38525,0.66185 -2.12401,0.96966 -0.0616,0.0308 -0.10776,0.0924 -0.13852,0.18469 -0.0308,0.0924 -0.0462,0.16933 -0.0462,0.23087 l 0.18469,0 c 0.0923,0.12315 0.21545,0.18472 0.36939,0.1847 0.24624,2e-5 0.47711,-0.0154 0.69261,-0.0462 0.24624,-0.0615 0.4925,-0.0923 0.73879,-0.0923 0.24623,2e-5 0.44632,0.0308 0.60026,0.0923 1.07736,0.40019 1.92389,0.9081 2.53957,1.52374 0.64641,0.58489 1.12354,1.2621 1.4314,2.03166 0.33857,0.76958 0.55405,1.6161 0.64643,2.53957 0.0923,0.89271 0.13849,1.86236 0.13853,2.90896 m -20.4551,-5.17149 c -0.18471,0.18471 -0.32323,0.40019 -0.41556,0.64644 -0.0616,0.21549 -0.12315,0.44636 -0.1847,0.69261 -0.0616,0.0308 -0.10775,0.15392 -0.13852,0.36939 -2e-5,0.18471 -2e-5,0.40019 0,0.64644 -2e-5,0.21549 -2e-5,0.43096 0,0.64643 -2e-5,0.21549 -2e-5,0.35401 0,0.41557 -2e-5,0.49253 0.0154,0.93888 0.0462,1.33904 0.0308,0.40019 0.12312,0.7388 0.27705,1.01583 0.1539,0.27706 0.38477,0.49253 0.69261,0.64644 0.30781,0.15392 0.73877,0.23088 1.29287,0.23087 0.36938,1e-5 0.73877,-0.0308 1.10818,-0.0924 0.40015,-0.0923 0.78494,-0.16929 1.15435,-0.23087 0.70798,-0.12312 1.44676,-0.21547 2.21635,-0.27704 0.76955,-0.0616 1.46216,-0.18469 2.07783,-0.36939 0.64641,-0.18469 1.16972,-0.49252 1.56992,-0.92349 0.40015,-0.43094 0.60024,-1.09277 0.60026,-1.98548 -2e-5,-0.83112 -0.20011,-1.43138 -0.60026,-1.80079 -0.36942,-0.40016 -0.84655,-0.64642 -1.4314,-0.73878 -0.55411,-0.12312 -1.18515,-0.1539 -1.89313,-0.0923 -0.67724,0.0308 -1.30829,0.0462 -1.89314,0.0462 -0.7388,1e-5 -1.49297,-0.0308 -2.26252,-0.0924 -0.7388,-0.0616 -1.47759,-0.0923 -2.21636,-0.0924 m -0.18469,-13.20577 c -0.24628,0.52333 -0.47715,1.07742 -0.69261,1.66226 -0.18471,0.5849 -0.27706,1.16977 -0.27705,1.75462 -10e-6,0.80037 0.20008,1.41602 0.60026,1.84696 0.43095,0.43098 1.0466,0.64646 1.84696,0.64643 0.55408,3e-5 1.09277,-0.0769 1.6161,-0.23087 0.52328,-0.18467 1.04659,-0.3078 1.56991,-0.36939 0.49251,-0.0308 1.00042,-0.0615 1.52375,-0.0924 0.55406,-0.0615 1.04659,-0.16928 1.47756,-0.32322 0.43094,-0.18467 0.78494,-0.44632 1.06201,-0.78495 0.27702,-0.36937 0.41554,-0.90807 0.41556,-1.61609 -2e-5,-0.64641 -0.26167,-1.12355 -0.78496,-1.4314 -0.49254,-0.3078 -1.0928,-0.52328 -1.80078,-0.64644 -0.67724,-0.1231 -1.38524,-0.16927 -2.12401,-0.13852 -0.70802,3e-5 -1.2621,-0.0154 -1.66226,-0.0462 -0.46176,-0.0308 -0.9235,-0.0615 -1.38522,-0.0924 -0.46176,-0.0308 -0.9235,-0.0769 -1.38522,-0.13852"
       id="path48015"
       style="font-size:46.17402649px;font-style:normal;font-variant:normal;font-weight:normal;font-stretch:normal;text-align:start;line-height:125%;letter-spacing:0px;word-spacing:0px;writing-mode:lr-tb;text-anchor:start;fill:#000000;fill-opacity:1;stroke:none;font-family:Propaganda;-inkscape-font-specification:Propaganda" />
    <path
       d="m 575.16919,529.12999 c -4e-5,1.72385 -0.0924,3.52463 -0.27705,5.40236 -0.15395,1.84697 -0.44638,3.60159 -0.8773,5.26384 -0.12317,0.49253 -0.35404,1.04662 -0.69262,1.66226 -0.30786,0.58488 -0.67725,1.18514 -1.10817,1.80079 -0.40021,0.58488 -0.81578,1.15436 -1.2467,1.70844 -0.43099,0.52331 -0.80038,0.98505 -1.10818,1.38522 -0.18473,0.24627 -0.52333,0.56948 -1.01583,0.96965 -0.49255,0.40018 -1.01585,0.81575 -1.56991,1.2467 -0.55412,0.40018 -1.09282,0.76957 -1.61609,1.10818 -0.52334,0.33861 -0.92351,0.55409 -1.20053,0.64644 -0.27707,0.0923 -0.61568,0.21548 -1.01583,0.36939 -0.4002,0.12313 -0.80037,0.24626 -1.20052,0.36939 -0.4002,0.12313 -0.80038,0.23087 -1.20053,0.32322 -0.36941,0.12313 -0.69263,0.21548 -0.96965,0.27704 -0.18472,0.0616 -0.41559,0.10774 -0.69261,0.13852 -0.24628,0.0308 -0.46176,0.0462 -0.64644,0.0462 l -3.50922,0 c -0.27707,0 -0.73881,-0.077 -1.38522,-0.23087 -0.61567,-0.12313 -1.29289,-0.29244 -2.03166,-0.50792 -0.70802,-0.18469 -1.38524,-0.38478 -2.03166,-0.60026 -0.64645,-0.21548 -1.12358,-0.38478 -1.43139,-0.50791 -0.83115,-0.33861 -1.72384,-0.8927 -2.6781,-1.66227 -0.92349,-0.76956 -1.80079,-1.63148 -2.63192,-2.58574 -0.83113,-0.98504 -1.55453,-2.00087 -2.17018,-3.04749 -0.58487,-1.0466 -0.96965,-2.01625 -1.15435,-2.90896 -0.0616,-0.18469 -0.13852,-0.5079 -0.23087,-0.96966 -0.0924,-0.46172 -0.18469,-0.93886 -0.27704,-1.43139 -0.0924,-0.52329 -0.16931,-1.00042 -0.23087,-1.4314 -0.0616,-0.43094 -0.0924,-0.70798 -0.0924,-0.83113 0,-0.52329 0.0308,-1.01581 0.0924,-1.47757 0.0924,-0.4925 0.13852,-1.00042 0.13852,-1.52374 0,-1.97007 0.15391,-3.74007 0.46174,-5.31001 0.33861,-1.60068 0.90809,-3.29372 1.70844,-5.07915 0.0616,-0.1231 0.20008,-0.32319 0.41557,-0.60026 0.24625,-0.27701 0.49251,-0.56945 0.73878,-0.87731 0.27704,-0.30779 0.53869,-0.60023 0.78496,-0.8773 0.27704,-0.27701 0.46173,-0.46171 0.55409,-0.55409 0.76956,-0.80032 1.55452,-1.56988 2.35487,-2.3087 0.83113,-0.73875 1.70843,-1.38519 2.63192,-1.93931 0.92347,-0.55405 1.89312,-0.98501 2.90897,-1.29287 1.01581,-0.33857 2.10859,-0.50788 3.27835,-0.50792 0.21546,4e-5 0.61564,0.0154 1.20053,0.0462 0.61563,0.0308 1.24668,0.077 1.89313,0.13852 0.6772,0.0616 1.29285,0.12317 1.84696,0.18469 0.58485,0.0616 0.96963,0.12317 1.15435,0.1847 0.43094,0.15395 0.8465,0.30786 1.2467,0.46174 0.40015,0.15395 0.81572,0.30786 1.2467,0.46174 0.4925,0.15395 0.98502,0.27708 1.47757,0.36939 0.52328,0.0616 1.03119,0.21552 1.52374,0.46174 0.0923,0.0308 0.21545,0.12317 0.3694,0.27705 0.18466,0.12316 0.38475,0.27708 0.60026,0.46174 0.21545,0.15395 0.41553,0.32325 0.60026,0.50791 0.18466,0.15395 0.32319,0.26169 0.41556,0.32322 0.43093,0.33864 0.90805,0.75421 1.4314,1.2467 0.55406,0.46177 1.07736,0.96969 1.56992,1.52374 0.49249,0.52334 0.93883,1.07743 1.33904,1.66227 0.40014,0.5849 0.67719,1.13899 0.83114,1.66226 0.15387,0.55412 0.277,1.13899 0.36939,1.75462 0.0923,0.61567 0.21544,1.21594 0.36939,1.80078 0.0308,0.12316 0.0769,0.33864 0.13852,0.64644 0.0923,0.27707 0.18466,0.5695 0.27705,0.8773 0.0923,0.27707 0.16926,0.55412 0.23087,0.83114 0.0615,0.24628 0.0923,0.40019 0.0924,0.46174 m -10.80473,0.41556 c -0.27707,-0.55406 -0.52333,-1.10815 -0.73878,-1.66226 -0.18472,-0.55407 -0.4002,-1.10815 -0.64644,-1.66227 -0.2155,-0.55406 -0.53872,-1.06197 -0.96965,-1.52374 -0.43098,-0.49249 -0.90811,-0.90806 -1.4314,-1.2467 -0.52332,-0.33858 -1.0928,-0.60023 -1.70844,-0.78496 -0.61567,-0.21545 -1.21593,-0.32319 -1.80078,-0.32321 -0.36941,2e-5 -0.78498,0.0616 -1.2467,0.18469 -0.43098,0.12316 -0.81576,0.24629 -1.15435,0.36939 -0.98506,0.36942 -1.83159,0.86195 -2.53957,1.47757 -0.67724,0.5849 -1.24672,1.26212 -1.70844,2.03166 -0.46176,0.76959 -0.80036,1.61611 -1.01583,2.53957 -0.21549,0.9235 -0.32323,1.87777 -0.32322,2.86279 -10e-6,1.16976 0.1539,2.35489 0.46174,3.5554 0.3386,1.16976 0.83112,2.23176 1.47757,3.18601 0.6772,0.95427 1.50834,1.73923 2.4934,2.35487 0.98503,0.58489 2.13938,0.87732 3.46305,0.87731 0.46172,10e-6 0.90807,-0.0923 1.33905,-0.27704 0.46171,-0.18469 0.90806,-0.36939 1.33904,-0.55409 0.64642,-0.30782 1.13894,-0.53869 1.47757,-0.69261 0.36937,-0.1539 0.64641,-0.32321 0.83113,-0.50792 0.21546,-0.21546 0.40015,-0.49251 0.55409,-0.83113 0.18467,-0.3386 0.41554,-0.83112 0.69261,-1.47757 0.12311,-0.24625 0.26163,-0.47711 0.41557,-0.69261 0.15389,-0.21546 0.29241,-0.44633 0.41557,-0.69261 0.0308,-0.0923 0.0615,-0.43094 0.0923,-1.01583 0.0308,-0.61563 0.0615,-1.27746 0.0924,-1.98548 0.0308,-0.73877 0.0462,-1.43138 0.0462,-2.07783 0.0308,-0.6772 0.0615,-1.15433 0.0923,-1.4314"
       id="path48017"
       style="font-size:46.17402649px;font-style:normal;font-variant:normal;font-weight:normal;font-stretch:normal;text-align:start;line-height:125%;letter-spacing:0px;word-spacing:0px;writing-mode:lr-tb;text-anchor:start;fill:#000000;fill-opacity:1;stroke:none;font-family:Propaganda;-inkscape-font-specification:Propaganda" />
    <path
       d="m 596.06148,522.94267 0.41557,2.21635 -0.41557,2.4934 c 0.12311,0.4002 0.20007,1.12359 0.23087,2.17018 0.0616,1.01585 0.0923,2.10863 0.0924,3.27835 0.0308,1.13898 0.0308,2.23176 0,3.27836 -2e-5,1.04662 -2e-5,1.8008 0,2.26253 -2e-5,0.49253 -0.0462,1.00045 -0.13852,1.52374 -0.0616,0.49253 -0.12316,0.98506 -0.1847,1.47757 -0.0308,0.33862 -0.0308,0.73879 0,1.20052 0.0616,0.46175 0.12311,0.93888 0.1847,1.4314 0.0923,0.49253 0.16928,0.98505 0.23086,1.47757 0.0923,0.49253 0.1385,0.93887 0.13853,1.33904 -3e-5,1.0774 -0.24628,1.89314 -0.73879,2.44723 -0.49254,0.55409 -1.2621,0.93887 -2.30871,1.15435 l 0,0.23087 c -0.80035,0 -1.6007,0.0462 -2.40104,0.13852 -0.80036,0.0924 -1.60071,0.13852 -2.40105,0.13852 -0.83114,0 -1.49297,-0.29243 -1.98548,-0.8773 -0.46175,-0.58487 -0.69262,-1.27748 -0.69261,-2.07784 -10e-6,-0.49251 0.0154,-0.98504 0.0462,-1.47756 0.0308,-0.5233 0.0462,-1.04661 0.0462,-1.56992 -0.0308,-0.3386 -0.077,-0.6926 -0.13852,-1.062 -0.0308,-0.40017 -0.0462,-0.76956 -0.0462,-1.10818 -10e-6,-0.49251 0.0616,-1.00043 0.1847,-1.52374 0.1539,-0.5233 0.23086,-1.03121 0.23087,-1.52375 -1e-5,-0.55407 -0.0462,-1.13894 -0.13853,-1.75461 -0.0616,-0.61564 -0.12313,-1.20051 -0.1847,-1.75461 -0.0616,-0.46173 -0.0308,-0.95425 0.0923,-1.47757 0.1539,-0.52329 0.23087,-1.0312 0.23088,-1.52374 -1e-5,-0.43094 -0.0462,-0.87729 -0.13853,-1.33905 -0.0616,-0.4925 -0.12314,-0.95424 -0.1847,-1.38522 -0.0616,-0.33859 -0.0616,-0.8619 0,-1.56992 0.0616,-0.70798 0.13851,-1.44676 0.23087,-2.21635 0.0923,-0.80033 0.18469,-1.5545 0.27705,-2.26253 0.0923,-0.70797 0.16929,-1.24667 0.23087,-1.61609 -0.49254,3e-5 -0.93889,0.0616 -1.33905,0.1847 -0.3694,0.12315 -0.73879,0.26168 -1.10818,0.41556 -0.3694,0.12316 -0.75418,0.24629 -1.15435,0.36939 -0.3694,0.0924 -0.80035,0.13855 -1.29287,0.13853 -0.49253,2e-5 -1.00044,-0.0308 -1.52374,-0.0924 -0.52331,-0.0923 -1.01584,-0.24624 -1.47757,-0.46174 -0.43096,-0.24624 -0.78496,-0.55406 -1.06201,-0.92348 -0.27704,-0.40015 -0.41556,-0.90806 -0.41556,-1.52374 l 0,-2.17018 c 0,-0.95423 0.0462,-1.70841 0.13852,-2.26253 0.12313,-0.55405 0.33861,-1.0004 0.64644,-1.33905 0.30782,-0.33857 0.708,-0.60022 1.20052,-0.78496 0.5233,-0.21544 1.18513,-0.44631 1.98548,-0.69261 0.40017,0.0616 0.90809,0.13856 1.52375,0.23087 0.64643,0.0924 1.29286,0.18474 1.93931,0.27705 0.67721,0.0616 1.32364,0.12316 1.93931,0.18469 0.61564,0.0308 1.12355,0.0308 1.52374,0 0.46173,-0.0615 0.93886,-0.12309 1.43139,-0.18469 0.52329,-0.0615 1.01582,-0.0923 1.47757,-0.0924 0.70799,4e-5 1.43138,0.077 2.17018,0.23087 0.76955,0.12317 1.50833,0.18473 2.21635,0.1847 1.07738,3e-5 2.13938,-0.0308 3.18601,-0.0924 1.04659,-0.0923 2.10859,-0.13849 3.18601,-0.13852 0.67719,3e-5 1.24667,0.0154 1.70844,0.0462 0.46171,0.0308 0.8311,0.15395 1.10818,0.36939 0.27701,0.18473 0.46171,0.49256 0.55408,0.92348 0.12311,0.43099 0.18467,1.03126 0.1847,1.80079 -3e-5,0.18473 -3e-5,0.36942 0,0.55409 -3e-5,0.18473 -0.0154,0.36942 -0.0462,0.55409 0.0615,0.27707 0.0923,0.5849 0.0923,0.92348 -2e-5,0.30785 -2e-5,0.61568 0,0.92348 -2e-5,0.46177 -0.18472,0.90812 -0.55408,1.33904 -0.33864,0.43099 -0.67725,0.80038 -1.01583,1.10818 -0.95429,3e-5 -1.90855,-0.10771 -2.86279,-0.32322 -0.95429,-0.21545 -1.90855,-0.32319 -2.86279,-0.32322 -0.76959,3e-5 -1.52377,0.16934 -2.26253,0.50792"
       id="path48019"
       style="font-size:46.17402649px;font-style:normal;font-variant:normal;font-weight:normal;font-stretch:normal;text-align:start;line-height:125%;letter-spacing:0px;word-spacing:0px;writing-mode:lr-tb;text-anchor:start;fill:#000000;fill-opacity:1;stroke:none;font-family:Propaganda;-inkscape-font-specification:Propaganda" />
  </g>
</svg>
