<?xml version="1.0" encoding="utf-8"?>
<!-- Generator: Adobe Illustrator 18.0.0, SVG Export Plug-In . SVG Version: 6.00 Build 0)  -->
<!DOCTYPE svg PUBLIC "-//W3C//DTD SVG 1.1//EN" "http://www.w3.org/Graphics/SVG/1.1/DTD/svg11.dtd">
<svg version="1.1" id="Layer_1" xmlns="http://www.w3.org/2000/svg" xmlns:xlink="http://www.w3.org/1999/xlink" x="0px" y="0px"
	 viewBox="0 0 88 24" enable-background="new 0 0 88 24" xml:space="preserve">
<path fill="none" stroke="#000000" stroke-miterlimit="10" d="M10,0l30,15l2,1V2.2c0-0.7-0.1-1.5-0.2-2.2h-2.1
	C39.9,0.7,40,1.4,40,2.2v10.6L14.5,0H10z M41.8,24c-0.7-2.9-2.6-5.4-5.3-6.8L4,1L2,0v13.8c0,3.8,2.1,7.2,5.5,8.9L10,24h4.5l-6.1-3
	C5.7,19.6,4,16.9,4,13.8V3.2L35.6,19c2,1,3.5,2.8,4.1,5H41.8z M78,24l2.5-1.2c3.4-1.7,5.5-5.2,5.5-8.9V0l-2,1L51.5,17.2
	c-2.7,1.3-4.6,3.8-5.3,6.8h2.1c0.6-2.2,2.1-4,4.1-5L84,3.2v10.6c0,3-1.7,5.8-4.4,7.2l-6.1,3H78z M78,0L48,15l-2,1V2.2
	c0-0.7,0.1-1.5,0.2-2.2h2.1C48.1,0.7,48,1.4,48,2.2v10.6L73.5,0H78z"/>
</svg>
