<?xml version="1.0" encoding="utf-8"?>
<svg version="1.1" id="Layer_1" xmlns="http://www.w3.org/2000/svg" xmlns:xlink="http://www.w3.org/1999/xlink" x="0px" y="0px"
	 viewBox="0 0 100 20" enable-background="new 0 0 100 20" xml:space="preserve">
<path fill="none" stroke="#000000" stroke-miterlimit="10" d="M83.6,20c-2.5-0.7-5.1-1.7-8.2-2.9C65.9,13.3,60.6,12,50,12
	c-10.6,0-16.9,1.4-26.7,5.1c-0.2,0.1-1.4,0.5-1.8,0.7c-2.5,0.9-4.7,1.7-6.7,2.3 M0,2c5.7,0,10-0.6,14.8-2 M100,2
	c-6.8,0-11.4-0.5-16.4-2 M100,12c-10.3,0-15.4-1.2-24.6-4.9C65.9,3.3,60.6,2,50,2C39.4,2,33.1,3.4,23.3,7.1
	c-0.2,0.1-1.4,0.5-1.8,0.7C13.2,10.8,8.2,12,0,12"/>
</svg>
