<svg xmlns="http://www.w3.org/2000/svg" width="77" height="107" viewBox="0 0 77 107">
<path d="M46 101a5 5 0 0 1 5 5h5a5 5 0 0 1 10 0h5a5 5 0 0 1 5-5v-5a5 5 0 0 1 0-10v-5a5 5 0 0 1 0-10v-5a5 5 0 0 1 0-10v-5a5 5 0 0 1 0-10v-5a5 5 0 0 1 0-10v-5a5 5 0 0 1 0-10V6a5 5 0 0 1-5-5h-5a5 5 0 0 1-10 0h-5a5 5 0 0 1-10 0h-5a5 5 0 0 1-10 0h-5a5 5 0 0 1-10 0H6a5 5 0 0 1-5 5v5a5 5 0 0 1 0 10v5a5 5 0 0 1 0 10v5a5 5 0 0 1 0 10v5a5 5 0 0 1 0 10v5a5 5 0 0 1 0 10v5a5 5 0 0 1 0 10v5a5 5 0 0 1 5 5h5a5 5 0 0 1 10 0h5a5 5 0 0 1 10 0h5a5 5 0 0 1 5-5zm15-2a7 7 0 0 0-6.71 5h-1.58a7 7 0 0 0-13.42 0h-1.58a7 7 0 0 0-13.42 0h-1.58a7 7 0 0 0-13.42 0H7.71A7.01 7.01 0 0 0 3 99.29v-1.58a7 7 0 0 0 0-13.42v-1.58a7 7 0 0 0 0-13.42v-1.58a7 7 0 0 0 0-13.42v-1.58a7 7 0 0 0 0-13.42v-1.58a7 7 0 0 0 0-13.42v-1.58A7 7 0 0 0 3 9.29V7.71A7.02 7.02 0 0 0 7.71 3h1.58a7 7 0 0 0 13.42 0h1.58a7 7 0 0 0 13.42 0h1.58a7 7 0 0 0 13.42 0h1.58a7 7 0 0 0 13.42 0h1.58A7.02 7.02 0 0 0 74 7.71v1.58a7 7 0 0 0 0 13.42v1.58a7 7 0 0 0 0 13.42v1.58a7 7 0 0 0 0 13.42v1.58a7 7 0 0 0 0 13.42v1.58a7 7 0 0 0 0 13.42v1.58a7 7 0 0 0 0 13.42v1.58a7.01 7.01 0 0 0-4.71 4.71h-1.58A7 7 0 0 0 61 99zM12 12h53v83H12V12zm51 81H14V14h49v79z"/>
</svg>
